<svg width="181" height="60" viewBox="0 0 181 60" fill="none" xmlns="http://www.w3.org/2000/svg">
<path d="M0.5 10.5C0.5 7.23841 0.5 5.60761 1.03284 4.32122C1.7433 2.60602 3.10602 1.2433 4.82122 0.532843C6.10761 0 7.73841 0 11 0H170C173.262 0 174.892 0 176.179 0.532843C177.894 1.2433 179.257 2.60602 179.967 4.32122C180.5 5.60761 180.5 7.23841 180.5 10.5V49.5C180.5 52.7616 180.5 54.3924 179.967 55.6788C179.257 57.394 177.894 58.7567 176.179 59.4672C174.892 60 173.262 60 170 60H11C7.73841 60 6.10761 60 4.82122 59.4672C3.10602 58.7567 1.7433 57.394 1.03284 55.6788C0.5 54.3924 0.5 52.7616 0.5 49.5V10.5Z" fill="white"/>
<path d="M122.789 28.8014V32.2379H120.635V34.4916H122.789V42.1491C122.789 44.7638 123.972 45.8097 126.947 45.8097C127.47 45.8097 127.968 45.7475 128.404 45.6727V43.444C128.031 43.4813 127.794 43.5062 127.383 43.5062C126.051 43.5062 125.466 42.8837 125.466 41.4643V34.4916H128.404V32.2379H125.466V28.8014H122.789Z" fill="#212121"/>
<path d="M135.985 45.9965C139.945 45.9965 142.372 43.3444 142.372 38.9491C142.372 34.5788 139.932 31.9142 135.985 31.9142C132.026 31.9142 129.585 34.5788 129.585 38.9491C129.585 43.3444 132.013 45.9965 135.985 45.9965ZM135.985 43.6183C133.657 43.6183 132.349 41.9125 132.349 38.9491C132.349 36.0106 133.657 34.2924 135.985 34.2924C138.301 34.2924 139.621 36.0106 139.621 38.9491C139.621 41.9 138.301 43.6183 135.985 43.6183Z" fill="#212121"/>
<path d="M144.45 45.735H147.127V37.7289C147.127 35.8239 148.559 34.5414 150.588 34.5414C151.061 34.5414 151.858 34.6286 152.082 34.7033V32.0636C151.796 31.9889 151.286 31.9516 150.887 31.9516C149.119 31.9516 147.612 32.9227 147.226 34.255H147.027V32.1757H144.45V45.735Z" fill="#212121"/>
<path d="M158.729 34.1928C160.709 34.1928 162.004 35.5748 162.066 37.704H155.218C155.368 35.5873 156.75 34.1928 158.729 34.1928ZM162.054 42.0744C161.556 43.1327 160.448 43.7179 158.829 43.7179C156.687 43.7179 155.305 42.2113 155.218 39.8331V39.6837H164.793V38.7499C164.793 34.4916 162.514 31.9142 158.742 31.9142C154.919 31.9142 152.491 34.6659 152.491 38.9989C152.491 43.3319 154.869 45.9965 158.754 45.9965C161.855 45.9965 164.021 44.5023 164.631 42.0744H162.054Z" fill="#212121"/>
<path d="M105.233 40.7278C105.44 44.0573 108.215 46.1867 112.344 46.1867C116.758 46.1867 119.52 43.9541 119.52 40.3922C119.52 37.5918 117.945 36.0431 114.125 35.1527L112.073 34.6494C109.647 34.0815 108.666 33.3201 108.666 31.9909C108.666 30.3132 110.189 29.2163 112.473 29.2163C114.641 29.2163 116.138 30.2874 116.409 32.0038H119.223C119.055 28.8678 116.293 26.661 112.512 26.661C108.447 26.661 105.737 28.8678 105.737 32.1845C105.737 34.9204 107.272 36.5464 110.641 37.3337L113.041 37.9144C115.506 38.4951 116.59 39.3469 116.59 40.7665C116.59 42.4183 114.887 43.6185 112.564 43.6185C110.073 43.6185 108.344 42.4958 108.098 40.7278H105.233Z" fill="#212121"/>
<path d="M77.5024 31.9516C75.6596 31.9516 74.0659 32.8729 73.2441 34.4169H73.0449V32.1757H70.4675V50.2423H73.1445V43.6806H73.3562C74.0659 45.1124 75.5974 45.9591 77.5273 45.9591C80.9514 45.9591 83.1303 43.2572 83.1303 38.9491C83.1303 34.641 80.9514 31.9516 77.5024 31.9516ZM76.7429 43.556C74.5017 43.556 73.0947 41.788 73.0947 38.9616C73.0947 36.1227 74.5017 34.3546 76.7553 34.3546C79.0214 34.3546 80.3786 36.0853 80.3786 38.9491C80.3786 41.8253 79.0214 43.556 76.7429 43.556Z" fill="#212121"/>
<path d="M92.4976 31.9516C90.6548 31.9516 89.0611 32.8729 88.2393 34.4169H88.0401V32.1757H85.4627V50.2423H88.1397V43.6806H88.3514C89.0611 45.1124 90.5926 45.9591 92.5225 45.9591C95.9466 45.9591 98.1255 43.2572 98.1255 38.9491C98.1255 34.641 95.9466 31.9516 92.4976 31.9516ZM91.7381 43.556C89.4969 43.556 88.0899 41.788 88.0899 38.9616C88.0899 36.1227 89.4969 34.3546 91.7505 34.3546C94.0166 34.3546 95.3738 36.0853 95.3738 38.9491C95.3738 41.8253 94.0166 43.556 91.7381 43.556Z" fill="#212121"/>
<path d="M65.6645 45.735H68.7359L62.0123 27.1127H58.9021L52.1785 45.735H55.1467L56.8631 40.7923H63.961L65.6645 45.735ZM60.3088 30.4939H60.5282L63.2254 38.3661H57.5987L60.3088 30.4939Z" fill="#212121"/>
<path d="M53.9768 13.0664V22.0499H57.2203C59.8973 22.0499 61.4475 20.4001 61.4475 17.5302C61.4475 14.7037 59.8849 13.0664 57.2203 13.0664H53.9768ZM55.3713 14.3364H57.0647C58.9261 14.3364 60.0281 15.5193 60.0281 17.5488C60.0281 19.6095 58.9448 20.7799 57.0647 20.7799H55.3713V14.3364Z" fill="#616161"/>
<path d="M66.1951 22.1807C68.1749 22.1807 69.3889 20.8546 69.3889 18.657C69.3889 16.4718 68.1687 15.1395 66.1951 15.1395C64.2154 15.1395 62.9952 16.4718 62.9952 18.657C62.9952 20.8546 64.2092 22.1807 66.1951 22.1807ZM66.1951 20.9916C65.031 20.9916 64.3773 20.1387 64.3773 18.657C64.3773 17.1877 65.031 16.3286 66.1951 16.3286C67.3531 16.3286 68.013 17.1877 68.013 18.657C68.013 20.1324 67.3531 20.9916 66.1951 20.9916Z" fill="#616161"/>
<path d="M79.7271 15.2703H78.3886L77.1808 20.4437H77.075L75.6804 15.2703H74.398L73.0034 20.4437H72.9038L71.6898 15.2703H70.3327L72.2003 22.0499H73.5762L74.9707 17.057H75.0766L76.4773 22.0499H77.8656L79.7271 15.2703Z" fill="#616161"/>
<path d="M81.2685 22.0499H82.607V18.0842C82.607 17.0259 83.2358 16.366 84.2257 16.366C85.2155 16.366 85.6887 16.9076 85.6887 17.9971V22.0499H87.0272V17.6609C87.0272 16.0485 86.193 15.1395 84.6801 15.1395C83.6592 15.1395 82.9868 15.594 82.6568 16.3473H82.5572V15.2703H81.2685V22.0499Z" fill="#616161"/>
<path d="M89.1352 22.0499H90.4737V12.6244H89.1352V22.0499Z" fill="#616161"/>
<path d="M95.5077 22.1807C97.4874 22.1807 98.7014 20.8546 98.7014 18.657C98.7014 16.4718 97.4812 15.1395 95.5077 15.1395C93.528 15.1395 92.3077 16.4718 92.3077 18.657C92.3077 20.8546 93.5217 22.1807 95.5077 22.1807ZM95.5077 20.9916C94.3435 20.9916 93.6898 20.1387 93.6898 18.657C93.6898 17.1877 94.3435 16.3286 95.5077 16.3286C96.6656 16.3286 97.3256 17.1877 97.3256 18.657C97.3256 20.1324 96.6656 20.9916 95.5077 20.9916Z" fill="#616161"/>
<path d="M102.69 21.0352C101.961 21.0352 101.432 20.6803 101.432 20.0702C101.432 19.4725 101.855 19.155 102.789 19.0928L104.445 18.9869V19.5535C104.445 20.3939 103.698 21.0352 102.69 21.0352ZM102.347 22.162C103.237 22.162 103.978 21.776 104.383 21.0974H104.489V22.0499H105.777V17.4181C105.777 15.9862 104.819 15.1395 103.119 15.1395C101.581 15.1395 100.486 15.8866 100.349 17.0508H101.644C101.793 16.5714 102.31 16.2975 103.057 16.2975C103.972 16.2975 104.445 16.7021 104.445 17.4181V18.0033L102.609 18.1091C100.996 18.2087 100.087 18.9122 100.087 20.1324C100.087 21.3713 101.04 22.162 102.347 22.162Z" fill="#616161"/>
<path d="M110.32 22.162C111.253 22.162 112.044 21.72 112.449 20.9791H112.555V22.0499H113.837V12.6244H112.499V16.3473H112.399C112.032 15.6002 111.247 15.1582 110.32 15.1582C108.608 15.1582 107.506 16.5154 107.506 18.657C107.506 20.8048 108.595 22.162 110.32 22.162ZM110.699 16.3597C111.82 16.3597 112.523 17.25 112.523 18.6632C112.523 20.0826 111.826 20.9604 110.699 20.9604C109.566 20.9604 108.888 20.0951 108.888 18.657C108.888 17.2313 109.573 16.3597 110.699 16.3597Z" fill="#616161"/>
<path d="M122.517 22.1807C124.497 22.1807 125.71 20.8546 125.71 18.657C125.71 16.4718 124.49 15.1395 122.517 15.1395C120.537 15.1395 119.317 16.4718 119.317 18.657C119.317 20.8546 120.531 22.1807 122.517 22.1807ZM122.517 20.9916C121.353 20.9916 120.699 20.1387 120.699 18.657C120.699 17.1877 121.353 16.3286 122.517 16.3286C123.675 16.3286 124.335 17.1877 124.335 18.657C124.335 20.1324 123.675 20.9916 122.517 20.9916Z" fill="#616161"/>
<path d="M127.482 22.0499H128.821V18.0842C128.821 17.0259 129.45 16.366 130.439 16.366C131.429 16.366 131.902 16.9076 131.902 17.9971V22.0499H133.241V17.6609C133.241 16.0485 132.407 15.1395 130.894 15.1395C129.873 15.1395 129.201 15.594 128.871 16.3473H128.771V15.2703H127.482V22.0499Z" fill="#616161"/>
<path d="M139.406 13.5831V15.3014H138.329V16.4282H139.406V20.257C139.406 21.5643 139.997 22.0873 141.485 22.0873C141.746 22.0873 141.995 22.0562 142.213 22.0188V20.9044C142.027 20.9231 141.908 20.9355 141.703 20.9355C141.037 20.9355 140.744 20.6243 140.744 19.9146V16.4282H142.213V15.3014H140.744V13.5831H139.406Z" fill="#616161"/>
<path d="M144.01 22.0499H145.348V18.0905C145.348 17.0632 145.959 16.3722 147.054 16.3722C148.001 16.3722 148.505 16.92 148.505 18.0033V22.0499H149.843V17.6733C149.843 16.0609 148.953 15.1458 147.509 15.1458C146.488 15.1458 145.772 15.6002 145.442 16.3597H145.336V12.6244H144.01V22.0499Z" fill="#616161"/>
<path d="M154.672 16.2788C155.662 16.2788 156.309 16.9698 156.34 18.0344H152.916C152.991 16.9761 153.682 16.2788 154.672 16.2788ZM156.334 20.2196C156.085 20.7488 155.531 21.0414 154.722 21.0414C153.651 21.0414 152.96 20.2881 152.916 19.099V19.0243H157.704V18.5574C157.704 16.4282 156.564 15.1395 154.678 15.1395C152.767 15.1395 151.553 16.5154 151.553 18.6819C151.553 20.8484 152.742 22.1807 154.684 22.1807C156.235 22.1807 157.318 21.4336 157.623 20.2196H156.334Z" fill="#616161"/>
<path d="M37.6535 30.4512C37.686 27.9297 39.0401 25.5438 41.1883 24.2231C39.8331 22.2877 37.5632 21.0605 35.2016 20.9866C32.6827 20.7222 30.2408 22.4939 28.9572 22.4939C27.6488 22.4939 25.6726 21.0129 23.5445 21.0567C20.7706 21.1463 18.1847 22.7233 16.8351 25.1485C13.9341 30.1711 16.098 37.5527 18.8769 41.6126C20.2673 43.6006 21.8922 45.8213 24.0184 45.7425C26.0989 45.6562 26.876 44.4158 29.3875 44.4158C31.8756 44.4158 32.6046 45.7425 34.774 45.6925C37.0065 45.6562 38.4131 43.6956 39.7547 41.6887C40.7537 40.2722 41.5224 38.7066 42.0323 37.05C39.4087 35.9403 37.6566 33.2999 37.6535 30.4512Z" fill="#F17228"/>
<path d="M33.556 18.3166C34.7733 16.8553 35.373 14.977 35.2278 13.0807C33.368 13.276 31.6501 14.1649 30.4164 15.5701C29.21 16.9431 28.5821 18.7883 28.7008 20.6122C30.5613 20.6313 32.3902 19.7666 33.556 18.3166Z" fill="#F17228"/>
</svg>
