<svg width="22" height="22" viewBox="0 0 22 22" fill="none" xmlns="http://www.w3.org/2000/svg">
<path d="M0.544607 4.47549C0.248039 4.47549 0.00539207 4.23284 0 3.93627V0.544608C0 0.242647 0.242647 0 0.544607 0H3.93627C4.23284 0 4.47549 0.242647 4.47549 0.544608V1.72549H17.5245V0.544608C17.5245 0.248039 17.7672 0.00539216 18.0637 0H21.4554C21.752 0 21.9946 0.242647 22 0.544608V3.93627C22 4.23284 21.7574 4.47549 21.4554 4.47549H20.2745V17.5245H21.4554C21.752 17.5245 21.9946 17.7672 22 18.0637V21.4554C22 21.752 21.7574 21.9946 21.4554 22H18.0637C17.7672 22 17.5245 21.7574 17.5245 21.4554V20.2745H4.47549V21.4554C4.47549 21.752 4.23284 21.9946 3.93627 22H0.544607C0.248039 22 0.00539207 21.7574 0 21.4554V18.0637C0 17.7672 0.242647 17.5245 0.544607 17.5245H1.72549V4.47549H0.544607ZM20.9216 3.39706V1.07843H18.6029V3.39706H20.9216ZM18.6029 20.9216H20.9216V18.6029H18.6029V20.9216ZM4.47549 18.0637V19.1961H17.5245V18.0637C17.5245 17.7672 17.7672 17.5245 18.0637 17.5245H19.1961V4.47549H18.0637C17.7672 4.47549 17.5245 4.23284 17.5245 3.93627V2.80392H4.47549V3.93627C4.47549 4.23284 4.23284 4.47549 3.93627 4.47549H2.80392V17.5245H3.93627C4.23284 17.5245 4.47549 17.7672 4.47549 18.0637ZM1.07843 18.6029V20.9216H3.39706V18.6029H1.07843ZM3.39706 3.39706V1.07843H1.07843V3.39706H3.39706Z" fill="white"/>
</svg>
