<?xml version="1.0" encoding="utf-8"?>
<!-- Generator: Adobe Illustrator 17.0.0, SVG Export Plug-In . SVG Version: 6.00 Build 0)  -->
<!DOCTYPE svg PUBLIC "-//W3C//DTD SVG 1.1//EN" "http://www.w3.org/Graphics/SVG/1.1/DTD/svg11.dtd">
<svg version="1.1" id="Layer_1" xmlns="http://www.w3.org/2000/svg" xmlns:xlink="http://www.w3.org/1999/xlink" x="0px" y="0px"
	 width="60px" height="30px" viewBox="0 0 60 30" enable-background="new 0 0 60 30" xml:space="preserve">
<path fill="#FFFFFF" d="M43.407,1.625c-5.237,0-8.85,3.244-11.824,6.284l-0.618,0.631l3.924,4.928l0.789-0.904
	c2.467-2.831,4.726-4.715,7.73-4.715c3.917,0,6.35,2.854,6.35,7.448c0,4.595-2.433,7.448-6.35,7.448
	c-4.202,0-7.664-4.479-11.329-9.219c-4.312-5.578-9.2-11.901-16.429-11.901c-7.338,0-12.464,5.622-12.464,13.672
	s5.125,13.672,12.464,13.672c5.236,0,8.847-3.241,11.822-6.28l0.618-0.632l-3.926-4.924l-0.788,0.903
	c-2.466,2.826-4.724,4.709-7.726,4.709c-3.916,0-6.348-2.854-6.348-7.448c0-4.594,2.432-7.448,6.348-7.448
	c4.214,0,7.684,4.486,11.357,9.235c4.31,5.57,9.193,11.885,16.398,11.885c7.341,0,12.468-5.622,12.468-13.672
	S50.748,1.625,43.407,1.625z"/>
</svg>
