<svg width="203" height="60" viewBox="0 0 203 60" fill="none" xmlns="http://www.w3.org/2000/svg">
<path d="M0 5C0 2.23858 2.23858 0 5 0H197.5C200.261 0 202.5 2.23858 202.5 5V55C202.5 57.7614 200.261 60 197.5 60H5C2.23857 60 0 57.7614 0 55V5Z" fill="white"/>
<path d="M102.204 32.6267C98.676 32.6267 95.8005 35.3102 95.8005 39.0062C95.8005 42.6797 98.676 45.3857 102.204 45.3857C105.733 45.3857 108.609 42.6797 108.609 39.0062C108.607 35.3102 105.732 32.6267 102.204 32.6267ZM102.204 42.8747C100.27 42.8747 98.604 41.2802 98.604 39.0077C98.604 36.7112 100.272 35.1407 102.204 35.1407C104.137 35.1407 105.804 36.7112 105.804 39.0077C105.804 41.2787 104.137 42.8747 102.204 42.8747ZM88.233 32.6267C84.705 32.6267 81.8295 35.3102 81.8295 39.0062C81.8295 42.6797 84.705 45.3857 88.233 45.3857C91.7625 45.3857 94.638 42.6797 94.638 39.0062C94.638 35.3102 91.7625 32.6267 88.233 32.6267ZM88.233 42.8747C86.2995 42.8747 84.633 41.2802 84.633 39.0077C84.633 36.7112 86.301 35.1407 88.233 35.1407C90.1665 35.1407 91.833 36.7112 91.833 39.0077C91.8345 41.2787 90.1665 42.8747 88.233 42.8747ZM71.616 34.5857V37.2917H78.093C77.8995 38.8142 77.3925 39.9257 76.6185 40.6982C75.6765 41.6402 74.202 42.6797 71.616 42.6797C67.629 42.6797 64.512 39.4652 64.512 35.4782C64.512 31.4912 67.629 28.2767 71.616 28.2767C73.767 28.2767 75.3375 29.1227 76.497 30.2102L78.4065 28.3007C76.7865 26.7542 74.637 25.5707 71.616 25.5707C66.1545 25.5707 61.563 30.0167 61.563 35.4782C61.563 40.9397 66.1545 45.3857 71.616 45.3857C74.5635 45.3857 76.788 44.4182 78.5265 42.6062C80.3145 40.8182 80.871 38.3042 80.871 36.2747C80.871 35.6477 80.823 35.0672 80.7255 34.5842H71.616V34.5857ZM139.578 36.6872C139.047 35.2622 137.427 32.6267 134.116 32.6267C130.83 32.6267 128.098 35.2127 128.098 39.0062C128.098 42.5822 130.806 45.3857 134.43 45.3857C137.353 45.3857 139.045 43.5977 139.747 42.5582L137.572 41.1077C136.848 42.1712 135.856 42.8717 134.43 42.8717C133.005 42.8717 131.989 42.2192 131.337 40.9382L139.867 37.4102L139.578 36.6872ZM130.878 38.8142C130.806 36.3482 132.787 35.0927 134.214 35.0927C135.325 35.0927 136.267 35.6492 136.582 36.4457L130.878 38.8142ZM123.943 45.0002H126.745V26.2487H123.943V45.0002ZM119.35 34.0532H119.254C118.626 33.3032 117.417 32.6267 115.896 32.6267C112.705 32.6267 109.782 35.4302 109.782 39.0317C109.782 42.6077 112.705 45.3872 115.896 45.3872C117.418 45.3872 118.626 44.7107 119.254 43.9382H119.35V44.8562C119.35 47.2967 118.045 48.6017 115.944 48.6017C114.228 48.6017 113.164 47.3702 112.729 46.3307L110.289 47.3462C110.989 49.0367 112.849 51.1157 115.944 51.1157C119.23 51.1157 122.01 49.1822 122.01 44.4692V33.0152H119.352V34.0532H119.35ZM116.137 42.8747C114.204 42.8747 112.585 41.2547 112.585 39.0317C112.585 36.7832 114.204 35.1407 116.137 35.1407C118.045 35.1407 119.544 36.7832 119.544 39.0317C119.544 41.2547 118.045 42.8747 116.137 42.8747ZM152.709 26.2487H146.002V45.0002H148.8V37.8962H152.707C155.809 37.8962 158.86 35.6507 158.86 32.0732C158.86 28.4957 155.811 26.2487 152.709 26.2487ZM152.781 35.2862H148.8V28.8587H152.781C154.873 28.8587 156.061 30.5912 156.061 32.0732C156.061 33.5252 154.873 35.2862 152.781 35.2862ZM170.079 32.5937C168.052 32.5937 165.954 33.4862 165.085 35.4647L167.569 36.5012C168.1 35.4647 169.09 35.1257 170.127 35.1257C171.574 35.1257 173.046 35.9942 173.07 37.5377V37.7312C172.563 37.4417 171.477 37.0082 170.151 37.0082C167.473 37.0082 164.746 38.4797 164.746 41.2292C164.746 43.7387 166.942 45.3542 169.402 45.3542C171.283 45.3542 172.321 44.5097 172.972 43.5197H173.068V44.9672H175.771V37.7777C175.773 34.4507 173.286 32.5937 170.079 32.5937ZM169.74 42.8702C168.825 42.8702 167.545 42.4112 167.545 41.2772C167.545 39.8297 169.138 39.2747 170.514 39.2747C171.742 39.2747 172.323 39.5402 173.07 39.9017C172.852 41.6402 171.357 42.8702 169.74 42.8702ZM185.614 33.0032L182.406 41.1332H182.31L178.98 33.0032H175.965L180.958 44.3657L178.111 50.6867H181.03L188.727 33.0032H185.614ZM160.405 45.0002H163.203V26.2487H160.405V45.0002Z" fill="#212121"/>
<path d="M71.1271 15.3644C71.1271 16.6214 70.7551 17.6219 70.0096 18.3689C69.1636 19.2569 68.0596 19.7009 66.7036 19.7009C65.4046 19.7009 64.2991 19.2509 63.3916 18.3509C62.4826 17.4494 62.0281 16.3334 62.0281 15.0014C62.0281 13.6679 62.4826 12.5519 63.3916 11.6519C64.2991 10.7504 65.4046 10.3004 66.7036 10.3004C67.3486 10.3004 67.9651 10.4264 68.5501 10.6769C69.1366 10.9289 69.6061 11.2634 69.9571 11.6819L69.1666 12.4739C68.5711 11.7614 67.7506 11.4059 66.7021 11.4059C65.7541 11.4059 64.9351 11.7389 64.2436 12.4049C63.5521 13.0709 63.2071 13.9364 63.2071 14.9999C63.2071 16.0634 63.5521 16.9289 64.2436 17.5949C64.9351 18.2609 65.7541 18.5939 66.7021 18.5939C67.7071 18.5939 68.5456 18.2594 69.2161 17.5889C69.6511 17.1524 69.9031 16.5449 69.9706 15.7664H66.7021V14.6849H71.0626C71.1076 14.9204 71.1271 15.1469 71.1271 15.3644Z" fill="#616161"/>
<path d="M78.0422 11.6055H73.9442V14.4585H77.6402V15.54H73.9442V18.393H78.0422V19.5H72.7877V10.5H78.0422V11.6055Z" fill="#616161"/>
<path d="M82.9185 19.5H81.7621V11.6055H79.248V10.5H85.4326V11.6055H82.9185V19.5Z" fill="#616161"/>
<path d="M89.907 19.5V10.5H91.0635V19.5H89.907Z" fill="#616161"/>
<path d="M96.1922 19.5H95.0357V11.6055H92.5217V10.5H98.7062V11.6055H96.1922V19.5Z" fill="#616161"/>
<path d="M110.413 18.3375C109.528 19.2465 108.429 19.701 107.113 19.701C105.798 19.701 104.698 19.2465 103.815 18.3375C102.93 17.4285 102.489 16.3155 102.489 15C102.489 13.6845 102.93 12.5715 103.815 11.6625C104.698 10.7535 105.798 10.2975 107.113 10.2975C108.421 10.2975 109.519 10.755 110.407 11.6685C111.295 12.582 111.739 13.692 111.739 15C111.739 16.3155 111.297 17.4285 110.413 18.3375ZM104.668 17.583C105.334 18.258 106.149 18.594 107.113 18.594C108.078 18.594 108.894 18.2565 109.558 17.583C110.224 16.908 110.559 16.047 110.559 15C110.559 13.953 110.224 13.092 109.558 12.417C108.894 11.742 108.078 11.406 107.113 11.406C106.149 11.406 105.334 11.7435 104.668 12.417C104.004 13.092 103.669 13.953 103.669 15C103.669 16.047 104.004 16.908 104.668 17.583Z" fill="#616161"/>
<path d="M113.362 19.5V10.5H114.769L119.143 17.5005H119.193L119.143 15.7665V10.5H120.3V19.5H119.092L114.516 12.159H114.466L114.516 13.893V19.5H113.362Z" fill="#616161"/>
<path d="M71.1271 15.3644C71.1271 16.6214 70.7551 17.6219 70.0096 18.3689C69.1636 19.2569 68.0596 19.7009 66.7036 19.7009C65.4046 19.7009 64.2991 19.2509 63.3916 18.3509C62.4826 17.4494 62.0281 16.3334 62.0281 15.0014C62.0281 13.6679 62.4826 12.5519 63.3916 11.6519C64.2991 10.7504 65.4046 10.3004 66.7036 10.3004C67.3486 10.3004 67.9651 10.4264 68.5501 10.6769C69.1366 10.9289 69.6061 11.2634 69.9571 11.6819L69.1666 12.4739C68.5711 11.7614 67.7506 11.4059 66.7021 11.4059C65.7541 11.4059 64.9351 11.7389 64.2436 12.4049C63.5521 13.0709 63.2071 13.9364 63.2071 14.9999C63.2071 16.0634 63.5521 16.9289 64.2436 17.5949C64.9351 18.2609 65.7541 18.5939 66.7021 18.5939C67.7071 18.5939 68.5456 18.2594 69.2161 17.5889C69.6511 17.1524 69.9031 16.5449 69.9706 15.7664H66.7021V14.6849H71.0626C71.1076 14.9204 71.1271 15.1469 71.1271 15.3644Z" stroke="#212121" stroke-width="0.2" stroke-miterlimit="10"/>
<path d="M78.0422 11.6055H73.9442V14.4585H77.6402V15.54H73.9442V18.393H78.0422V19.5H72.7877V10.5H78.0422V11.6055Z" stroke="#212121" stroke-width="0.2" stroke-miterlimit="10"/>
<path d="M82.9185 19.5H81.7621V11.6055H79.248V10.5H85.4326V11.6055H82.9185V19.5Z" stroke="#212121" stroke-width="0.2" stroke-miterlimit="10"/>
<path d="M89.907 19.5V10.5H91.0635V19.5H89.907Z" stroke="#212121" stroke-width="0.2" stroke-miterlimit="10"/>
<path d="M96.1922 19.5H95.0357V11.6055H92.5217V10.5H98.7062V11.6055H96.1922V19.5Z" stroke="#212121" stroke-width="0.2" stroke-miterlimit="10"/>
<path d="M110.413 18.3375C109.528 19.2465 108.429 19.701 107.113 19.701C105.798 19.701 104.698 19.2465 103.815 18.3375C102.93 17.4285 102.489 16.3155 102.489 15C102.489 13.6845 102.93 12.5715 103.815 11.6625C104.698 10.7535 105.798 10.2975 107.113 10.2975C108.421 10.2975 109.519 10.755 110.407 11.6685C111.295 12.582 111.739 13.692 111.739 15C111.739 16.3155 111.297 17.4285 110.413 18.3375ZM104.668 17.583C105.334 18.258 106.149 18.594 107.113 18.594C108.078 18.594 108.894 18.2565 109.558 17.583C110.224 16.908 110.559 16.047 110.559 15C110.559 13.953 110.224 13.092 109.558 12.417C108.894 11.742 108.078 11.406 107.113 11.406C106.149 11.406 105.334 11.7435 104.668 12.417C104.004 13.092 103.669 13.953 103.669 15C103.669 16.047 104.004 16.908 104.668 17.583Z" stroke="#212121" stroke-width="0.2" stroke-miterlimit="10"/>
<path d="M113.362 19.5V10.5H114.769L119.143 17.5005H119.193L119.143 15.7665V10.5H120.3V19.5H119.092L114.516 12.159H114.466L114.516 13.893V19.5H113.362Z" stroke="#212121" stroke-width="0.2" stroke-miterlimit="10"/>
<path fill-rule="evenodd" clip-rule="evenodd" d="M15.3531 11.7148C15.1015 12.1531 14.9595 12.7256 14.9595 13.4145V46.5885C14.9595 47.279 15.1017 47.8512 15.3536 48.2893L33.6393 30.001L15.3531 11.7148ZM16.044 49.0131C16.7367 49.435 17.7042 49.394 18.771 48.789L40.2321 36.5938L34.3464 30.7081L16.044 49.0131ZM41.1348 36.0823L48.0225 32.169C50.118 30.9765 50.118 29.028 48.0225 27.837L41.1319 23.9216L35.0534 30.0009L41.1348 36.0823ZM40.2301 23.4092L18.771 11.2155C17.7042 10.6093 16.7366 10.5692 16.0439 10.9914L34.3463 29.2938L40.2301 23.4092Z" fill="#F17228"/>
</svg>
