<svg id="services2" xmlns="http://www.w3.org/2000/svg" xmlns:xlink="http://www.w3.org/1999/xlink" width="54.295" height="54.295" viewBox="0 0 54.295 54.295">
  <defs>
    <linearGradient id="linear-gradient" x1="0.5" x2="0.5" y2="1" gradientUnits="objectBoundingBox">
      <stop offset="0" stop-color="#9f78ff"/>
      <stop offset="1" stop-color="#f067ff"/>
    </linearGradient>
  </defs>
  <path id="Path_81" data-name="Path 81" d="M48.3,42.291A6,6,0,0,0,42.522,46.7H32.935a6.02,6.02,0,0,0-4.19-4.2v-6.06H44.517a9.614,9.614,0,0,0,.726-19.2A8.54,8.54,0,0,0,34.222,9.9a10.187,10.187,0,0,0-20.37.3v.713h-.907a12.766,12.766,0,0,0,0,25.533H25.568v6.06a6.019,6.019,0,0,0-4.19,4.2h-9.6a6,6,0,1,0,0,3.181h9.6a5.991,5.991,0,0,0,11.557,0h9.587A5.995,5.995,0,1,0,48.3,42.291ZM3.372,23.681A9.59,9.59,0,0,1,12.945,14.1h4.084V10.2a7.01,7.01,0,1,1,14.02,0v5.4l2.53-1.865a5.306,5.306,0,0,1,3.17-1.041A5.365,5.365,0,0,1,42.1,18.061a5.494,5.494,0,0,1-.032.581l-.188,1.76h2.633a6.432,6.432,0,0,1,0,12.864H12.945a9.589,9.589,0,0,1-9.572-9.585ZM5.994,51.114a2.821,2.821,0,1,1,2.817-2.821A2.822,2.822,0,0,1,5.994,51.114Zm21.162,0a2.821,2.821,0,1,1,2.817-2.821A2.822,2.822,0,0,1,27.156,51.114Zm21.145,0a2.821,2.821,0,1,1,2.817-2.821A2.822,2.822,0,0,1,48.3,51.114Z" transform="translate(0 0)" fill="url(#linear-gradient)"/>
</svg>
