<svg 
 xmlns="http://www.w3.org/2000/svg"
 xmlns:xlink="http://www.w3.org/1999/xlink"
 width="39px" height="58px">
<path fill-rule="evenodd"  fill="rgb(255, 255, 255)"
 d="M34.806,57.061 C33.675,57.666 32.405,57.986 31.133,57.986 C28.212,57.986 25.549,56.369 24.182,53.767 C24.181,53.765 20.974,47.656 19.501,44.851 C19.501,44.851 14.819,53.775 14.818,53.777 C13.452,56.380 10.789,58.008 7.868,58.008 L7.867,58.008 C6.595,58.008 5.325,57.677 4.194,57.073 C0.365,55.026 -1.100,50.206 0.928,46.344 C2.295,43.742 4.958,42.124 7.879,42.124 C9.151,42.124 10.421,42.444 11.552,43.048 L15.080,36.328 L5.477,15.781 C2.997,11.041 2.980,5.374 5.434,0.619 C5.617,0.262 5.974,0.031 6.371,0.010 C6.768,-0.011 7.147,0.181 7.366,0.516 L19.668,19.253 L31.626,0.527 C31.843,0.188 32.223,-0.010 32.622,0.010 C33.022,0.029 33.382,0.260 33.567,0.619 C36.020,5.374 36.003,11.041 33.523,15.781 L23.861,36.213 L27.449,43.048 C28.579,42.444 29.849,42.124 31.121,42.124 C34.042,42.124 36.705,43.742 38.072,46.344 C40.100,50.206 38.635,55.015 34.806,57.061 ZM10.500,45.050 C9.692,44.617 8.786,44.389 7.879,44.389 C5.792,44.389 3.889,45.544 2.914,47.403 C1.464,50.163 2.511,53.598 5.246,55.061 C6.054,55.492 6.961,55.721 7.867,55.721 C9.954,55.721 11.857,54.566 12.832,52.707 C14.282,49.947 13.236,46.512 10.500,45.050 ZM13.383,44.399 C14.356,45.359 15.042,46.530 15.413,47.791 L19.770,39.493 L16.794,37.902 L13.383,44.399 ZM6.635,3.506 C5.360,7.177 5.641,11.253 7.473,14.743 C7.481,14.757 7.488,14.772 7.494,14.785 L13.888,28.304 L18.340,21.333 L6.635,3.506 ZM31.506,14.785 C31.512,14.771 31.519,14.757 31.527,14.743 C33.354,11.263 33.638,7.200 32.375,3.538 L15.047,30.672 L16.921,34.929 L18.022,32.286 C18.197,31.864 18.604,31.592 19.057,31.592 C19.207,31.592 19.353,31.621 19.491,31.680 C20.062,31.921 20.332,32.586 20.093,33.163 L18.752,36.385 L20.778,37.469 L31.506,14.785 ZM22.656,38.760 L20.772,42.429 L23.586,47.791 C23.959,46.530 24.645,45.359 25.617,44.399 L22.656,38.760 ZM36.086,47.403 C35.110,45.544 33.208,44.389 31.121,44.389 C30.214,44.389 29.308,44.617 28.500,45.050 C25.765,46.512 24.718,49.947 26.167,52.707 C27.143,54.566 29.046,55.721 31.133,55.721 C32.040,55.721 32.946,55.492 33.754,55.061 C36.489,53.598 37.535,50.163 36.086,47.403 ZM19.755,28.976 C19.642,28.696 19.643,28.388 19.758,28.109 C19.935,27.688 20.341,27.414 20.795,27.414 C20.945,27.414 21.090,27.445 21.229,27.503 C21.506,27.621 21.721,27.839 21.834,28.118 C21.947,28.398 21.946,28.706 21.831,28.985 C21.654,29.407 21.248,29.680 20.794,29.680 C20.645,29.680 20.499,29.650 20.360,29.592 C20.083,29.474 19.869,29.255 19.755,28.976 Z"/>
</svg>