<svg 
 xmlns="http://www.w3.org/2000/svg"
 xmlns:xlink="http://www.w3.org/1999/xlink"
 width="29px" height="6px">
<path fill-rule="evenodd"  fill="rgb(44, 48, 51)"
 d="M28.388,-0.003 L0.606,-0.003 C0.268,-0.003 -0.006,0.241 -0.006,0.543 C-0.006,0.846 0.268,1.090 0.606,1.090 L26.293,1.090 L20.387,4.457 L20.387,1.964 C20.387,1.662 20.113,1.418 19.774,1.418 C19.436,1.418 19.162,1.662 19.162,1.964 L19.162,5.454 C19.162,5.654 19.284,5.838 19.480,5.933 C19.572,5.978 19.673,6.001 19.774,6.001 C19.889,6.001 20.004,5.972 20.104,5.915 L28.718,1.004 C28.947,0.873 29.052,0.623 28.976,0.390 C28.899,0.157 28.660,-0.003 28.388,-0.003 Z"/>
</svg>