<svg viewBox="-82 0 511 511.99998" xmlns="http://www.w3.org/2000/svg"><path d="m189.394531 242.710938c-1.234375-.507813-2.53125-.777344-3.863281-.777344-4.039062 0-7.660156 2.410156-9.230469 6.136718-1.03125 2.457032-1.039062 5.175782-.03125 7.648438 1.011719 2.46875 2.921875 4.398438 5.390625 5.4375 1.230469.507812 2.539063.777344 3.863282.777344 4.039062 0 7.660156-2.410156 9.230468-6.136719 1.027344-2.460937 1.039063-5.179687.027344-7.648437-1.007812-2.46875-2.917969-4.394532-5.386719-5.4375zm0 0"/><path d="m339.371094 409.035156c-12.167969-22.972656-35.882813-37.246094-61.890625-37.246094-11.328125 0-22.636719 2.820313-32.703125 8.152344l-31.949219-60.335937 86.039063-180.367188c22.082031-41.847656 22.230468-91.871093.386718-133.851562-1.644531-3.164063-4.847656-5.210938-8.410156-5.3750002-3.554688-.1718748-6.941406 1.5781252-8.871094 4.5742192l-106.476562 165.296874-109.539063-165.402343c-1.957031-2.953125-5.324219-4.652344-8.863281-4.464844-3.539062.183594-6.714844 2.226563-8.347656 5.371094-21.84375 41.980469-21.695313 92.003906.386718 133.851562l85.507813 181.378907-31.417969 59.324218c-10.066406-5.332031-21.375-8.152344-32.703125-8.152344-26.007812 0-49.722656 14.273438-61.890625 37.246094-18.058594 34.101563-5.015625 76.644532 29.078125 94.710938 10.070313 5.335937 21.382813 8.253906 32.710938 8.253906h.003906c26.007813 0 49.722656-14.367188 61.886719-37.34375.011718-.019531 41.703125-78.804688 41.703125-78.804688 13.113281 24.765626 41.671875 78.695313 41.679687 78.710938 12.167969 22.972656 35.882813 37.242188 61.890625 37.242188 11.332031 0 22.640625-2.820313 32.710938-8.15625 34.09375-18.066407 47.136719-60.511719 29.078125-94.613282zm-272.273438-278.585937c-.058594-.125-.121094-.25-.1875-.375-16.316406-30.8125-18.816406-66.789063-7.460937-99.199219l104.222656 157.367188-39.644531 61.542968zm67.253906 140.238281 154.292969-239.53125c11.246094 32.332031 8.714844 68.195312-7.554687 98.917969-.066406.121093-.128906.246093-.1875.375l-95.519532 200.238281-18.039062-9.5625 11.9375-28.453125c2.128906-5.089844-.273438-10.957031-5.363281-13.085937-1.230469-.519532-2.527344-.777344-3.859375-.777344-4.039063 0-7.660156 2.40625-9.222656 6.125l-9.796876 23.335937zm-19.722656 194.519531c-8.6875 16.410157-25.628906 26.605469-44.210937 26.605469-8.074219 0-16.148438-2.015625-23.339844-5.828125-24.355469-12.90625-33.675781-43.230469-20.769531-67.597656 8.6875-16.410157 25.628906-26.605469 44.210937-26.605469 8.078125 0 16.148438 2.015625 23.339844 5.828125 24.359375 12.90625 33.675781 43.230469 20.769531 67.597656zm4.90625-73.335937 30.371094-57.355469 26.496094 14.042969-38.792969 73.25c-3.308594-11.125-9.414063-21.464844-18.074219-29.9375zm90.851563 29.941406-25.0625-47.332031 16.777343-32.390625 26.363282 49.78125c-8.65625 8.472656-14.765625 18.8125-18.078125 29.941406zm90.535156 64.171875c-7.191406 3.8125-15.265625 5.828125-23.339844 5.828125-18.582031 0-35.523437-10.195312-44.214843-26.605469-12.902344-24.367187-3.585938-54.691406 20.769531-67.597656 7.195312-3.8125 15.265625-5.828125 23.339843-5.828125 18.582032 0 35.523438 10.195312 44.214844 26.605469 12.902344 24.367187 3.585938 54.691406-20.769531 67.597656zm0 0"/></svg>