<svg 
 xmlns="http://www.w3.org/2000/svg"
 xmlns:xlink="http://www.w3.org/1999/xlink"
 width="67px" height="56px">
<path fill-rule="evenodd"  fill="rgb(171, 118, 54)"
 d="M64.906,49.780 L56.234,49.780 C55.298,53.350 52.047,56.004 48.156,56.004 C44.265,56.004 41.015,53.350 40.079,49.780 L26.922,49.780 C25.985,53.350 22.735,56.004 18.844,56.004 C14.953,56.004 11.702,53.350 10.766,49.780 L2.094,49.780 C0.937,49.780 0.000,48.853 0.000,47.706 L0.000,31.110 C0.000,29.964 0.937,29.035 2.094,29.035 L6.980,29.035 L11.677,17.865 C12.002,17.092 12.764,16.588 13.609,16.588 L21.235,16.588 C22.171,13.020 25.422,10.365 29.312,10.365 C33.203,10.365 36.454,13.020 37.390,16.588 L42.922,16.588 C43.622,16.588 44.276,16.935 44.664,17.512 L52.417,29.035 L56.531,29.035 C62.303,29.035 67.000,33.689 67.000,39.408 L67.000,47.706 C67.000,48.853 66.063,49.780 64.906,49.780 ZM48.156,51.855 C50.466,51.855 52.344,49.993 52.344,47.706 C52.344,45.418 50.466,43.557 48.156,43.557 C45.847,43.557 43.969,45.418 43.969,47.706 C43.969,49.993 45.847,51.855 48.156,51.855 ZM18.844,51.855 C21.153,51.855 23.031,49.993 23.031,47.706 C23.031,45.418 21.153,43.557 18.844,43.557 C16.534,43.557 14.656,45.418 14.656,47.706 C14.656,49.993 16.534,51.855 18.844,51.855 ZM29.312,14.514 C27.769,14.514 26.434,15.354 25.707,16.588 L32.918,16.588 C32.191,15.354 30.856,14.514 29.312,14.514 ZM62.813,39.408 C62.813,35.976 59.995,33.184 56.531,33.184 L51.297,33.184 C50.597,33.184 49.943,32.838 49.555,32.261 L41.801,20.737 L15.005,20.737 L10.307,31.908 C9.982,32.681 9.220,33.184 8.375,33.184 L4.188,33.184 L4.188,45.631 L10.766,45.631 C11.703,42.063 14.953,39.408 18.844,39.408 C22.735,39.408 25.985,42.063 26.921,45.631 L40.079,45.631 C41.015,42.063 44.265,39.408 48.156,39.408 C52.047,39.408 55.298,42.063 56.234,45.631 L62.813,45.631 L62.813,39.408 ZM41.875,33.184 L16.750,33.184 C15.594,33.184 14.656,32.255 14.656,31.110 C14.656,29.964 15.594,29.035 16.750,29.035 L27.219,29.035 L27.219,24.886 C27.219,23.741 28.156,22.812 29.312,22.812 C30.469,22.812 31.406,23.741 31.406,24.886 L31.406,29.035 L41.875,29.035 C43.031,29.035 43.969,29.964 43.969,31.110 C43.969,32.255 43.031,33.184 41.875,33.184 ZM39.168,9.757 C38.759,10.162 38.223,10.365 37.687,10.365 C37.152,10.365 36.616,10.162 36.207,9.757 C35.389,8.947 35.389,7.634 36.207,6.824 L38.301,4.749 C39.119,3.939 40.444,3.939 41.262,4.749 C42.080,5.559 42.080,6.872 41.262,7.682 L39.168,9.757 ZM29.312,8.290 C28.156,8.290 27.219,7.362 27.219,6.216 L27.219,2.067 C27.219,0.921 28.156,-0.008 29.312,-0.008 C30.469,-0.008 31.406,0.921 31.406,2.067 L31.406,6.216 C31.406,7.362 30.469,8.290 29.312,8.290 ZM20.937,10.365 C20.402,10.365 19.866,10.162 19.457,9.757 L17.363,7.682 C16.546,6.872 16.546,5.559 17.363,4.749 C18.181,3.939 19.506,3.939 20.324,4.749 L22.418,6.824 C23.236,7.634 23.236,8.947 22.418,9.757 C22.009,10.162 21.473,10.365 20.937,10.365 Z"/>
</svg>