<svg width="37" height="55" viewBox="0 0 37 55" fill="none" xmlns="http://www.w3.org/2000/svg">
<path d="M18.5267 9.32529C18.7052 9.32529 18.8837 9.32529 19.0622 9.32529C21.6797 9.50376 23.9998 10.872 25.4871 13.0731C27.0338 15.3932 27.3907 18.3082 26.4389 20.9258C26.4389 20.9853 26.4389 20.9853 26.3794 21.0448L21.8582 37.8209C21.4417 38.9512 20.4304 39.3676 19.5976 39.3676C18.8242 39.3676 17.8723 38.9512 17.3964 37.9398V35.2033C19.4786 34.5489 21.0253 32.6453 21.0253 30.3252C21.0253 27.5291 18.7647 25.209 15.9092 25.209C13.1132 25.209 10.7931 27.4696 10.7931 30.3252C10.7931 32.5858 12.3398 34.5489 14.4219 35.2033V38.2373C14.4219 38.4158 14.422 38.5347 14.4815 38.7132C15.2548 40.9143 17.218 42.3421 19.5381 42.4016H19.5976C21.9177 42.4016 23.8808 41.0333 24.6542 38.8322C24.6542 38.7727 24.6542 38.7727 24.7137 38.7132L29.2349 21.9371C30.4842 18.4867 29.9488 14.5604 27.9261 11.5264C25.9035 8.49244 22.7505 6.64826 19.1811 6.46979C18.9432 6.46979 18.7052 6.46979 18.4673 6.46979C11.8639 6.46979 6.56934 11.8239 6.56934 18.3677C6.56934 19.2006 7.22372 19.855 8.05658 19.855C8.88943 19.855 9.54382 19.2006 9.54382 18.3677C9.54382 13.3706 13.5891 9.32529 18.5267 9.32529ZM13.827 30.3252C13.827 29.1354 14.7789 28.1835 15.9687 28.1835C17.1585 28.1835 18.1103 29.1354 18.1103 30.3252C18.1103 31.5149 17.1585 32.4668 15.9687 32.4668C14.7789 32.4668 13.827 31.5149 13.827 30.3252Z" fill="#1B71A1"/>
<path d="M36.7308 16.9995C36.0764 7.95703 28.7591 0.639794 19.7167 0.0448966C14.6006 -0.312042 9.72246 1.47265 5.97461 4.92305C2.28625 8.37345 0.204102 13.2516 0.204102 18.2487C0.204102 19.0816 0.858488 19.736 1.69134 19.736C2.5242 19.736 3.17859 19.0816 3.17859 18.2487C3.17859 13.9655 4.90377 9.97967 7.99724 7.06468C11.0907 4.14968 15.1955 2.66244 19.4787 2.95989C27.0934 3.43581 33.2209 9.56325 33.7563 17.1184C33.9347 19.379 33.5778 21.5207 32.8044 23.6028C32.8044 23.6623 32.745 23.6623 32.745 23.7218C32.4475 24.5546 25.0708 44.1268 24.2974 46.8038C23.5835 49.4213 21.1445 51.2655 18.4079 51.2655C15.0765 51.2655 12.34 48.529 12.34 45.1976C12.34 44.3647 11.6856 43.7103 10.8527 43.7103C10.0199 43.7103 9.36549 44.3647 9.36549 45.1976C9.36549 50.1947 13.4108 54.24 18.4079 54.24C22.4532 54.24 26.0821 51.5035 27.1529 47.5772C27.6883 45.5545 32.8044 31.9314 35.4815 24.9116C35.4815 24.8521 35.4815 24.8521 35.541 24.7926C36.5523 22.3535 36.9687 19.6765 36.7308 16.9995Z" fill="#1B71A1"/>
</svg>
