<svg width="47" height="55" viewBox="0 0 47 55" fill="none" xmlns="http://www.w3.org/2000/svg">
<path d="M39.597 24.0345C39.5394 23.9768 39.5394 23.9192 39.4818 23.8616C39.5394 23.5159 39.6546 23.1125 39.6546 22.7668C39.9427 19.7706 38.6751 17.1201 37.4075 15.622C33.6622 11.1853 27.2088 10.4939 22.7721 13.8934C22.6569 12.3377 22.484 10.6091 22.4264 8.88051C24.0973 8.65004 25.2497 8.59241 27.8426 8.82289C28.6493 8.88051 29.3407 8.3043 29.3983 7.49763C29.456 6.69096 28.8798 5.99953 28.0731 5.94191C25.4226 5.76905 24.0397 5.76906 22.3687 5.99953C22.3687 4.21333 22.484 2.71521 22.7145 1.85092C22.9449 1.10186 22.5416 0.295185 21.7925 0.0647062C21.0435 -0.165772 20.2368 0.237569 20.0063 0.986623C19.2573 3.46427 19.4878 9.11098 19.8335 13.0867C19.4878 12.741 19.0844 12.4529 18.6811 12.1648C17.0101 10.9548 15.1663 10.1481 13.2072 9.74481L12.2277 5.30809C12.0548 4.55904 11.3058 4.04046 10.4991 4.21332C9.75005 4.38618 9.23148 5.13524 9.40434 5.94191L10.1534 9.39909C7.96386 9.39909 5.65907 9.74481 3.18143 10.6091C2.43237 10.8396 2.02903 11.6462 2.25951 12.4529C2.48999 13.202 3.29667 13.6053 4.10335 13.3748C9.23149 11.6462 13.6106 12.0496 17.0101 14.5272C17.1254 14.5848 17.183 14.6425 17.2982 14.7577C13.6682 14.0086 9.86529 14.7577 6.75383 16.832C6.92669 16.4863 7.15718 16.083 7.44528 15.7372C7.90623 15.1034 7.73337 14.1815 7.04193 13.7206C6.40812 13.2596 5.4862 13.4324 5.02525 14.1239C2.77808 17.4082 2.31713 20.6925 2.25951 21.7297C-0.448608 26.685 0.0123555 32.9655 3.81525 37.5174C5.19812 39.1308 7.38765 40.8018 10.211 41.6661C12.5158 50.1361 21.3316 54.2271 37.1194 54.2271C37.5803 54.2271 38.0413 54.2271 38.5599 54.2271C39.1937 54.2847 42.8237 54.2847 44.9556 51.1157C48.1247 46.3332 46.2809 37.2293 39.597 24.0345ZM42.5356 49.3871C41.1527 51.4614 38.7327 51.2885 38.6751 51.2885C38.6175 51.2885 38.5598 51.2885 38.5022 51.2885C19.3725 51.5766 14.7054 45.8147 13.3225 42.1846C13.6106 42.1846 13.8987 42.2423 14.2444 42.2423C14.9934 42.2423 15.8001 42.1846 16.6068 42.0118C17.4135 41.8965 17.932 41.1475 17.7592 40.3408C17.6439 39.5341 16.8949 39.0155 16.0882 39.1884C10.0382 40.2256 6.29288 36.077 5.88954 35.616C1.91379 30.9488 2.48999 23.9192 7.2148 19.9435C10.3839 17.293 14.7053 16.6015 18.5658 18.1573L20.8706 19.0792C20.9283 19.0792 20.9859 19.1368 21.0435 19.1368C22.484 21.4992 23.5788 24.2649 24.3854 27.0883C24.3278 28.1831 23.8669 30.0269 22.8873 30.8336C22.4264 31.2369 21.8502 31.3521 21.1587 31.2369C20.3521 31.064 19.603 31.5826 19.4878 32.3893C19.3149 33.196 19.8335 33.945 20.6402 34.0603C20.9859 34.1179 21.3316 34.1755 21.6773 34.1755C22.8297 34.1755 23.8669 33.8298 24.7312 33.0807C25.0192 32.8503 25.3073 32.5621 25.5378 32.2741C25.8835 34.406 26.1716 36.4803 26.2869 38.3817C26.5174 41.1475 26.575 43.5099 26.575 44.9504C26.575 45.757 27.2088 46.3909 28.0155 46.3909C28.8221 46.3909 29.456 45.757 29.456 44.9504C29.456 44.6046 29.456 44.2013 29.456 43.798C31.1269 45.757 33.6046 47.7161 36.9465 48.4075C37.0618 48.4075 37.1194 48.4652 37.2346 48.4652C37.926 48.4652 38.5022 48.0042 38.6175 47.3128C38.7903 46.5061 38.2718 45.757 37.5227 45.5842C32.1065 44.4318 29.6288 39.0156 29.1102 37.8632C28.534 31.4098 27.0936 23.2278 23.233 17.293C23.694 16.832 24.0973 16.4863 24.2126 16.4287C27.4393 13.7205 32.3369 14.2391 35.1027 17.5235C35.967 18.5606 36.8889 20.462 36.716 22.5363C36.5432 24.0921 35.7941 25.4749 34.4112 26.5697C33.7774 27.0883 33.7198 27.9526 34.1808 28.5864C34.4689 28.9321 34.8722 29.105 35.2755 29.105C35.5636 29.105 35.9093 28.9897 36.1974 28.7593C36.8313 28.2407 37.3498 27.7221 37.8108 27.1459C45.0709 41.7237 43.9185 47.3128 42.5356 49.3871Z" fill="#1B71A1"/>
</svg>
