<svg width="60" height="55" viewBox="0 0 60 55" fill="none" xmlns="http://www.w3.org/2000/svg">
<path d="M56.128 13.6733C55.1778 9.15981 51.1988 5.65588 46.2695 5.06199C45.0223 4.94321 43.7752 4.94321 42.5874 5.18077C40.7464 2.3895 37.7175 0.489065 34.1542 0.0733443C30.8284 -0.282988 27.6215 0.667231 25.2459 2.74583C23.7612 1.855 22.0983 1.26112 20.376 1.08295C17.4066 0.726618 14.4966 1.49867 12.121 3.16155C9.92363 4.76505 8.4983 7.02182 8.02319 9.57553C3.68782 10.7039 0.599607 14.1485 0.0651087 18.4244C-0.588167 24.1258 3.74721 29.2926 9.80485 30.124C11.6459 32.9153 14.7341 34.7563 18.1787 35.172C19.4258 35.2908 20.6136 35.2314 21.8014 35.0533C22.4546 41.7048 28.8686 46.9904 36.7673 47.2279V52.7511C36.7673 53.5825 37.4206 54.2358 38.252 54.2358H42.7062C43.5376 54.2358 44.1909 53.5825 44.1909 52.7511V45.862C47.2791 44.5555 49.8328 42.4175 51.3769 39.745C54.6433 38.2603 57.0782 35.2314 57.494 31.6087C57.6127 30.5397 57.5533 29.4707 57.3158 28.4017C58.7411 26.8576 59.6913 24.8978 59.9289 22.8192C60.3446 19.3153 58.9193 15.9895 56.128 13.6733ZM42.2311 43.4271C42.1123 43.4865 42.0529 43.4865 41.9935 43.5458C41.9935 43.5458 41.9341 43.5459 41.9341 43.6052C41.8747 43.6646 41.8154 43.6646 41.756 43.724L41.6966 43.7834C41.6372 43.8428 41.5778 43.9022 41.5778 43.9022L41.5184 43.9616C41.459 44.021 41.459 44.0803 41.3996 44.1397C41.3996 44.1397 41.3996 44.1991 41.3402 44.1991C41.3402 44.2585 41.2808 44.3179 41.2808 44.3773C41.2808 44.4367 41.2809 44.4367 41.2215 44.4961C41.2215 44.5555 41.2215 44.6148 41.2215 44.6742C41.2215 44.7336 41.2215 44.7336 41.2215 44.793V44.8524V51.2664H39.7367V45.6838C39.7367 45.2681 39.5586 44.9118 39.2616 44.6148C38.9647 44.3179 38.549 44.1991 38.1333 44.1991C37.8363 44.1991 37.5988 44.1991 37.3018 44.1991C30.4127 44.1991 24.7708 39.6262 24.652 34.0437C26.3743 35.469 28.5123 36.3598 30.8284 36.6568C32.8477 36.8943 34.8669 36.5974 36.7079 35.8847C38.549 38.6166 41.5184 40.3982 45.0223 40.814C45.4974 40.8734 45.9726 40.8734 46.4477 40.8734C46.5071 40.8734 46.6258 40.8734 46.6852 40.8734C45.4381 41.9424 43.9533 42.8332 42.2311 43.4271ZM54.5245 31.2524C54.2276 33.8061 52.5053 35.9441 50.1891 37.0131C49.8922 37.0725 49.6547 37.1319 49.4171 37.31C48.1699 37.7258 46.804 37.9039 45.3787 37.7258C42.825 37.4288 40.5682 36.0629 39.2022 34.1031C41.5778 31.7275 42.6468 28.4017 42.0529 25.3729C41.3402 21.9878 38.6084 19.3747 34.4512 18.2463C33.6791 18.0087 32.8477 18.4838 32.6101 19.3153C32.3726 20.0873 32.8477 20.9188 33.6791 21.1563C36.7079 21.9878 38.6678 23.71 39.1429 26.0262C39.618 28.3424 38.6084 30.8961 36.4704 32.6183C34.8669 33.5092 33.0258 33.8655 31.1848 33.6279C29.1656 33.3904 27.3245 32.4996 25.9586 31.1336C25.9586 31.1336 25.8992 31.1336 25.8992 31.0742C25.8992 31.0742 25.8992 31.0742 25.8398 31.0148C25.1271 30.421 24.8302 28.7581 25.4241 27.2734C25.8992 26.2637 26.9088 25.076 29.2843 25.3135C30.1158 25.4323 30.8284 24.8384 30.9472 24.007C31.066 23.1755 30.4721 22.4629 29.6407 22.3441C26.4931 21.9878 23.88 23.3537 22.6922 26.0262C21.9201 27.8079 21.9201 29.8865 22.6328 31.4899C21.3263 32.0244 19.8415 32.2026 18.3568 32.0244C16.2188 31.7869 14.3184 30.8367 12.9524 29.352C14.4372 28.4611 15.8031 26.8576 16.6346 25.1947C18.238 21.9284 17.8817 18.6026 15.6249 16.2864C15.0311 15.6926 14.1402 15.6926 13.5463 16.2864C12.9524 16.8803 12.9524 17.7712 13.5463 18.3651C15.3874 20.2061 14.6153 22.641 14.0214 23.8882C12.9525 26.0262 11.2896 27.0952 10.7551 27.0358C10.7551 27.0358 10.7551 27.0358 10.6957 27.0358H10.5175C10.4581 27.0358 10.3987 27.0358 10.3394 27.0358C5.76642 26.5013 2.44066 22.7004 2.91577 18.6026C3.2721 15.3362 5.94459 12.7231 9.50791 12.1292C10.1612 12.0105 10.6957 11.476 10.7551 10.7633V10.5851C10.7551 10.5257 10.7551 10.4664 10.7551 10.407C10.9926 8.44714 12.0616 6.66549 13.7245 5.41832C15.4468 4.17116 17.6442 3.57727 19.9009 3.87422C21.0293 3.99299 22.0983 4.34933 23.0485 4.82444C21.742 6.72488 20.8511 9.39736 21.445 11.8917C21.8608 13.7327 23.2861 16.2271 27.5027 17.3554C27.6215 17.4148 27.7402 17.4148 27.9184 17.4148C28.5717 17.4148 29.1656 16.9991 29.3437 16.3458C29.5813 15.5738 29.1062 14.7423 28.2747 14.5048C26.018 13.9109 24.652 12.7825 24.2957 11.2384C23.8206 9.15981 25.0677 6.6061 26.1961 5.59649L26.2555 5.5371L26.3149 5.47771C28.0966 3.51789 30.8284 2.56767 33.6791 2.86461C36.1734 3.16155 38.3708 4.40872 39.7367 6.36854C37.5394 8.38776 36.8267 11.5354 38.0739 14.5048C39.1429 17.0585 41.6372 19.1965 45.2005 19.1965C45.9132 19.1965 46.6852 19.0777 47.5167 18.8996C48.2887 18.7214 48.8232 17.8899 48.5857 17.1179C48.4075 16.3458 47.576 15.8113 46.804 16.0489C43.5376 16.8803 41.5184 15.0987 40.8057 13.3764C40.0931 11.7135 40.3306 9.45675 42.2905 8.1502C43.4189 7.85326 44.6066 7.73448 45.735 7.85326C49.5953 8.32837 52.6241 11.0602 53.0992 14.5642C53.1586 14.9799 53.3368 15.3362 53.6931 15.5738C55.9499 17.2367 57.0782 19.7904 56.7813 22.3441C56.6625 23.4131 56.2468 24.4227 55.6529 25.3729C54.5839 24.3039 53.0398 23.71 51.2581 23.7694C48.4669 23.8288 46.2101 25.4323 45.6162 27.7485C45.4381 28.5205 45.9132 29.352 46.6852 29.5301C46.804 29.5895 46.9228 29.5895 47.0416 29.5895C47.6948 29.5895 48.2887 29.1144 48.4669 28.4611C48.7638 27.3327 50.1298 26.7389 51.3175 26.7389C52.3865 26.6795 53.6931 27.0952 54.0494 28.283C54.5839 29.2926 54.6433 30.3022 54.5245 31.2524Z" fill="#1B71A1"/>
</svg>
