<svg id="Layer_4" data-name="Layer 4" xmlns="http://www.w3.org/2000/svg" viewBox="0 0 126 32.005"><defs><style>.cls-1{fill:#3b58e3;}.cls-2{fill:#0092ff;}.cls-3{fill:#f0483e;}.cls-4{fill:#819299;}</style></defs><title>logo</title><path class="cls-1" d="M14.521,18.06L16.97,32.005H1.773A1.776,1.776,0,0,1,0,30.227v-9.6Z"/><path class="cls-2" d="M30.145,0a1.776,1.776,0,0,1,1.773,1.778V30.227a1.776,1.776,0,0,1-1.773,1.778H20.573L14.945,0h15.2Z"/><path class="cls-3" d="M11.343,0L13.9,14.559,0,17.016V1.778A1.776,1.776,0,0,1,1.773,0h9.57Z"/><path class="cls-4" d="M62.42,26.451H58.283L49.011,12.33V26.451H44.875V5.68h4.137l9.272,14.24V5.68H62.42V26.451Z"/><path class="cls-4" d="M81.726,10.152v16.3H77.588v-3.3a5.19,5.19,0,0,1-2.125,2.575,6.315,6.315,0,0,1-3.419.927A5.748,5.748,0,0,1,67.555,24.8a7.455,7.455,0,0,1-1.673-5.179V10.152H69.99v9a4.264,4.264,0,0,0,1,3.016,3.506,3.506,0,0,0,2.7,1.074A3.679,3.679,0,0,0,76.533,22.1a4.7,4.7,0,0,0,1.055-3.3V10.152h4.138Z"/><path class="cls-4" d="M98.889,10.946a6.752,6.752,0,0,1,2.567,2.9,10.075,10.075,0,0,1,.924,4.457,10.077,10.077,0,0,1-.924,4.458,6.742,6.742,0,0,1-2.567,2.9,6.96,6.96,0,0,1-3.7,1,6.1,6.1,0,0,1-3.508-.985,5.394,5.394,0,0,1-2.068-2.634v3.413H85.48V4.68h4.138v8.855a5.319,5.319,0,0,1,2.068-2.618,6.164,6.164,0,0,1,3.508-.971A6.981,6.981,0,0,1,98.889,10.946Zm-8.083,3.9A4.805,4.805,0,0,0,89.589,18.3a4.768,4.768,0,0,0,1.218,3.429,4.437,4.437,0,0,0,6.206.029A4.858,4.858,0,0,0,98.185,18.3a4.915,4.915,0,0,0-1.172-3.472A4.045,4.045,0,0,0,93.9,13.565,4.086,4.086,0,0,0,90.807,14.845Z"/><path class="cls-4" d="M105.551,3.841a3.018,3.018,0,0,1,3.7,0,2.094,2.094,0,0,1,.7,1.633,2.059,2.059,0,0,1-.7,1.6,3.018,3.018,0,0,1-3.7,0,2.059,2.059,0,0,1-.7-1.6A2.094,2.094,0,0,1,105.551,3.841Zm3.9,6.311v16.3h-4.138v-16.3h4.138Z"/><path class="cls-4" d="M123.564,11.446a6.5,6.5,0,0,1,2.23,4h-3.873a3.238,3.238,0,0,0-1.055-1.883,3.171,3.171,0,0,0-2.142-.706,2.46,2.46,0,0,0-1.645.5,1.682,1.682,0,0,0-.585,1.353,1.375,1.375,0,0,0,.468,1.088,3.362,3.362,0,0,0,1.175.648q0.7,0.235,2.025.559a20.889,20.889,0,0,1,3.006.868,4.991,4.991,0,0,1,2,1.441A3.989,3.989,0,0,1,126,21.978a4.116,4.116,0,0,1-1.628,3.384,6.855,6.855,0,0,1-4.386,1.294,8.272,8.272,0,0,1-5.076-1.427,6.007,6.007,0,0,1-2.319-4.075h3.961a2.684,2.684,0,0,0,1.058,1.9,3.807,3.807,0,0,0,2.376.692,2.3,2.3,0,0,0,1.614-.515,1.742,1.742,0,0,0,.556-1.338,1.483,1.483,0,0,0-.482-1.148,3.292,3.292,0,0,0-1.2-.676q-0.72-.235-2.039-0.559a22.931,22.931,0,0,1-2.949-.838,4.7,4.7,0,0,1-1.936-1.368,3.841,3.841,0,0,1-.807-2.589,4.24,4.24,0,0,1,1.614-3.442,6.833,6.833,0,0,1,4.458-1.324A7.161,7.161,0,0,1,123.564,11.446Z"/></svg>