<?xml version="1.0" encoding="iso-8859-1"?>
<!-- Generator: Adobe Illustrator 19.0.0, SVG Export Plug-In . SVG Version: 6.00 Build 0)  -->
<svg xmlns="http://www.w3.org/2000/svg" xmlns:xlink="http://www.w3.org/1999/xlink" version="1.1" id="Capa_1" x="0px" y="0px" viewBox="0 0 508 508" style="enable-background:new 0 0 508 508;" xml:space="preserve" width="512px" height="512px">
<g>
	<g>
		<rect x="178.142" y="32.8" width="16.4" height="49.2" fill="#FFFFFF"/>
	</g>
</g>
<g>
	<g>
		<rect x="227.342" y="32.8" width="16.4" height="49.2" fill="#FFFFFF"/>
	</g>
</g>
<g>
	<g>
		<rect x="276.542" y="32.8" width="16.4" height="49.2" fill="#FFFFFF"/>
	</g>
</g>
<g>
	<g>
		<rect x="129.042" y="32.8" width="16.4" height="49.2" fill="#FFFFFF"/>
	</g>
</g>
<g>
	<g>
		<rect x="79.842" y="32.8" width="16.4" height="49.2" fill="#FFFFFF"/>
	</g>
</g>
<g>
	<g>
		<polygon points="104.442,319.5 104.442,286.8 88.042,286.8 88.042,319.5 55.242,319.5 55.242,335.9 88.042,335.9 88.042,368.7     104.442,368.7 104.442,335.9 137.242,335.9 137.242,319.5   " fill="#FFFFFF"/>
	</g>
</g>
<g>
	<g>
		<path d="M475.842,342.4c-10.5-11.5-24.6-18.8-39.6-22.6c-14.6-19.9-42-32.9-69.7-32.9v-98.4c0-22.6-18.4-41-41-41h-8.2v-32.8h8.2    c13.6,0,24.6-11,24.6-24.6V24.6c0-13.6-11-24.6-24.6-24.6h-278.5c-13.5,0-24.5,11-24.5,24.6v65.5c0,13.6,11,24.6,24.6,24.6h8.2    v32.8h-8.3c-22.6,0-41,18.4-41,41V467c0,22.6,18.4,41,41,41h278.6c19.7,0,36.2-14,40.1-32.5c13.3,12,69,30.8,110.1-10.4    C497.542,443.5,521.742,392.8,475.842,342.4z M426.842,334.4c8.8,12.4,26.5,48.1-2.6,88.5l-103.6-103.6    C383.442,277,424.442,331,426.842,334.4z M47.042,98.3c-4.5,0-8.2-3.7-8.2-8.2V24.6c0-4.5,3.7-8.2,8.2-8.2h278.6    c4.5,0,8.2,3.7,8.2,8.2v65.5c0,4.5-3.7,8.2-8.2,8.2H47.042z M301.042,114.7v32.8h-229.4v-32.8H301.042z M22.542,270.4h147.5v114.7    h-147.5V270.4z M325.642,491.6h-278.6c-13.6,0-24.6-11-24.6-24.6v-65.5h163.9V254h-163.8v-65.5c0-13.6,11-24.6,24.6-24.6h278.6    c13.6,0,24.6,11,24.6,24.6v99.9c-17.4,3.2-34,11.4-47.3,24.8c-44.8,44.8-25.4,102.6,0,127.5c22.8,22.3,47.3,24.8,47.3,24.8    C350.942,479.6,339.242,491.6,325.642,491.6z M314.542,429c-16.2-16.2-36.6-57.1-5.5-98.2l103.6,103.6    C383.742,457.6,341.242,455.8,314.542,429z M464.042,453.7c-32.6,32.3-73.1,17.3-83.2,11.8c18-2.8,35.4-11,49.4-24.8    c17.1-16.9,26.6-39.5,26.7-63.6c0.1-11.7-2.1-23.1-6.3-33.6c5,3,9.9,6.4,14,10.7C503.242,395.5,477.442,440.4,464.042,453.7z" fill="#FFFFFF"/>
	</g>
</g>
<g>
</g>
<g>
</g>
<g>
</g>
<g>
</g>
<g>
</g>
<g>
</g>
<g>
</g>
<g>
</g>
<g>
</g>
<g>
</g>
<g>
</g>
<g>
</g>
<g>
</g>
<g>
</g>
<g>
</g>
</svg>
