<?xml version="1.0" encoding="iso-8859-1"?>
<!-- Generator: Adobe Illustrator 19.0.0, SVG Export Plug-In . SVG Version: 6.00 Build 0)  -->
<svg xmlns="http://www.w3.org/2000/svg" xmlns:xlink="http://www.w3.org/1999/xlink" version="1.1" id="Capa_1" x="0px" y="0px" viewBox="0 0 508 508" style="enable-background:new 0 0 508 508;" xml:space="preserve" width="512px" height="512px">
<g>
	<g>
		<path d="M335.2,238.4c0.1-0.3,41.7-55.1,41.7-115.5C376.9,55.1,321.8,0,254,0S131.1,55.1,131.1,122.9    c0,62.1,41.6,115.3,41.7,115.5C89.1,275.6,41,365.5,57.6,456.6l9.3,51.4h374.2l9.3-51.4C467,365.5,418.9,275.6,335.2,238.4z     M254,16.4c43.1,0,80.2,25.7,96.9,62.6c-36.3,27.9-82.5-3.5-82.5-3.5c-29-16.9-65.4-15.4-92.8,3.9l-24.8,17.4    C162.6,50.7,204.3,16.4,254,16.4z M147.5,122.9c0-1.3,0.1-2.6,0.2-3.9l37.4-26.3c22.2-15.6,51.7-16.9,75.1-3.2    c0,0,48.5,35,96.4,5.3c2.4,8.9,3.9,18.3,3.9,28c0,58.2-47.7,147.5-106.5,147.5S147.5,181.1,147.5,122.9z M434.3,453.7l-6.9,37.9    H80.6l-6.9-37.9c-15.5-85.2,30.8-169.2,110.4-202c19.6,21,43.5,35.1,70,35.1s50.4-14.1,70-35.1    C403.5,284.5,449.8,368.5,434.3,453.7z" fill="#FFFFFF"/>
	</g>
</g>
<g>
	<g>
		<path d="M360.5,352.3v-32.8h-49.2v32.8h-32.8v49.2h32.8v32.8h49.2v-32.8h32.8v-49.2H360.5z M376.9,385.1h-32.8v32.8h-16.4v-32.8    H295v-16.4h32.8v-32.8h16.4v32.8h32.7V385.1z" fill="#FFFFFF"/>
	</g>
</g>
<g>
</g>
<g>
</g>
<g>
</g>
<g>
</g>
<g>
</g>
<g>
</g>
<g>
</g>
<g>
</g>
<g>
</g>
<g>
</g>
<g>
</g>
<g>
</g>
<g>
</g>
<g>
</g>
<g>
</g>
</svg>
