<?xml version="1.0" encoding="iso-8859-1"?>
<!-- Generator: Adobe Illustrator 19.0.0, SVG Export Plug-In . SVG Version: 6.00 Build 0)  -->
<svg xmlns="http://www.w3.org/2000/svg" xmlns:xlink="http://www.w3.org/1999/xlink" version="1.1" id="Capa_1" x="0px" y="0px" viewBox="0 0 508 508" style="enable-background:new 0 0 508 508;" xml:space="preserve" width="512px" height="512px">
<g>
	<g>
		<path d="M172.6,48c0,0-170.9,197.2-170.9,289.1C1.7,431.3,78.4,508,172.6,508s170.9-76.7,170.9-170.9    C343.5,245.2,172.6,48,172.6,48z M172.6,491.7C87.3,491.7,18,422.4,18,337.1C18,261,143.2,107.9,172.6,72.9    c29.5,35,154.6,188,154.6,264.2C327.2,422.4,257.9,491.7,172.6,491.7z" fill="#FFFFFF"/>
	</g>
</g>
<g>
	<g>
		<path d="M50.5,328.9H34.3c0,71.8,58.4,130.2,130.2,130.2v-16.3C101.6,442.9,50.5,391.8,50.5,328.9z" fill="#FFFFFF"/>
	</g>
</g>
<g>
	<g>
		<path d="M351.7,0c0,0-56.1,56.5-97.5,113.8l13.2,9.5c32.4-44.9,70.1-85.3,84.3-100.1C378.5,51.2,490,171.7,490,239.4    c0,72.3-56.5,132.9-128.7,137.9l1.1,16.2c80.7-5.6,143.9-73.3,143.9-154.1C506.3,156.1,351.7,0,351.7,0z" fill="#FFFFFF"/>
	</g>
</g>
<g>
</g>
<g>
</g>
<g>
</g>
<g>
</g>
<g>
</g>
<g>
</g>
<g>
</g>
<g>
</g>
<g>
</g>
<g>
</g>
<g>
</g>
<g>
</g>
<g>
</g>
<g>
</g>
<g>
</g>
</svg>
