<?xml version="1.0" encoding="iso-8859-1"?>
<!-- Generator: Adobe Illustrator 19.0.0, SVG Export Plug-In . SVG Version: 6.00 Build 0)  -->
<svg xmlns="http://www.w3.org/2000/svg" xmlns:xlink="http://www.w3.org/1999/xlink" version="1.1" id="Capa_1" x="0px" y="0px" viewBox="0 0 508 508" style="enable-background:new 0 0 508 508;" xml:space="preserve" width="512px" height="512px">
<g>
	<g>
		<path d="M280.55,0c-117.5,0-213,95.6-213,213v6.6l-53.1,132.7h53.1v49.2c0,22.6,18.4,41,41,41h24.5V508h254v-10.1    c0-52.2,20-104.5,56.2-147.4c32.4-38.3,50.3-87.2,50.3-137.4C493.65,95.6,398.05,0,280.55,0z M297.05,491.7h-147.6v-65.5h-40.9    v-0.1c-13.6,0-24.6-11-24.6-24.6v-8.2h155.7c31.6,0,57.4,25.7,57.4,57.4V491.7z M430.85,339.9c-37.3,44.1-58.5,97.8-60,151.7    h-57.4v-41c0-40.7-33.1-73.7-73.7-73.7H83.95v-41h-45.3l45.3-113.1V213c0-108.4,88.2-196.6,196.6-196.6s196.7,88.2,196.7,196.6    C477.25,259.5,460.75,304.5,430.85,339.9z" fill="#FFFFFF"/>
	</g>
</g>
<g>
	<g>
		<path d="M264.15,65.8v16.4c81.2,0,147.2,66,147.2,147.2h16.4C427.75,139.2,354.35,65.8,264.15,65.8z" fill="#FFFFFF"/>
	</g>
</g>
<g>
</g>
<g>
</g>
<g>
</g>
<g>
</g>
<g>
</g>
<g>
</g>
<g>
</g>
<g>
</g>
<g>
</g>
<g>
</g>
<g>
</g>
<g>
</g>
<g>
</g>
<g>
</g>
<g>
</g>
</svg>
