<?xml version="1.0" encoding="iso-8859-1"?>
<!-- Generator: Adobe Illustrator 19.0.0, SVG Export Plug-In . SVG Version: 6.00 Build 0)  -->
<svg xmlns="http://www.w3.org/2000/svg" xmlns:xlink="http://www.w3.org/1999/xlink" version="1.1" id="Capa_1" x="0px" y="0px" viewBox="0 0 508 508" style="enable-background:new 0 0 508 508;" xml:space="preserve" width="512px" height="512px">
<g>
	<g>
		<path d="M495.4,21.789c-8.1-8.1-33.7-24.4-60.8,0L0,456.389l12.6,4.2c18,6,36.5,8.9,55,8.9c38.3,0,76-12.7,107.3-37.2l189.8-161.8    l-28.6-28.5l159.3-159.4C512.2,65.789,512.2,38.489,495.4,21.789z M483.8,70.989l-171,171l27.6,27.6l-176,150    c-38,29.8-87.1,40.3-133.5,29.1l415.3-415.3c10-10,27.5-10,37.6,0C494.2,43.789,494.2,60.589,483.8,70.989z" fill="#FFFFFF"/>
	</g>
</g>
<g>
	<g>
		<polygon points="508,453.089 179.2,453.089 179.2,469.489 224.4,469.489 246.6,499.089 259.8,489.189 245,469.489 298.4,469.489     320.6,499.089 333.7,489.189 318.9,469.489 372.4,469.489 394.6,499.089 407.7,489.189 392.9,469.489 446.4,469.489     468.5,499.089 481.7,489.189 466.9,469.489 508,469.489   " fill="#FFFFFF"/>
	</g>
</g>
<g>
	<g>
		<rect x="453.5" y="47.904" transform="matrix(0.7071 -0.7071 0.7071 0.7071 95.5568 342.9024)" width="16.4" height="16.4" fill="#FFFFFF"/>
	</g>
</g>
<g>
	<g>
		<rect x="430.24" y="71.083" transform="matrix(0.7071 -0.7071 0.7071 0.7071 72.3545 333.2451)" width="16.4" height="16.4" fill="#FFFFFF"/>
	</g>
</g>
<g>
	<g>
		<rect x="406.99" y="94.404" transform="matrix(0.7071 -0.7071 0.7071 0.7071 49.0545 323.6352)" width="16.4" height="16.4" fill="#FFFFFF"/>
	</g>
</g>
<g>
</g>
<g>
</g>
<g>
</g>
<g>
</g>
<g>
</g>
<g>
</g>
<g>
</g>
<g>
</g>
<g>
</g>
<g>
</g>
<g>
</g>
<g>
</g>
<g>
</g>
<g>
</g>
<g>
</g>
</svg>
