<svg xmlns="http://www.w3.org/2000/svg" xmlns:xlink="http://www.w3.org/1999/xlink" width="54.437" height="54.437" viewBox="0 0 54.437 54.437">
  <defs>
    <linearGradient id="linear-gradient" x1="0.5" x2="0.5" y2="1" gradientUnits="objectBoundingBox">
      <stop offset="0" stop-color="#9f78ff"/>
      <stop offset="0.547" stop-color="#f067ff"/>
      <stop offset="1" stop-color="#5c33c2"/>
    </linearGradient>
  </defs>
  <path id="price3" d="M37.532,44.124a3.193,3.193,0,0,0,3.19-3.19V36.45A14.354,14.354,0,1,0,39.4,7.772a13.47,13.47,0,0,0-25.667,5.233,11.811,11.811,0,1,0-1.823,23.464h1.807v4.466a3.193,3.193,0,0,0,3.19,3.19h8.719v7.124H13.609a1.595,1.595,0,0,0,0,3.19H40.828a1.595,1.595,0,1,0,0-3.19H28.814V44.124Zm-20.627-13.4V23.71H30.727v1.807a1.595,1.595,0,1,0,3.19,0V23.71h3.615l0,7.017c-.011,0-1.118,0-20.629,0ZM3.19,24.667a8.7,8.7,0,0,1,11.666-8.095,1.6,1.6,0,0,0,2.128-1.693A10.3,10.3,0,0,1,36.877,9.986a1.6,1.6,0,0,0,1.793,1.043,11.167,11.167,0,1,1,1.982,22.229,3.167,3.167,0,0,0-.36-.936,3.168,3.168,0,0,0,.429-1.595V23.71a3.193,3.193,0,0,0-3.19-3.19H16.905a3.193,3.193,0,0,0-3.19,3.19v7.017a3.169,3.169,0,0,0,.429,1.595,3.165,3.165,0,0,0-.365.957H11.908A8.676,8.676,0,0,1,3.19,24.667Zm13.716,9.25H30.727v1.807a1.595,1.595,0,1,0,3.19,0V33.917h3.615s.011,7.017,0,7.017H16.905Z" transform="translate(0 0)" fill="url(#linear-gradient)"/>
</svg>
