<svg 
 xmlns="http://www.w3.org/2000/svg"
 xmlns:xlink="http://www.w3.org/1999/xlink"
 width="29px" height="6px">
<path fill-rule="evenodd"  fill="rgb(44, 48, 51)"
 d="M28.388,6.003 L0.606,6.003 C0.268,6.003 -0.006,5.759 -0.006,5.457 C-0.006,5.155 0.268,4.910 0.606,4.910 L26.293,4.910 L20.387,1.543 L20.387,4.036 C20.387,4.338 20.113,4.582 19.774,4.582 C19.436,4.582 19.162,4.338 19.162,4.036 L19.162,0.545 C19.162,0.346 19.284,0.163 19.480,0.066 C19.572,0.021 19.673,-0.001 19.774,-0.001 C19.889,-0.001 20.004,0.028 20.104,0.085 L28.718,4.997 C28.947,5.127 29.052,5.377 28.976,5.610 C28.899,5.843 28.660,6.003 28.388,6.003 Z"/>
</svg>