<?xml version="1.0" encoding="UTF-8"?>
<svg width="108px" height="26px" viewBox="0 0 108 26" version="1.1" xmlns="http://www.w3.org/2000/svg" xmlns:xlink="http://www.w3.org/1999/xlink">
    <!-- Generator: Sketch 51.1 (57501) - http://www.bohemiancoding.com/sketch -->
    <title>logo</title>
    <desc>Created with Sketch.</desc>
    <defs>
        <linearGradient x1="50.0554743%" y1="-1.10743534%" x2="50.0554743%" y2="100.347306%" id="linearGradient-1">
            <stop stop-color="#EEEEEE" stop-opacity="0.525" offset="0%"></stop>
            <stop stop-color="#D8D8D8" stop-opacity="0" offset="100%"></stop>
        </linearGradient>
    </defs>
    <g id="Page-1" stroke="none" stroke-width="1" fill="none" fill-rule="evenodd">
        <g id="logo">
            <g id="Group" transform="translate(25.000000, 7.000000)" fill="#FFFFFF" fill-rule="nonzero">
                <path d="M6.8,6 C7.1,6.4 7.3,6.9 7.3,7.4 C7.3,8.2 7,8.8 6.5,9.2 C6,9.6 5.2,9.9 4.3,9.9 L0,9.9 L0,0.7 L4.2,0.7 C5.1,0.7 5.9,0.9 6.4,1.3 C6.9,1.7 7.2,2.3 7.2,3 C7.2,3.6 7.1,4 6.8,4.4 C6.5,4.8 6.1,5 5.6,5.1 C6,5.3 6.5,5.6 6.8,6 Z M2.2,4.5 L3.7,4.5 C4.5,4.5 4.9,4.2 4.9,3.5 C4.9,2.8 4.5,2.5 3.7,2.5 L2.3,2.5 L2.3,4.5 L2.2,4.5 Z M5,7.1 C5,6.8 4.9,6.5 4.7,6.3 C4.5,6.1 4.2,6 3.8,6 L2.2,6 L2.2,8.1 L3.8,8.1 C4.6,8.1 5,7.8 5,7.1 Z" id="Shape"></path>
                <path d="M12.6,3 C13,3.3 13.3,3.6 13.5,4 L13.5,2.7 L15.7,2.7 L15.7,9.9 L13.5,9.9 L13.5,8.6 C13.3,9 13,9.4 12.6,9.6 C12.2,9.9 11.7,10 11.2,10 C10.6,10 10.1,9.9 9.6,9.6 C9.1,9.3 8.8,8.9 8.5,8.3 C8.2,7.7 8.1,7.1 8.1,6.3 C8.1,5.5 8.2,4.9 8.5,4.3 C8.8,3.7 9.1,3.3 9.6,3 C10.1,2.7 10.6,2.6 11.2,2.6 C11.7,2.6 12.2,2.7 12.6,3 Z M10.7,5 C10.4,5.3 10.3,5.7 10.3,6.3 C10.3,6.9 10.4,7.3 10.7,7.6 C11,7.9 11.4,8.1 11.8,8.1 C12.3,8.1 12.6,7.9 12.9,7.6 C13.2,7.3 13.3,6.9 13.3,6.3 C13.3,5.8 13.2,5.3 12.9,5 C12.6,4.7 12.2,4.5 11.8,4.5 C11.4,4.5 11,4.7 10.7,5 Z" id="Shape"></path>
                <path d="M22,3.3 C22.5,3.8 22.9,4.4 23,5.1 L21,5.1 C20.9,4.8 20.8,4.6 20.6,4.4 C20.4,4.2 20.1,4.1 19.8,4.1 C19.5,4.1 19.4,4.2 19.2,4.3 C19.1,4.4 19,4.6 19,4.8 C19,5 19.1,5.2 19.4,5.3 C19.6,5.4 20,5.5 20.5,5.6 C21.1,5.7 21.5,5.9 21.9,6 C22.3,6.1 22.6,6.4 22.8,6.7 C23.1,7 23.2,7.4 23.2,7.9 C23.2,8.3 23.1,8.7 22.9,9 C22.7,9.3 22.4,9.6 21.9,9.8 C21.5,10 21,10.1 20.4,10.1 C19.4,10.1 18.6,9.9 18.1,9.5 C17.5,9.1 17.2,8.5 17,7.6 L19.1,7.6 C19.1,7.9 19.3,8.1 19.5,8.3 C19.7,8.5 20,8.5 20.4,8.5 C20.7,8.5 20.8,8.4 21,8.3 C21.1,8.2 21.2,8 21.2,7.8 C21.2,7.6 21.1,7.4 20.8,7.3 C20.6,7.2 20.2,7.1 19.6,7 C19.1,6.9 18.6,6.8 18.3,6.6 C18,6.5 17.7,6.3 17.4,6 C17.1,5.7 17,5.3 17,4.8 C17,4.2 17.2,3.6 17.7,3.2 C18.2,2.8 18.9,2.6 19.8,2.6 C20.8,2.6 21.5,2.8 22,3.3 Z" id="Shape"></path>
                <path d="M31.2,6.7 L26.2,6.7 C26.2,7.2 26.4,7.6 26.6,7.9 C26.9,8.1 27.2,8.3 27.6,8.3 C27.9,8.3 28.2,8.2 28.4,8.1 C28.6,8 28.8,7.7 28.8,7.5 L31.1,7.5 C31,8 30.8,8.5 30.5,8.9 C30.2,9.3 29.8,9.6 29.3,9.8 C28.8,10 28.3,10.1 27.7,10.1 C27,10.1 26.4,10 25.8,9.7 C25.3,9.4 24.8,9 24.5,8.4 C24.2,7.8 24,7 24,6.3 C24,5.5 24.2,4.9 24.5,4.3 C24.8,3.7 25.2,3.3 25.8,3 C26.4,2.7 27,2.6 27.7,2.6 C28.4,2.6 29,2.7 29.6,3 C30.2,3.3 30.6,3.7 30.9,4.2 C31.2,4.7 31.3,5.3 31.3,6 C31.3,6.3 31.2,6.5 31.2,6.7 Z M28.6,4.7 C28.3,4.5 28,4.3 27.6,4.3 C27.2,4.3 26.9,4.4 26.6,4.7 C26.3,5 26.2,5.3 26.1,5.8 L29,5.8 C29,5.3 28.9,4.9 28.6,4.7 Z" id="Shape"></path>
                <path d="M38,3.4 C38.6,3.9 39,4.6 39.2,5.5 L36.9,5.5 C36.8,5.2 36.7,4.9 36.5,4.8 C36.3,4.6 36,4.5 35.7,4.5 C35.3,4.5 35,4.7 34.7,5 C34.4,5.3 34.3,5.8 34.3,6.3 C34.3,6.9 34.4,7.3 34.7,7.6 C35,7.9 35.3,8.1 35.7,8.1 C36,8.1 36.3,8 36.5,7.8 C36.7,7.6 36.9,7.4 36.9,7.1 L39.2,7.1 C39,8 38.6,8.7 38,9.2 C37.4,9.7 36.6,10 35.7,10 C35,10 34.4,9.9 33.8,9.6 C33.3,9.3 32.8,8.9 32.5,8.3 C32.2,7.7 32,7 32,6.3 C32,5.5 32.2,4.9 32.5,4.3 C32.8,3.7 33.2,3.3 33.8,3 C34.4,2.7 35,2.6 35.7,2.6 C36.6,2.6 37.4,2.8 38,3.4 Z" id="Shape"></path>
                <path d="M44.5,3 C44.9,3.3 45.2,3.6 45.4,4 L45.4,2.7 L47.6,2.7 L47.6,9.9 L45.4,9.9 L45.4,8.6 C45.2,9 44.9,9.4 44.5,9.6 C44.1,9.9 43.6,10 43.1,10 C42.5,10 42,9.9 41.5,9.6 C41,9.3 40.7,8.9 40.4,8.3 C40.1,7.7 40,7 40,6.3 C40,5.5 40.1,4.9 40.4,4.3 C40.7,3.7 41,3.3 41.5,3 C42,2.7 42.5,2.6 43.1,2.6 C43.7,2.6 44.1,2.7 44.5,3 Z M42.7,5 C42.4,5.3 42.3,5.7 42.3,6.3 C42.3,6.9 42.4,7.3 42.7,7.6 C43,7.9 43.4,8.1 43.8,8.1 C44.3,8.1 44.6,7.9 44.9,7.6 C45.2,7.3 45.3,6.9 45.3,6.3 C45.3,5.8 45.2,5.3 44.9,5 C44.6,4.7 44.2,4.5 43.8,4.5 C43.4,4.5 43,4.7 42.7,5 Z" id="Shape"></path>
                <path d="M60.6,3.4 C61.1,3.9 61.4,4.7 61.4,5.7 L61.4,9.9 L59.2,9.9 L59.2,6 C59.2,5.5 59.1,5.2 58.8,4.9 C58.6,4.6 58.2,4.5 57.8,4.5 C57.4,4.5 57,4.6 56.8,4.9 C56.6,5.2 56.4,5.6 56.4,6 L56.4,9.8 L54.2,9.8 L54.2,6 C54.2,5.5 54.1,5.2 53.8,4.9 C53.6,4.6 53.2,4.5 52.8,4.5 C52.4,4.5 52,4.6 51.8,4.9 C51.6,5.2 51.4,5.6 51.4,6.1 L51.4,9.9 L49.2,9.9 L49.2,2.7 L51.4,2.7 L51.4,3.9 C51.6,3.5 51.9,3.2 52.3,2.9 C52.7,2.7 53.2,2.6 53.7,2.6 C54.3,2.6 54.7,2.7 55.2,3 C55.7,3.3 55.9,3.6 56.2,4.1 C56.4,3.7 56.8,3.3 57.2,3 C57.6,2.7 58.1,2.6 58.6,2.6 C59.4,2.6 60.1,2.9 60.6,3.4 Z" id="Shape"></path>
                <path d="M69,3 C69.5,3.3 69.8,3.7 70.1,4.3 C70.4,4.9 70.5,5.5 70.5,6.3 C70.5,7.1 70.4,7.7 70.1,8.3 C69.8,8.9 69.5,9.3 69,9.6 C68.5,9.9 68,10 67.4,10 C66.8,10 66.4,9.9 66,9.6 C65.6,9.4 65.3,9 65.1,8.6 L65.1,13.4 L62.9,13.4 L62.9,2.7 L65.1,2.7 L65.1,4 C65.3,3.6 65.6,3.2 66,3 C66.4,2.7 66.9,2.6 67.4,2.6 C68,2.6 68.5,2.7 69,3 Z M65.5,5 C65.2,5.3 65.1,5.7 65.1,6.3 C65.1,6.8 65.2,7.3 65.5,7.6 C65.8,7.9 66.2,8.1 66.6,8.1 C67.1,8.1 67.5,7.9 67.7,7.6 C68,7.3 68.1,6.9 68.1,6.3 C68.1,5.7 68,5.3 67.7,5 C67.4,4.7 67,4.5 66.6,4.5 C66.2,4.5 65.8,4.7 65.5,5 Z" id="Shape"></path>
                <path d="M73.8,0.7 L73.8,6 C73.8,6.6 73.9,7.1 74.2,7.4 C74.5,7.7 74.9,7.9 75.4,7.9 C75.9,7.9 76.3,7.7 76.6,7.4 C76.9,7.1 77,6.6 77,6 L77,0.7 L79.2,0.7 L79.2,6 C79.2,6.9 79,7.6 78.7,8.2 C78.4,8.8 77.9,9.2 77.3,9.5 C76.7,9.8 76.1,9.9 75.3,9.9 C74.5,9.9 73.9,9.8 73.4,9.5 C72.8,9.2 72.4,8.8 72.1,8.2 C71.8,7.6 71.6,6.9 71.6,6 L71.6,0.7 L73.8,0.7 Z" id="Shape"></path>
                <polygon id="Shape" points="82.9 0.7 82.9 9.9 80.7 9.9 80.7 0.7"></polygon>
            </g>
            <g id="Group">
                <polygon id="Shape" points="0.9 9.2 4.3 8.1 10.2 0 16.6 6.3 19.5 13.5 12.3 20.5 10.2 25.5 2.6 17 0 13.5"></polygon>
                <polygon id="Shape" fill="#523CBB" fill-rule="nonzero" points="10.2 0.2 10.2 7.4 16.5 6.3"></polygon>
                <polygon id="Shape" fill="#8169F4" fill-rule="nonzero" points="10.2 0.2 10.2 7.4 4.5 8.1"></polygon>
                <polygon id="Shape" fill="#9A89ED" fill-rule="nonzero" points="1 9.3 4.5 14.2 4.5 8.1"></polygon>
                <polygon id="Shape" fill="#9380EE" fill-rule="nonzero" points="10.2 7.3 4.5 14.2 6.1 14.8 16.2 14"></polygon>
                <polygon id="Shape" fill="#6148D9" fill-rule="nonzero" points="10.2 7.4 16.5 6.4 17.8 13.4 16.2 14"></polygon>
                <polygon id="Shape" fill="#4F3BB0" fill-rule="nonzero" points="19.3 13.3 17.7 13.3 16.4 6.3"></polygon>
                <polygon id="Shape" fill="#664EDD" fill-rule="nonzero" points="4.5 14.3 0.2 13.5 1.1 9.3"></polygon>
                <polygon id="Shape" fill="#5B42D6" fill-rule="nonzero" points="4.5 14.3 10.2 7.4 4.5 8.1"></polygon>
                <polygon id="Shape" fill="#513ABB" fill-rule="nonzero" points="6.2 14.9 10.3 25.3 2.8 17.3 0.2 13.6 4.6 14.4"></polygon>
                <polygon id="Shape" fill="#4633A3" fill-rule="nonzero" points="10.1 25.2 12 20.4 16 13.9 8.6 20.9"></polygon>
                <polygon id="Shape" fill="#3B2C86" fill-rule="nonzero" points="12 20.4 15.8 13.9 17.7 13.3 19.2 13.3"></polygon>
                <polygon id="Shape" fill="#5C3DF1" fill-rule="nonzero" points="8.5 21 15.9 14.1 6.2 14.9"></polygon>
                <polygon id="Shape" fill="#BEB2F9" fill-rule="nonzero" points="1 9.3 4.5 6.5 10.2 0.2 4.5 8.1"></polygon>
                <polygon id="Shape" fill="#6C50F3" fill-rule="nonzero" points="6.2 14.9 15.8 14.1 16.2 13.9 10.3 7.3"></polygon>
                <polygon id="Shape" fill="#E6E4FF" fill-rule="nonzero" points="7 3.8 10.2 0.2 10.3 0.2 12 2 11 2.5 10.1 2.5 8.6 3.5 7 4.7 6.3 5.6 5.4 6.3 4.5 7.7 5 6.8 4.7 6.9 4.9 6.1 5.6 5.4"></polygon>
                <polygon id="Shape" fill="#A8A6C9" fill-rule="nonzero" points="7.1 4.7 8.2 2.4 10.2 0.2 10.2 0.5 10.3 2.4 8.8 3.4 8.3 4.7"></polygon>
                <polygon id="Shape" fill="#F6F6FF" fill-rule="nonzero" points="8.8 3.5 9 1.5 10.1 0.2 10.2 0.2 10.3 2.4 10.2 2.5 9.6 4 9.4 3.9"></polygon>
                <polygon id="Shape" fill="url(#linearGradient-1)" fill-rule="nonzero" points="2.9 17.3 0.2 13.5 4.5 14.3 6.1 14.9 15.7 14.3 16 13.9 17.7 13.4 19.3 13.4 15.6 17 12 20.4 10.2 25"></polygon>
            </g>
        </g>
    </g>
</svg>