<svg 
 xmlns="http://www.w3.org/2000/svg"
 xmlns:xlink="http://www.w3.org/1999/xlink"
 width="55px" height="55px">
<path fill-rule="evenodd"  fill="rgb(171, 118, 54)"
 d="M54.847,26.802 L47.973,11.333 C47.698,10.713 47.082,10.312 46.403,10.312 L43.001,10.312 C42.998,10.312 42.995,10.313 42.992,10.312 L32.338,10.312 C31.819,8.856 30.674,7.711 29.218,7.192 L29.218,1.719 C29.218,0.770 28.449,-0.000 27.500,-0.000 C26.550,-0.000 25.781,0.770 25.781,1.719 L25.781,7.192 C24.325,7.711 23.180,8.856 22.661,10.312 L12.010,10.312 C12.004,10.313 11.999,10.312 11.994,10.312 L8.596,10.312 C7.917,10.312 7.301,10.713 7.026,11.333 L0.152,26.802 C-0.005,27.151 -0.040,27.538 0.054,27.917 L1.773,34.792 C1.964,35.557 2.652,36.094 3.440,36.094 L17.188,36.094 C17.977,36.094 18.664,35.557 18.856,34.792 L20.574,27.917 C20.667,27.545 20.627,27.146 20.477,26.802 L14.677,13.750 L22.661,13.750 C23.180,15.206 24.325,16.352 25.781,16.871 L25.781,45.695 L19.410,52.066 C18.919,52.558 18.772,53.296 19.038,53.939 C19.304,54.581 19.931,55.000 20.625,55.000 L34.374,55.000 C35.068,55.000 35.695,54.581 35.961,53.939 C36.227,53.296 36.080,52.558 35.589,52.066 L29.218,45.695 L29.218,16.871 C30.674,16.352 31.819,15.206 32.338,13.750 L40.322,13.750 L34.522,26.802 C34.371,27.146 34.332,27.544 34.425,27.917 L36.143,34.792 C36.335,35.557 37.022,36.094 37.811,36.094 L51.559,36.094 C52.348,36.094 53.035,35.557 53.226,34.792 L54.945,27.917 C55.039,27.541 55.002,27.149 54.848,26.802 L54.847,26.802 ZM15.847,32.656 L4.782,32.656 L3.923,29.219 L16.706,29.219 L15.847,32.656 ZM16.263,25.781 L4.366,25.781 L9.713,13.750 L10.916,13.750 L16.263,25.781 ZM30.225,51.563 L24.774,51.563 L27.500,48.837 L30.225,51.563 ZM27.500,13.750 C26.552,13.750 25.781,12.979 25.781,12.031 C25.781,11.084 26.552,10.312 27.500,10.312 C28.447,10.312 29.218,11.084 29.218,12.031 C29.218,12.979 28.447,13.750 27.500,13.750 ZM44.083,13.750 L45.286,13.750 L50.633,25.781 L38.736,25.781 L44.083,13.750 ZM50.217,32.656 L39.153,32.656 L38.293,29.219 L51.076,29.219 L50.217,32.656 Z"/>
</svg>