<svg 
 xmlns="http://www.w3.org/2000/svg"
 xmlns:xlink="http://www.w3.org/1999/xlink"
 width="59px" height="55px">
<path fill-rule="evenodd"  fill="rgb(171, 118, 54)"
 d="M54.704,29.951 C51.935,32.770 48.251,34.323 44.334,34.323 C40.417,34.323 36.734,32.770 33.964,29.951 C30.289,26.213 28.858,20.697 30.163,15.612 L26.127,11.504 C25.405,10.770 25.405,9.581 26.127,8.846 L33.964,0.871 C34.686,0.137 35.854,0.137 36.576,0.871 L40.612,4.978 C45.608,3.648 51.030,5.108 54.704,8.846 C57.474,11.665 59.000,15.412 59.000,19.399 C59.000,23.385 57.475,27.132 54.704,29.951 ZM52.092,11.504 C49.090,8.450 44.727,7.445 40.700,8.878 C40.032,9.118 39.287,8.944 38.783,8.433 L35.270,4.858 L30.045,10.175 L33.558,13.750 C34.060,14.261 34.230,15.020 33.995,15.701 C32.585,19.796 33.573,24.238 36.576,27.293 C38.649,29.401 41.403,30.563 44.334,30.563 C47.264,30.563 50.019,29.402 52.092,27.293 C54.165,25.184 55.306,22.381 55.306,19.399 C55.306,16.416 54.164,13.613 52.092,11.504 ZM50.786,25.964 C48.985,27.796 46.620,28.713 44.256,28.713 C41.889,28.713 39.525,27.796 37.724,25.964 C34.123,22.300 34.123,16.337 37.724,12.673 C41.325,9.010 47.185,9.010 50.786,12.673 C54.387,16.337 54.387,22.300 50.786,25.964 ZM48.174,15.331 C47.093,14.231 45.674,13.682 44.255,13.682 C42.836,13.682 41.417,14.231 40.336,15.331 C38.176,17.530 38.176,21.107 40.336,23.306 C42.497,25.503 46.012,25.505 48.174,23.306 C50.334,21.107 50.334,17.530 48.174,15.331 ZM27.578,4.491 C27.282,4.491 27.005,4.416 26.747,4.285 L26.728,4.285 C25.824,3.815 25.454,2.687 25.916,1.747 C26.377,0.825 27.486,0.450 28.409,0.920 C29.314,1.390 29.684,2.517 29.222,3.457 C28.889,4.096 28.243,4.491 27.578,4.491 ZM14.666,55.000 C6.579,55.000 -0.000,48.305 -0.000,40.076 C-0.000,34.788 2.821,29.858 7.277,27.200 L7.277,21.392 C7.277,20.354 8.104,19.512 9.124,19.512 L12.819,19.512 C12.819,19.512 12.819,19.511 12.819,19.510 C12.819,19.021 13.022,18.532 13.355,18.175 C14.037,17.480 15.275,17.480 15.978,18.175 C16.309,18.532 16.513,19.021 16.513,19.510 C16.513,19.511 16.513,19.512 16.513,19.512 L20.208,19.512 C21.228,19.512 22.055,20.354 22.055,21.392 L22.055,27.200 C26.511,29.858 29.332,34.788 29.332,40.076 C29.332,48.305 22.753,55.000 14.666,55.000 ZM19.407,30.022 C18.767,29.708 18.361,29.050 18.361,28.327 L18.361,23.272 L10.972,23.272 L10.972,28.327 C10.972,29.050 10.565,29.708 9.925,30.022 C6.082,31.903 3.694,35.756 3.694,40.076 C3.694,46.232 8.617,51.240 14.666,51.240 C20.716,51.240 25.638,46.232 25.638,40.076 C25.638,35.756 23.250,31.903 19.407,30.022 ZM14.666,49.361 C9.574,49.361 5.430,45.144 5.430,39.962 C5.430,34.780 9.574,30.563 14.666,30.563 C19.759,30.563 23.902,34.780 23.902,39.962 C23.902,45.144 19.759,49.361 14.666,49.361 ZM14.666,34.323 C11.610,34.323 9.124,36.852 9.124,39.962 C9.124,43.072 11.610,45.601 14.666,45.601 C17.722,45.601 20.208,43.072 20.208,39.962 C20.208,36.852 17.722,34.323 14.666,34.323 ZM22.757,3.702 C22.646,3.720 22.535,3.739 22.424,3.739 C21.537,3.739 20.762,3.100 20.614,2.197 C20.429,1.164 21.094,0.186 22.092,-0.002 C23.108,-0.171 24.068,0.506 24.234,1.521 C24.419,2.536 23.754,3.514 22.757,3.702 ZM17.714,6.014 C17.196,6.014 16.679,5.806 16.329,5.393 C15.645,4.622 15.719,3.420 16.476,2.743 C17.233,2.047 18.398,2.122 19.080,2.893 C19.764,3.664 19.690,4.866 18.933,5.544 C18.582,5.863 18.139,6.014 17.714,6.014 ZM14.703,12.236 C15.719,12.254 16.531,13.119 16.513,14.153 C16.494,15.187 15.664,15.995 14.666,15.995 C14.647,15.995 14.647,15.995 14.629,15.995 C13.613,15.976 12.800,15.131 12.819,14.078 C12.837,13.044 13.668,12.217 14.703,12.236 ZM16.975,9.190 C16.771,10.055 16.015,10.638 15.183,10.638 C15.035,10.638 14.887,10.638 14.758,10.600 C13.760,10.356 13.151,9.359 13.373,8.344 C13.595,7.329 14.592,6.709 15.590,6.934 C16.587,7.160 17.196,8.175 16.975,9.190 Z"/>
</svg>