<svg 
 xmlns="http://www.w3.org/2000/svg"
 xmlns:xlink="http://www.w3.org/1999/xlink"
 width="55px" height="55px">
<path fill-rule="evenodd"  fill="rgb(171, 118, 54)"
 d="M53.281,37.796 L46.406,37.796 L46.406,53.259 C46.406,53.910 46.039,54.505 45.456,54.796 C45.213,54.918 44.949,54.978 44.688,54.978 C44.322,54.978 43.960,54.861 43.656,54.634 L37.812,50.253 L31.969,54.634 C31.447,55.024 30.751,55.088 30.169,54.796 C29.586,54.505 29.219,53.911 29.219,53.259 L29.219,37.796 L1.719,37.796 C0.773,37.796 -0.000,37.023 -0.000,36.077 L-0.000,1.714 C-0.000,0.765 0.769,-0.005 1.719,-0.005 L53.281,-0.005 C54.227,-0.005 55.000,0.769 55.000,1.714 L55.000,36.078 C55.000,37.023 54.227,37.796 53.281,37.796 ZM32.656,49.823 L36.781,46.731 C37.087,46.502 37.450,46.387 37.812,46.387 C38.175,46.387 38.538,46.502 38.844,46.731 L42.969,49.823 L42.969,39.822 C42.848,39.822 42.730,39.839 42.607,39.812 L40.537,39.367 L38.965,40.788 C38.638,41.084 38.225,41.232 37.812,41.232 C37.400,41.232 36.987,41.084 36.659,40.788 L35.088,39.367 L33.018,39.812 C32.895,39.839 32.777,39.822 32.656,39.822 L32.656,49.823 ZM30.786,30.275 C31.157,30.685 31.308,31.248 31.191,31.788 L30.888,33.200 L32.263,33.643 C32.789,33.813 33.202,34.225 33.371,34.751 L33.814,36.126 L35.226,35.822 C35.346,35.796 35.467,35.784 35.588,35.784 C36.010,35.784 36.422,35.939 36.741,36.227 L37.812,37.196 L38.883,36.228 C39.292,35.856 39.856,35.703 40.398,35.823 L41.810,36.126 L42.254,34.751 C42.423,34.225 42.836,33.813 43.362,33.644 L44.737,33.201 L44.434,31.789 C44.318,31.248 44.469,30.685 44.840,30.275 L45.808,29.205 L44.840,28.134 C44.469,27.724 44.318,27.161 44.434,26.621 L44.737,25.209 L43.362,24.766 C42.836,24.596 42.423,24.184 42.254,23.658 L41.810,22.283 L40.397,22.586 C39.861,22.703 39.293,22.552 38.884,22.181 L37.813,21.212 L36.741,22.181 C36.330,22.552 35.766,22.704 35.227,22.586 L33.815,22.283 L33.371,23.658 C33.202,24.184 32.789,24.596 32.263,24.766 L30.888,25.209 L31.191,26.621 C31.308,27.161 31.157,27.724 30.786,28.134 L29.817,29.204 L30.786,30.275 ZM51.562,3.432 L3.438,3.432 L3.438,34.359 L27.192,34.359 C27.192,34.239 27.175,34.120 27.201,33.998 L27.645,31.928 L26.225,30.357 C25.633,29.703 25.633,28.706 26.225,28.052 L27.645,26.481 L27.201,24.411 C27.016,23.548 27.514,22.685 28.354,22.415 L30.370,21.765 L31.021,19.749 C31.292,18.910 32.157,18.414 33.017,18.597 L35.088,19.041 L36.659,17.621 C37.314,17.029 38.311,17.029 38.966,17.621 L40.537,19.041 L42.608,18.597 C43.470,18.412 44.334,18.910 44.604,19.749 L45.255,21.765 L47.271,22.415 C48.111,22.685 48.609,23.548 48.424,24.411 L47.980,26.481 L49.400,28.052 C49.991,28.706 49.991,29.703 49.400,30.357 L47.980,31.928 L48.424,33.998 C48.450,34.120 48.433,34.239 48.433,34.359 L51.562,34.359 L51.562,3.432 ZM44.688,12.023 L44.688,12.024 L10.312,12.024 L10.312,12.023 C9.364,12.023 8.594,11.254 8.594,10.305 C8.594,9.357 9.364,8.586 10.312,8.586 C10.314,8.586 10.315,8.587 10.317,8.587 L44.683,8.587 C44.685,8.587 44.686,8.586 44.688,8.586 C45.638,8.586 46.406,9.357 46.406,10.305 C46.406,11.254 45.638,12.023 44.688,12.023 ZM10.312,15.460 L27.500,15.460 C28.450,15.460 29.219,16.229 29.219,17.178 C29.219,18.127 28.450,18.896 27.500,18.896 L10.312,18.896 C9.364,18.896 8.594,18.127 8.594,17.178 C8.594,16.229 9.364,15.460 10.312,15.460 ZM10.312,22.333 L20.625,22.333 C21.575,22.333 22.344,23.102 22.344,24.051 C22.344,25.000 21.575,25.769 20.625,25.769 L10.312,25.769 C9.364,25.769 8.594,25.000 8.594,24.051 C8.594,23.102 9.364,22.333 10.312,22.333 ZM37.812,25.768 C39.708,25.768 41.250,27.309 41.250,29.205 C41.250,31.100 39.708,32.641 37.812,32.641 C35.917,32.641 34.375,31.100 34.375,29.205 C34.375,27.309 35.917,25.768 37.812,25.768 Z"/>
</svg>