<svg 
 xmlns="http://www.w3.org/2000/svg"
 xmlns:xlink="http://www.w3.org/1999/xlink"
 width="45px" height="55px">
<path fill-rule="evenodd"  fill="rgb(171, 118, 54)"
 d="M43.269,54.995 L8.654,54.995 C3.882,54.995 -0.000,51.139 -0.000,46.400 L-0.000,8.585 C-0.000,3.845 3.882,-0.010 8.654,-0.010 L43.269,-0.010 C44.226,-0.010 45.000,0.760 45.000,1.708 L45.000,53.275 C45.000,54.225 44.226,54.995 43.269,54.995 ZM8.654,51.557 L8.654,41.244 C5.791,41.244 3.462,43.557 3.462,46.400 C3.462,49.244 5.791,51.557 8.654,51.557 ZM41.539,3.428 L8.654,3.428 C5.791,3.428 3.462,5.741 3.462,8.585 L3.462,39.529 C4.908,38.447 6.707,37.806 8.654,37.806 L41.539,37.806 L41.539,3.428 ZM41.539,41.244 L12.116,41.244 L12.116,51.557 L41.539,51.557 L41.539,41.244 ZM25.962,8.585 L29.423,8.585 C30.380,8.585 31.154,9.354 31.154,10.303 C31.154,11.252 30.380,12.022 29.423,12.022 L25.962,12.022 C25.007,12.022 24.231,12.793 24.231,13.741 C24.231,14.689 25.007,15.460 25.962,15.460 C28.825,15.460 31.154,17.773 31.154,20.616 C31.154,21.942 30.634,23.140 29.804,24.054 C30.634,24.969 31.154,26.167 31.154,27.492 C31.154,30.336 28.825,32.649 25.962,32.649 L22.500,32.649 C21.543,32.649 20.769,31.879 20.769,30.930 C20.769,29.981 21.543,29.211 22.500,29.211 L25.962,29.211 C26.916,29.211 27.692,28.439 27.692,27.492 C27.692,26.544 26.916,25.773 25.962,25.773 C23.098,25.773 20.769,23.460 20.769,20.616 C20.769,19.291 21.289,18.093 22.120,17.178 C21.289,16.265 20.769,15.067 20.769,13.741 C20.769,10.898 23.098,8.585 25.962,8.585 ZM25.962,22.335 C26.916,22.335 27.692,21.564 27.692,20.616 C27.692,19.669 26.916,18.898 25.962,18.898 C25.007,18.898 24.231,19.669 24.231,20.616 C24.231,21.564 25.007,22.335 25.962,22.335 Z"/>
</svg>