<svg 
 xmlns="http://www.w3.org/2000/svg"
 xmlns:xlink="http://www.w3.org/1999/xlink"
 width="55px" height="55px">
<path fill-rule="evenodd"  fill="rgb(171, 118, 54)"
 d="M51.067,42.963 L51.547,42.963 C52.496,42.963 53.265,43.733 53.265,44.682 L53.265,46.402 C54.214,46.402 54.983,47.172 54.983,48.121 L54.983,53.280 C54.983,54.229 54.214,54.999 53.265,54.999 L1.724,54.999 C0.776,54.999 0.006,54.229 0.006,53.280 L0.006,48.121 C0.006,47.172 0.776,46.402 1.724,46.402 L1.724,44.682 C1.724,43.733 2.494,42.963 3.442,42.963 L3.922,42.963 L5.160,39.245 L5.160,20.610 L1.724,20.610 C0.968,20.610 0.299,20.114 0.080,19.389 C-0.140,18.664 0.141,17.881 0.771,17.460 L26.542,0.266 C27.119,-0.119 27.870,-0.119 28.448,0.266 L54.218,17.460 C54.848,17.881 55.129,18.664 54.909,19.389 C54.690,20.114 54.021,20.610 53.265,20.610 L49.829,20.610 L49.829,39.245 L51.067,42.963 ZM27.495,3.763 L7.398,17.172 L47.591,17.172 L27.495,3.763 ZM8.508,40.068 L7.544,42.963 L10.314,42.963 L13.085,42.963 L12.120,40.068 C12.062,39.893 12.032,39.709 12.032,39.524 L12.032,20.610 L8.596,20.610 L8.596,39.524 C8.596,39.709 8.567,39.893 8.508,40.068 ZM21.102,42.963 L22.341,39.245 L22.341,20.610 L15.469,20.610 L15.469,39.246 L16.707,42.963 L16.707,42.963 L21.102,42.963 ZM25.688,40.068 L24.724,42.963 L30.265,42.963 L29.301,40.068 C29.242,39.893 29.213,39.709 29.213,39.524 L29.213,20.610 L25.777,20.610 L25.777,39.524 C25.777,39.709 25.747,39.893 25.688,40.068 ZM32.649,20.610 L32.649,39.245 L33.887,42.963 L38.282,42.963 L39.521,39.245 L39.521,20.610 L32.649,20.610 ZM42.869,40.068 L41.904,42.963 L44.675,42.963 L47.446,42.963 L46.481,40.068 C46.422,39.893 46.393,39.709 46.393,39.524 L46.393,20.610 L42.957,20.610 L42.957,39.524 C42.957,39.709 42.927,39.893 42.869,40.068 ZM44.675,46.402 L39.521,46.402 L32.649,46.402 L22.340,46.402 L15.469,46.402 L10.315,46.402 L5.160,46.402 L5.160,48.122 C5.160,49.071 4.391,49.841 3.442,49.841 L3.442,51.560 L51.547,51.560 L51.547,49.841 C50.598,49.841 49.829,49.071 49.829,48.122 L49.829,46.402 L44.675,46.402 ZM27.495,9.434 C28.918,9.434 30.072,10.589 30.072,12.013 C30.072,13.437 28.918,14.592 27.495,14.592 C26.071,14.592 24.918,13.437 24.918,12.013 C24.918,10.589 26.071,9.434 27.495,9.434 Z"/>
</svg>