<svg width="149" height="34" viewBox="0 0 149 34" fill="none" xmlns="http://www.w3.org/2000/svg">
<path d="M13.916 24.464C13.916 27.016 12.64 28.864 9.956 28.864C7.272 28.864 6.04 27.016 5.996 24.464H0.936C0.936 30.008 4.676 33.308 9.956 33.308C15.236 33.308 18.976 30.008 18.976 24.464V2.42H13.916V24.464ZM25.4639 20.768C25.4639 28.248 30.5239 33.396 36.8159 33.396C40.8639 33.396 43.7679 31.46 45.3079 29.392V33H50.3679V8.756H45.3079V12.276C43.8119 10.296 40.9959 8.36 36.9039 8.36C30.5239 8.36 25.4639 13.288 25.4639 20.768ZM45.3079 20.856C45.3079 26.092 41.7439 29.04 37.9599 29.04C34.2199 29.04 30.6119 26.004 30.6119 20.768C30.6119 15.532 34.2199 12.716 37.9599 12.716C41.7439 12.716 45.3079 15.664 45.3079 20.856ZM55.2843 20.768C55.2843 28.248 60.3443 33.396 66.7243 33.396C70.6843 33.396 73.5883 31.548 75.1283 29.348V33H80.1883V0.44H75.1283V12.144C73.2803 9.856 69.9363 8.36 66.7683 8.36C60.3443 8.36 55.2843 13.288 55.2843 20.768ZM75.1283 20.856C75.1283 26.092 71.5643 29.04 67.7803 29.04C64.0403 29.04 60.4323 26.004 60.4323 20.768C60.4323 15.532 64.0403 12.716 67.7803 12.716C71.5643 12.716 75.1283 15.664 75.1283 20.856ZM109.877 20.856C109.877 13.244 104.421 8.36 97.5126 8.36C90.6046 8.36 85.1486 13.244 85.1486 20.856C85.1486 28.468 90.3846 33.396 97.2926 33.396C104.245 33.396 109.877 28.468 109.877 20.856ZM90.2526 20.856C90.2526 15.356 93.6406 12.716 97.4246 12.716C101.165 12.716 104.729 15.356 104.729 20.856C104.729 26.356 101.033 29.04 97.2926 29.04C93.5086 29.04 90.2526 26.356 90.2526 20.856ZM137.935 20.856C137.935 13.244 132.479 8.36 125.571 8.36C118.663 8.36 113.207 13.244 113.207 20.856C113.207 28.468 118.443 33.396 125.351 33.396C132.303 33.396 137.935 28.468 137.935 20.856ZM118.311 20.856C118.311 15.356 121.699 12.716 125.483 12.716C129.223 12.716 132.787 15.356 132.787 20.856C132.787 26.356 129.091 29.04 125.351 29.04C121.567 29.04 118.311 26.356 118.311 20.856ZM148.086 30.096C148.086 28.292 146.678 26.884 144.918 26.884C143.114 26.884 141.706 28.292 141.706 30.096C141.706 31.9 143.114 33.308 144.918 33.308C146.678 33.308 148.086 31.9 148.086 30.096Z" fill="#181E4B"/>
</svg>
