<svg width="116" height="35" viewBox="0 0 116 35" fill="none" xmlns="http://www.w3.org/2000/svg">
<path d="M75 29L84.5 32L92.5 24L102.5 31L113 29L108.5 14.5L92.5 19.5L83.5 14.5L74 16L75 29Z" fill="#F1A501"/>
<path d="M0.920044 24.064V21.902L7.03804 20.798V23.788C7.06871 25.4133 7.48271 26.64 8.28004 27.468C9.10804 28.2653 10.1967 28.664 11.546 28.664C12.8647 28.664 13.9074 28.2347 14.674 27.376C15.4714 26.5173 15.87 25.3673 15.87 23.926V1.38598H22.218V23.926C22.218 26.9313 21.2214 29.4767 19.228 31.562C17.2347 33.6473 14.6894 34.69 11.592 34.69C8.37204 34.69 5.78071 33.724 3.81804 31.792C1.88604 29.8293 0.920044 27.2533 0.920044 24.064Z" fill="black"/>
<path d="M23.6767 27.836C23.6767 25.904 24.3054 24.3553 25.5627 23.19C26.8201 22.0247 28.4454 21.2887 30.4387 20.982L36.0047 20.154C37.1394 20.0007 37.7067 19.464 37.7067 18.544C37.7067 17.6853 37.3694 16.98 36.6947 16.428C36.0507 15.876 35.1154 15.6 33.8887 15.6C32.6007 15.6 31.5734 15.9527 30.8067 16.658C30.0707 17.3633 29.6567 18.2373 29.5647 19.28L24.1367 18.13C24.3514 16.1673 25.3174 14.4347 27.0347 12.932C28.7521 11.4293 31.0214 10.678 33.8427 10.678C37.2161 10.678 39.7001 11.4907 41.2947 13.116C42.8894 14.7107 43.6867 16.7653 43.6867 19.28V30.412C43.6867 31.7613 43.7787 32.9573 43.9627 34H38.3507C38.1974 33.3253 38.1207 32.4207 38.1207 31.286C36.6794 33.5247 34.4561 34.644 31.4507 34.644C29.1201 34.644 27.2341 33.9693 25.7927 32.62C24.3821 31.2707 23.6767 29.676 23.6767 27.836ZM32.7387 30.09C34.1801 30.09 35.3607 29.6913 36.2807 28.894C37.2314 28.066 37.7067 26.7167 37.7067 24.846V23.834L32.6007 24.616C30.7301 24.892 29.7947 25.8427 29.7947 27.468C29.7947 28.204 30.0554 28.8327 30.5767 29.354C31.0981 29.8447 31.8187 30.09 32.7387 30.09Z" fill="black"/>
<path d="M67.6578 0.695984V29.906C67.6578 31.4087 67.7191 32.7733 67.8418 34H61.9998C61.8464 33.2333 61.7698 32.3593 61.7698 31.378C61.2484 32.3287 60.4204 33.0953 59.2858 33.678C58.1818 34.2607 56.8938 34.552 55.4218 34.552C52.2018 34.552 49.5491 33.4327 47.4638 31.194C45.4091 28.9247 44.3818 26.0727 44.3818 22.638C44.3818 19.2953 45.3938 16.4893 47.4178 14.22C49.4724 11.9507 52.0791 10.816 55.2378 10.816C58.4884 10.816 60.6198 11.7513 61.6318 13.622V0.695984H67.6578ZM50.5458 22.638C50.5458 24.6313 51.0671 26.2107 52.1098 27.376C53.1524 28.5107 54.5018 29.078 56.1578 29.078C57.7831 29.078 59.1171 28.4953 60.1598 27.33C61.2024 26.1647 61.7238 24.5853 61.7238 22.592C61.7238 20.6293 61.2024 19.096 60.1598 17.992C59.1171 16.8573 57.7831 16.29 56.1578 16.29C54.5324 16.29 53.1831 16.8573 52.1098 17.992C51.0671 19.1267 50.5458 20.6753 50.5458 22.638Z" fill="black"/>
<path d="M76.6867 27.422C77.8214 28.5567 79.1861 29.124 80.7807 29.124C82.3754 29.124 83.7247 28.5567 84.8287 27.422C85.9634 26.2873 86.5307 24.708 86.5307 22.684C86.5307 20.66 85.9634 19.0807 84.8287 17.946C83.7247 16.8113 82.3754 16.244 80.7807 16.244C79.1861 16.244 77.8214 16.8113 76.6867 17.946C75.5827 19.0807 75.0307 20.66 75.0307 22.684C75.0307 24.708 75.5827 26.2873 76.6867 27.422ZM72.2707 14.082C74.54 11.8127 77.3767 10.678 80.7807 10.678C84.1847 10.678 87.0061 11.8127 89.2447 14.082C91.514 16.3513 92.6487 19.2187 92.6487 22.684C92.6487 26.1493 91.514 29.0167 89.2447 31.286C87.0061 33.5553 84.1847 34.69 80.7807 34.69C77.3767 34.69 74.54 33.5553 72.2707 31.286C70.032 29.0167 68.9127 26.1493 68.9127 22.684C68.9127 19.2187 70.032 16.3513 72.2707 14.082Z" fill="black"/>
<path d="M99.87 27.422C101.005 28.5567 102.369 29.124 103.964 29.124C105.559 29.124 106.908 28.5567 108.012 27.422C109.147 26.2873 109.714 24.708 109.714 22.684C109.714 20.66 109.147 19.0807 108.012 17.946C106.908 16.8113 105.559 16.244 103.964 16.244C102.369 16.244 101.005 16.8113 99.87 17.946C98.766 19.0807 98.214 20.66 98.214 22.684C98.214 24.708 98.766 26.2873 99.87 27.422ZM95.454 14.082C97.7233 11.8127 100.56 10.678 103.964 10.678C107.368 10.678 110.189 11.8127 112.428 14.082C114.697 16.3513 115.832 19.2187 115.832 22.684C115.832 26.1493 114.697 29.0167 112.428 31.286C110.189 33.5553 107.368 34.69 103.964 34.69C100.56 34.69 97.7233 33.5553 95.454 31.286C93.2153 29.0167 92.096 26.1493 92.096 22.684C92.096 19.2187 93.2153 16.3513 95.454 14.082Z" fill="black"/>
</svg>
