<svg id="services4" xmlns="http://www.w3.org/2000/svg" width="59.245" height="48.199" viewBox="0 0 59.245 48.199">
  <path id="Path_3" data-name="Path 3" d="M54.326,10.21h-.508a5.489,5.489,0,0,0-4.911-4.816A5.488,5.488,0,0,0,43.458.5H8.487A8.5,8.5,0,0,0,0,8.987v24.52a5.488,5.488,0,0,0,4.949,5.455,5.487,5.487,0,0,0,5.359,4.892A4.912,4.912,0,0,0,15.225,48.7h39.1a4.925,4.925,0,0,0,4.919-4.919V15.13a4.925,4.925,0,0,0-4.919-4.919Zm2.6,4.919V34.076l-5.034-3.8a3.863,3.863,0,0,0-4.629-.04L40.9,34.873,28.758,22.354a3.879,3.879,0,0,0-5.358-.208L12.62,31.657V15.13a2.608,2.608,0,0,1,2.6-2.6h39.1a2.608,2.608,0,0,1,2.6,2.6Zm0,28.65a2.608,2.608,0,0,1-2.6,2.6h-39.1a2.6,2.6,0,0,1-2.6-2.6V34.743L24.932,23.881a1.567,1.567,0,0,1,2.166.084l5.48,5.65h0L43.485,40.861a1.157,1.157,0,1,0,1.661-1.611l-2.618-2.7,6.1-4.446a1.561,1.561,0,0,1,1.871.016l6.428,4.856Zm-49.7-5.4V11.054a3.334,3.334,0,0,1,.018-.344A3.376,3.376,0,0,1,10.6,7.682H24.758a1.157,1.157,0,1,0,0-2.314H10.6a5.692,5.692,0,0,0-5.686,5.686v25.57a3.172,3.172,0,0,1-2.6-3.117V8.987A6.18,6.18,0,0,1,8.487,2.814H43.458a3.171,3.171,0,0,1,3.106,2.554H34.015a1.157,1.157,0,0,0,0,2.314H48.376a3.172,3.172,0,0,1,3.1,2.528H15.225a4.925,4.925,0,0,0-4.919,4.919V34.22h0V41.54a3.169,3.169,0,0,1-3.075-3.164Zm0,0" transform="translate(0.001 -0.5)" fill="#071112"/>
  <path id="Path_4" data-name="Path 4" d="M350.671,145.117a4.952,4.952,0,1,0,4.952,4.952A4.957,4.957,0,0,0,350.671,145.117Zm0,7.59a2.638,2.638,0,1,1,2.637-2.637A2.641,2.641,0,0,1,350.671,152.707Zm0,0" transform="translate(-305.715 -128.383)" fill="#071112"/>
  <path id="Path_5" data-name="Path 5" d="M244.049,44.173a1.189,1.189,0,0,0,.106.2,1.146,1.146,0,0,0,.144.176,1.211,1.211,0,0,0,.176.145,1.179,1.179,0,0,0,.2.106,1.16,1.16,0,0,0,.669.066,1.172,1.172,0,0,0,.415-.172,1.236,1.236,0,0,0,.176-.145,1.152,1.152,0,0,0,.145-.176,1.185,1.185,0,0,0,.106-.2,1.21,1.21,0,0,0,.066-.216,1.174,1.174,0,0,0,.022-.227,1.17,1.17,0,0,0-.194-.642,1.131,1.131,0,0,0-.145-.176,1.146,1.146,0,0,0-.176-.144,1.172,1.172,0,0,0-.415-.172,1.138,1.138,0,0,0-.452,0,1.153,1.153,0,0,0-.217.066,1.178,1.178,0,0,0-.2.106,1.137,1.137,0,0,0-.32.32,1.174,1.174,0,0,0-.2.642,1.173,1.173,0,0,0,.023.227A1.215,1.215,0,0,0,244.049,44.173Zm0,0" transform="translate(-215.731 -37.705)" fill="#071112"/>
</svg>
