<svg id="services3" xmlns="http://www.w3.org/2000/svg" width="54.432" height="48.199" viewBox="0 0 54.432 48.199">
  <g id="Group_2" data-name="Group 2" transform="translate(0 0)">
    <g id="Group_1" data-name="Group 1">
      <ellipse id="Ellipse_1" data-name="Ellipse 1" cx="3.74" cy="3.74" rx="3.74" ry="3.74" transform="translate(16.776 11.894)" fill="#071112"/>
      <path id="Path_6" data-name="Path 6" d="M51.212,53.4a11.516,11.516,0,0,0-6.44-3.064V31.323a7.478,7.478,0,0,0-2.129-5.194A7.257,7.257,0,0,0,37.448,24H7.323a7.478,7.478,0,0,0-5.194,2.129A7.257,7.257,0,0,0,0,31.323V62.331a7.478,7.478,0,0,0,2.129,5.194,7.257,7.257,0,0,0,5.194,2.129H36.461A10.989,10.989,0,0,0,51.212,53.4ZM2.753,31.323a4.611,4.611,0,0,1,4.571-4.571H37.448a4.611,4.611,0,0,1,4.571,4.571v16.2l-7.687-7.635a1.4,1.4,0,0,0-1.974,0L20.776,51.528l-7.843-7.895a1.4,1.4,0,0,0-1.974,0l-8.206,8.31Zm4.519,35.63V66.9a4.557,4.557,0,0,1-3.22-1.35,4.74,4.74,0,0,1-1.3-3.22V55.838L12,46.593l7.843,7.843a1.444,1.444,0,0,0,1.974,0L33.4,42.8l7.583,7.635-.467.156a4.824,4.824,0,0,0-.675.208c-.208.052-.416.156-.623.208a1.555,1.555,0,0,0-.416.208,4.828,4.828,0,0,0-.519.26l-.779.467c-.156.1-.26.156-.416.26-.1.052-.156.1-.26.156a6.266,6.266,0,0,0-1.247,1.091,10.987,10.987,0,0,0-3.22,7.791,11.418,11.418,0,0,0,.26,2.285c.052.208.1.364.156.571.156.519.312,1.039.519,1.558v.052a9.527,9.527,0,0,0,.675,1.247Zm41.915.052a8.216,8.216,0,0,1-11.478.1c-.208-.208-.416-.467-.623-.675-.156-.156-.312-.364-.467-.519a4.932,4.932,0,0,1-.519-.883c-.1-.208-.208-.364-.312-.571a4.388,4.388,0,0,1-.26-.883c-.052-.208-.156-.467-.208-.675a8.6,8.6,0,0,1-.156-1.662,8.337,8.337,0,0,1,2.389-5.817,8.118,8.118,0,0,1,5.817-2.389,8.337,8.337,0,0,1,5.817,2.389,8.03,8.03,0,0,1,2.389,5.817A8.307,8.307,0,0,1,49.186,67.005Z" transform="translate(0 -24)" fill="#071112"/>
      <path id="Path_7" data-name="Path 7" d="M298.144,268.971h-3.168V265.8a1.4,1.4,0,1,0-2.8,0v3.168H289a1.4,1.4,0,0,0,0,2.8h3.168v3.168a1.4,1.4,0,0,0,2.8,0v-3.168h3.168a1.4,1.4,0,0,0,0-2.8Z" transform="translate(-250.256 -233.185)" fill="#071112"/>
    </g>
  </g>
</svg>
