<svg id="services5" xmlns="http://www.w3.org/2000/svg" width="54.432" height="48.199" viewBox="0 0 54.432 48.199">
  <g id="Group_4" data-name="Group 4" transform="translate(0 0)">
    <g id="Group_3" data-name="Group 3">
      <ellipse id="Ellipse_2" data-name="Ellipse 2" cx="3.74" cy="3.74" rx="3.74" ry="3.74" transform="translate(16.776 11.894)" fill="#071112"/>
      <path id="Path_8" data-name="Path 8" d="M51.212,53.4a11.516,11.516,0,0,0-6.44-3.064V31.323a7.478,7.478,0,0,0-2.129-5.194A7.257,7.257,0,0,0,37.448,24H7.323a7.478,7.478,0,0,0-5.194,2.129A7.257,7.257,0,0,0,0,31.323V62.331a7.478,7.478,0,0,0,2.129,5.194,7.257,7.257,0,0,0,5.194,2.129H36.461A10.989,10.989,0,0,0,51.212,53.4ZM2.753,31.323A4.347,4.347,0,0,1,4.1,28.155a4.557,4.557,0,0,1,3.22-1.35H37.448a4.611,4.611,0,0,1,4.571,4.571v16.2l-7.687-7.687a1.4,1.4,0,0,0-1.974,0L20.776,51.528l-7.843-7.895a1.4,1.4,0,0,0-1.974,0l-8.206,8.31ZM7.271,67.005v-.1a4.557,4.557,0,0,1-3.22-1.35,4.74,4.74,0,0,1-1.3-3.22V55.89l9.193-9.245,7.843,7.843a1.444,1.444,0,0,0,1.974,0L33.345,42.854l7.583,7.635-.467.156a4.823,4.823,0,0,0-.675.208c-.208.052-.416.156-.623.208a1.555,1.555,0,0,0-.416.208,4.825,4.825,0,0,0-.519.26L37.448,52c-.156.1-.26.156-.416.26-.1.052-.156.1-.26.156A6.266,6.266,0,0,0,35.526,53.5a10.987,10.987,0,0,0-3.22,7.791,11.418,11.418,0,0,0,.26,2.285c.052.208.1.364.156.571.156.519.312,1.039.519,1.558v.052a9.526,9.526,0,0,0,.675,1.247Zm41.915,0a8.216,8.216,0,0,1-11.478.1c-.208-.208-.416-.467-.623-.675-.156-.156-.312-.364-.467-.519a4.932,4.932,0,0,1-.519-.883c-.1-.208-.208-.364-.312-.571a4.388,4.388,0,0,1-.26-.883c-.052-.208-.156-.467-.208-.675a8.6,8.6,0,0,1-.156-1.662,8.337,8.337,0,0,1,2.389-5.817,8.03,8.03,0,0,1,5.817-2.389,8.337,8.337,0,0,1,5.817,2.389,8.118,8.118,0,0,1,2.389,5.817A8.307,8.307,0,0,1,49.186,67.005Z" transform="translate(0 -24)" fill="#071112"/>
      <path id="Path_9" data-name="Path 9" d="M304.183,264.816a1.813,1.813,0,0,0-.467-.312,1.517,1.517,0,0,0-.467-.1h-.1a1.516,1.516,0,0,0-.467.1,1.227,1.227,0,0,0-.468.312l-3.22,3.22a1.4,1.4,0,1,0,1.974,1.974l.831-.831v5.713a1.4,1.4,0,0,0,2.8,0v-5.713l.831.831a1.4,1.4,0,0,0,1.974-1.974Z" transform="translate(-259.828 -233.185)" fill="#071112"/>
    </g>
  </g>
</svg>
