<svg width="14" height="14" viewBox="0 0 14 14" fill="none" xmlns="http://www.w3.org/2000/svg">
<g clip-path="url(#clip0)">
<path d="M13.5009 3.56123e-08C13.4232 -2.92608e-05 13.3466 0.0180173 13.2771 0.0527336L9.48821 1.94771L5.20378 0.0432416C5.19678 0.0402533 5.18878 0.039726 5.18128 0.0367378C5.16201 0.0295308 5.14229 0.0235251 5.12228 0.0187497C5.10239 0.0133885 5.08217 0.00919911 5.06178 0.00624017C5.02118 0.00290038 4.98037 0.00290038 4.93979 0.00624017C4.9194 0.00919911 4.89919 0.0133885 4.8793 0.0187497C4.85929 0.0235251 4.83957 0.0295308 4.82029 0.0367378C4.81279 0.039726 4.80479 0.040224 4.79779 0.0432416L0.297862 2.04322C0.11722 2.12343 0.000825201 2.30255 0.000854498 2.50019V13.5C0.000942387 13.6692 0.0865172 13.8268 0.228341 13.919C0.370195 14.0114 0.549108 14.0257 0.703822 13.957L5.00076 12.047L9.29769 13.957C9.30519 13.96 9.31319 13.957 9.32069 13.9615C9.44174 14.0157 9.5807 14.0126 9.69917 13.953C9.70717 13.9496 9.71616 13.953 9.72416 13.9475L13.7241 11.9476C13.8936 11.8629 14.0007 11.6896 14.0006 11.5V0.500237C14.0008 0.224088 13.777 0.000117221 13.5009 3.56123e-08ZM4.50079 11.1751L1.00083 12.7305V2.8252L4.50079 1.26971V11.1751ZM9.00072 12.7305L5.50076 11.1751V1.26971L9.00072 2.82517V12.7305ZM13.0006 11.1911L10.0007 12.691V2.80918L13.0006 1.3092V11.1911Z" fill="#84829A"/>
</g>
<defs>
<clipPath id="clip0">
<rect width="14" height="14" fill="white"/>
</clipPath>
</defs>
</svg>
