<svg width="24" height="20" viewBox="0 0 24 20" fill="none" xmlns="http://www.w3.org/2000/svg">
<path d="M4.5 11.125C4.20333 11.125 3.91332 11.213 3.66665 11.3778C3.41997 11.5426 3.22771 11.7769 3.11418 12.051C3.00065 12.3251 2.97094 12.6267 3.02882 12.9176C3.0867 13.2086 3.22956 13.4759 3.43934 13.6857C3.64912 13.8954 3.91639 14.0383 4.20737 14.0962C4.49834 14.1541 4.79994 14.1244 5.07403 14.0108C5.34812 13.8973 5.58238 13.705 5.74721 13.4584C5.91203 13.2117 6 12.9217 6 12.625C6 12.2272 5.84197 11.8456 5.56066 11.5643C5.27936 11.283 4.89783 11.125 4.5 11.125ZM4.5 13.375C4.35167 13.375 4.20666 13.331 4.08332 13.2486C3.95999 13.1662 3.86386 13.0491 3.80709 12.912C3.75033 12.775 3.73547 12.6242 3.76441 12.4787C3.79335 12.3332 3.86478 12.1996 3.96967 12.0947C4.07456 11.9898 4.2082 11.9184 4.35368 11.8894C4.49917 11.8605 4.64997 11.8753 4.78701 11.9321C4.92406 11.9889 5.04119 12.085 5.1236 12.2083C5.20601 12.3317 5.25 12.4767 5.25 12.625C5.25 12.8239 5.17098 13.0147 5.03033 13.1553C4.88968 13.296 4.69891 13.375 4.5 13.375Z" fill="white"/>
<path d="M19.5 11.125C19.2033 11.125 18.9133 11.213 18.6666 11.3778C18.42 11.5426 18.2277 11.7769 18.1142 12.051C18.0006 12.3251 17.9709 12.6267 18.0288 12.9176C18.0867 13.2086 18.2296 13.4759 18.4393 13.6857C18.6491 13.8954 18.9164 14.0383 19.2074 14.0962C19.4983 14.1541 19.7999 14.1244 20.074 14.0108C20.3481 13.8973 20.5824 13.705 20.7472 13.4584C20.912 13.2117 21 12.9217 21 12.625C21 12.2272 20.842 11.8456 20.5607 11.5643C20.2793 11.283 19.8978 11.125 19.5 11.125ZM19.5 13.375C19.3517 13.375 19.2067 13.331 19.0833 13.2486C18.96 13.1662 18.8639 13.0491 18.8071 12.912C18.7503 12.775 18.7355 12.6242 18.7644 12.4787C18.7933 12.3332 18.8648 12.1996 18.9697 12.0947C19.0746 11.9898 19.2082 11.9184 19.3537 11.8894C19.4992 11.8605 19.65 11.8753 19.787 11.9321C19.9241 11.9889 20.0412 12.085 20.1236 12.2083C20.206 12.3317 20.25 12.4767 20.25 12.625C20.25 12.8239 20.171 13.0147 20.0303 13.1553C19.8897 13.296 19.6989 13.375 19.5 13.375Z" fill="white"/>
<path d="M8.625 13H15.375V13.75H8.625V13Z" fill="white"/>
<path d="M8.625 11.5H15.375V12.25H8.625V11.5Z" fill="white"/>
<path d="M10.875 5.875H13.125V6.625H10.875V5.875Z" fill="white"/>
<path d="M23.25 9.25V8.5C23.2491 8.20191 23.1303 7.91627 22.9195 7.70549C22.7087 7.4947 22.4231 7.37589 22.125 7.375H20.64L19.8638 4.6525L19.6312 3.72625C19.5702 3.48304 19.4297 3.26719 19.232 3.11296C19.0343 2.95874 18.7907 2.87499 18.54 2.875H15.375V1.375C15.3744 1.17627 15.2952 0.985849 15.1547 0.845326C15.0142 0.704802 14.8237 0.625594 14.625 0.625H9.375C9.17627 0.625594 8.98585 0.704802 8.84533 0.845326C8.7048 0.985849 8.62559 1.17627 8.625 1.375V2.875H5.46C5.20926 2.87499 4.96569 2.95874 4.76799 3.11296C4.57028 3.26719 4.42976 3.48304 4.36875 3.72625L4.14 4.64875L3.36 7.375H1.875C1.57691 7.37589 1.29127 7.4947 1.08049 7.70549C0.869703 7.91627 0.75089 8.20191 0.75 8.5V9.25C0.750607 9.43997 0.79944 9.62668 0.891922 9.79262C0.984403 9.95856 1.1175 10.0983 1.27875 10.1987C0.93975 10.5471 0.750047 11.0139 0.75 11.5V16C0.750517 16.1573 0.784179 16.3128 0.848792 16.4562C0.913405 16.5996 1.00752 16.7279 1.125 16.8325V18.25C1.12589 18.5481 1.2447 18.8337 1.45549 19.0445C1.66627 19.2553 1.95191 19.3741 2.25 19.375H5.25C5.54809 19.3741 5.83373 19.2553 6.04451 19.0445C6.2553 18.8337 6.37411 18.5481 6.375 18.25V17.125H17.625V18.25C17.6259 18.5481 17.7447 18.8337 17.9555 19.0445C18.1663 19.2553 18.4519 19.3741 18.75 19.375H21.75C22.0481 19.3741 22.3337 19.2553 22.5445 19.0445C22.7553 18.8337 22.8741 18.5481 22.875 18.25V16.8325C22.9925 16.7279 23.0866 16.5996 23.1512 16.4562C23.2158 16.3128 23.2495 16.1573 23.25 16V11.5C23.25 11.0139 23.0602 10.5471 22.7213 10.1987C22.8825 10.0983 23.0156 9.95856 23.1081 9.79262C23.2006 9.62668 23.2494 9.43997 23.25 9.25ZM9.375 1.375H14.625V2.875H9.375V1.375ZM5.09625 3.91C5.11635 3.8287 5.16309 3.75647 5.22901 3.70481C5.29493 3.65316 5.37625 3.62506 5.46 3.625H18.54C18.6237 3.62506 18.7051 3.65316 18.771 3.70481C18.8369 3.75647 18.8836 3.8287 18.9037 3.91L19.02 4.375H4.98L5.09625 3.91ZM4.78125 5.125H19.2188L20.5012 9.625H9.71625C9.62811 9.10094 9.35712 8.62507 8.95138 8.28187C8.54565 7.93867 8.03142 7.75036 7.5 7.75036C6.96858 7.75036 6.45435 7.93867 6.04862 8.28187C5.64288 8.62507 5.37189 9.10094 5.28375 9.625H3.49875L4.78125 5.125ZM8.9475 9.625H6.0525C6.13438 9.30322 6.32114 9.0179 6.58327 8.81412C6.84541 8.61033 7.16797 8.49969 7.5 8.49969C7.83203 8.49969 8.15459 8.61033 8.41673 8.81412C8.67886 9.0179 8.86562 9.30322 8.9475 9.625ZM1.5 8.5C1.5 8.40054 1.53951 8.30516 1.60984 8.23483C1.68016 8.16451 1.77554 8.125 1.875 8.125H3.14625L2.71875 9.625H1.875C1.77554 9.625 1.68016 9.58549 1.60984 9.51517C1.53951 9.44484 1.5 9.34946 1.5 9.25V8.5ZM5.625 18.25C5.625 18.3495 5.58549 18.4448 5.51516 18.5152C5.44484 18.5855 5.34946 18.625 5.25 18.625H2.25C2.15054 18.625 2.05516 18.5855 1.98484 18.5152C1.91451 18.4448 1.875 18.3495 1.875 18.25V17.125H5.625V18.25ZM22.125 18.25C22.125 18.3495 22.0855 18.4448 22.0152 18.5152C21.9448 18.5855 21.8495 18.625 21.75 18.625H18.75C18.6505 18.625 18.5552 18.5855 18.4848 18.5152C18.4145 18.4448 18.375 18.3495 18.375 18.25V17.125H22.125V18.25ZM22.5 16C22.5 16.0995 22.4605 16.1948 22.3902 16.2652C22.3198 16.3355 22.2245 16.375 22.125 16.375H1.875C1.77554 16.375 1.68016 16.3355 1.60984 16.2652C1.53951 16.1948 1.5 16.0995 1.5 16V15.625H22.5V16ZM22.5 14.875H1.5V11.5C1.50089 11.2019 1.6197 10.9163 1.83049 10.7055C2.04127 10.4947 2.32691 10.3759 2.625 10.375H21.375C21.6731 10.3759 21.9587 10.4947 22.1695 10.7055C22.3803 10.9163 22.4991 11.2019 22.5 11.5V14.875ZM22.5 9.25C22.5 9.34946 22.4605 9.44484 22.3902 9.51517C22.3198 9.58549 22.2245 9.625 22.125 9.625H21.2812L20.8538 8.125H22.125C22.2245 8.125 22.3198 8.16451 22.3902 8.23483C22.4605 8.30516 22.5 8.40054 22.5 8.5V9.25Z" fill="white"/>
</svg>
