<svg width="24" height="18" viewBox="0 0 24 18" fill="none" xmlns="http://www.w3.org/2000/svg">
<path d="M20.8184 17.9286C20.3682 17.9378 19.926 17.809 19.5512 17.5595C19.2723 17.3772 18.9462 17.2802 18.613 17.2802C18.2797 17.2802 17.9537 17.3772 17.6747 17.5595C17.2961 17.8006 16.8566 17.9286 16.4077 17.9286C15.9589 17.9286 15.5194 17.8006 15.1408 17.5595C14.8618 17.377 14.5357 17.2799 14.2023 17.2799C13.869 17.2799 13.5429 17.377 13.2639 17.5595C12.8853 17.8006 12.4458 17.9286 11.9969 17.9286C11.5481 17.9286 11.1086 17.8006 10.7299 17.5595C10.4512 17.3772 10.1253 17.28 9.79216 17.28C9.45904 17.28 9.13315 17.3772 8.85438 17.5595C8.5111 17.7876 8.1105 17.9144 7.69848 17.9253L7.67578 17.2767C7.98012 17.2695 8.27566 17.1732 8.52584 16.9997C8.90435 16.7587 9.34376 16.6307 9.79248 16.6307C10.2412 16.6307 10.6806 16.7587 11.0591 16.9997C11.3381 17.1821 11.6641 17.2792 11.9974 17.2792C12.3307 17.2792 12.6567 17.1821 12.9357 16.9997C13.3143 16.7585 13.754 16.6304 14.203 16.6304C14.6519 16.6304 15.0916 16.7585 15.4703 16.9997C15.7492 17.1821 16.0753 17.2792 16.4085 17.2792C16.7418 17.2792 17.0679 17.1821 17.3468 16.9997C17.7255 16.7588 18.165 16.6308 18.6138 16.6308C19.0626 16.6308 19.5021 16.7588 19.8808 16.9997C20.1604 17.1825 20.4872 17.2799 20.8213 17.2799C21.1554 17.2799 21.4822 17.1825 21.7618 16.9997C22.1362 16.751 22.5776 16.6224 23.027 16.6313V17.2799C22.6924 17.2708 22.3636 17.3686 22.0884 17.5592C21.7127 17.809 21.2695 17.9379 20.8184 17.9286Z" fill="white"/>
<path d="M3.17843 17.9285C2.72836 17.9378 2.28626 17.809 1.91162 17.5594C1.63649 17.3686 1.30767 17.2707 0.973022 17.2798V16.6312C1.42319 16.6218 1.86542 16.7506 2.24016 17.0002C2.51513 17.191 2.84387 17.289 3.17843 17.2798C3.51314 17.289 3.84202 17.1909 4.11702 16.9999C4.49096 16.7504 4.93246 16.6217 5.38189 16.6312C5.82042 16.6213 6.2517 16.7442 6.61918 16.9837L6.29194 17.5435C6.02351 17.3628 5.70531 17.2706 5.38189 17.2798C5.04856 17.2708 4.72108 17.3685 4.44718 17.5587C4.07212 17.809 3.62923 17.9381 3.17843 17.9285Z" fill="white"/>
<path d="M20.8194 15.6579C20.3689 15.6671 19.9265 15.5383 19.5513 15.2888C19.2721 15.1064 18.9458 15.0092 18.6122 15.0092C18.2787 15.0092 17.9523 15.1064 17.6731 15.2888C17.2946 15.5298 16.8551 15.6578 16.4063 15.6578C15.9576 15.6578 15.5181 15.5298 15.1395 15.2888C14.8607 15.1065 14.5347 15.0094 14.2016 15.0094C13.8684 15.0094 13.5425 15.1065 13.2636 15.2888C12.8851 15.5299 12.4456 15.6579 11.9968 15.6579C11.548 15.6579 11.1085 15.5299 10.73 15.2888C10.4512 15.1065 10.1252 15.0094 9.79205 15.0094C9.45888 15.0094 9.13294 15.1065 8.8541 15.2888C8.47948 15.5384 8.03736 15.6672 7.58729 15.6579C7.13723 15.6672 6.6951 15.5384 6.32048 15.2888C6.04561 15.0981 5.71699 15.0001 5.38254 15.0093C5.04819 15.0002 4.71969 15.0981 4.44491 15.2888C4.07089 15.5381 3.62947 15.6669 3.18005 15.6579C2.72988 15.6672 2.28765 15.5384 1.91291 15.2888C1.63749 15.0977 1.30813 14.9997 0.973022 15.0093V14.3606C1.42309 14.3513 1.86519 14.4801 2.23983 14.7297C2.51496 14.9204 2.84378 15.0184 3.17843 15.0093C3.51277 15.0183 3.84127 14.9204 4.11605 14.7297C4.49008 14.4804 4.93149 14.3516 5.38091 14.3606C5.83132 14.351 6.27381 14.4799 6.6487 14.7297C6.92367 14.9205 7.25241 15.0184 7.58697 15.0093C7.92153 15.0184 8.25026 14.9205 8.52524 14.7297C8.90378 14.4886 9.34326 14.3605 9.79205 14.3605C10.2408 14.3605 10.6803 14.4886 11.0589 14.7297C11.3377 14.9121 11.6637 15.0092 11.997 15.0092C12.3302 15.0092 12.6562 14.9121 12.9351 14.7297C13.3136 14.4886 13.7531 14.3605 14.2019 14.3605C14.6507 14.3605 15.0902 14.4886 15.4687 14.7297C15.7476 14.9121 16.0736 15.0092 16.4068 15.0092C16.74 15.0092 17.066 14.9121 17.3449 14.7297C17.7238 14.4887 18.1636 14.3607 18.6127 14.3607C19.0618 14.3607 19.5016 14.4887 19.8805 14.7297C20.1599 14.912 20.4863 15.0091 20.8199 15.0091C21.1535 15.0091 21.4799 14.912 21.7593 14.7297C22.1344 14.4803 22.5767 14.3515 23.0271 14.3606V15.0093C22.6918 14.9998 22.3622 15.0977 22.0865 15.2888C21.7116 15.5381 21.2695 15.6669 20.8194 15.6579Z" fill="white"/>
<path d="M20.8184 13.388C20.3683 13.3972 19.9261 13.2684 19.5513 13.0189C19.2762 12.8282 18.9473 12.7303 18.6127 12.7394C18.3671 12.7309 18.1232 12.7833 17.9028 12.8918L17.6167 12.308C17.9263 12.1563 18.268 12.0814 18.6127 12.0897C19.0634 12.0806 19.5061 12.2097 19.8811 12.4598C20.1608 12.6426 20.4876 12.7399 20.8217 12.7399C21.1558 12.7399 21.4826 12.6426 21.7622 12.4598C22.1364 12.2109 22.5777 12.0821 23.0271 12.0907V12.7394C22.6925 12.7302 22.3637 12.828 22.0885 13.0186C21.7128 13.2685 21.2696 13.3974 20.8184 13.388Z" fill="white"/>
<path d="M16.4044 13.3879C15.9549 13.3973 15.5135 13.2686 15.1395 13.0191C14.8605 12.8366 14.5344 12.7395 14.2011 12.7395C13.8677 12.7395 13.5416 12.8366 13.2626 13.0191C12.884 13.2602 12.4445 13.3882 11.9957 13.3882C11.5468 13.3882 11.1073 13.2602 10.7287 13.0191C10.4497 12.8367 10.1237 12.7396 9.79043 12.7396C9.45716 12.7396 9.13111 12.8367 8.85216 13.0191C8.47759 13.2683 8.03578 13.397 7.586 13.3879C7.13593 13.3972 6.69382 13.2684 6.31918 13.0188C6.04406 12.8281 5.71524 12.7301 5.38059 12.7392C5.04726 12.7302 4.71978 12.828 4.44589 13.0181C4.07119 13.2682 3.62879 13.3972 3.17843 13.3879C2.72837 13.3972 2.28626 13.2684 1.91162 13.0188C1.63649 12.8281 1.30767 12.7301 0.973022 12.7392V12.0906C1.42319 12.0812 1.86542 12.21 2.24016 12.4597C2.51513 12.6504 2.84387 12.7484 3.17843 12.7392C3.51314 12.7484 3.84202 12.6503 4.11702 12.4593C4.49096 12.2098 4.93246 12.0811 5.38189 12.0906C5.83195 12.0813 6.27405 12.2101 6.6487 12.4597C6.92367 12.6504 7.25241 12.7484 7.58697 12.7392C7.92162 12.7483 8.25044 12.6504 8.52556 12.4597C8.90418 12.2186 9.3437 12.0906 9.79254 12.0906C10.2414 12.0906 10.6809 12.2186 11.0595 12.4597C11.3385 12.642 11.6645 12.7391 11.9978 12.7391C12.3311 12.7391 12.6571 12.642 12.9361 12.4597C13.3147 12.2184 13.7544 12.0903 14.2033 12.0903C14.6523 12.0903 15.092 12.2184 15.4706 12.4597C15.7564 12.6518 16.0952 12.7495 16.4394 12.7389C16.4644 12.7392 16.4895 12.7379 16.5143 12.735L16.6006 13.3778C16.5355 13.3854 16.4699 13.3888 16.4044 13.3879Z" fill="white"/>
<path d="M20.8194 11.1174C20.3689 11.1266 19.9265 10.9978 19.5513 10.7483C19.2721 10.5658 18.9458 10.4687 18.6122 10.4687C18.2787 10.4687 17.9523 10.5658 17.6731 10.7483C17.2946 10.9893 16.8551 11.1173 16.4063 11.1173C15.9576 11.1173 15.5181 10.9893 15.1395 10.7483C14.8607 10.5659 14.5347 10.4688 14.2016 10.4688C13.8684 10.4688 13.5425 10.5659 13.2636 10.7483C12.8851 10.9893 12.4456 11.1174 11.9968 11.1174C11.548 11.1174 11.1085 10.9893 10.73 10.7483C10.4512 10.5659 10.1252 10.4688 9.79205 10.4688C9.45888 10.4688 9.13294 10.5659 8.8541 10.7483C8.47948 10.9979 8.03736 11.1267 7.58729 11.1174C7.13723 11.1267 6.6951 10.9979 6.32048 10.7483C6.04561 10.5575 5.71699 10.4596 5.38254 10.4687C5.04819 10.4596 4.71969 10.5576 4.44491 10.7483C4.07089 10.9976 3.62947 11.1264 3.18005 11.1174C2.72988 11.1267 2.28765 10.9979 1.91291 10.7483C1.63749 10.5572 1.30813 10.4592 0.973022 10.4687V9.82008C1.42309 9.81077 1.86519 9.93958 2.23983 10.1892C2.51496 10.3799 2.84378 10.4778 3.17843 10.4687C3.51277 10.4778 3.84127 10.3799 4.11605 10.1892C4.49008 9.93983 4.93149 9.81103 5.38091 9.82008C5.83132 9.81051 6.27381 9.93933 6.6487 10.1892C6.92367 10.3799 7.25241 10.4779 7.58697 10.4687C7.92153 10.4779 8.25026 10.3799 8.52524 10.1892C8.90378 9.94806 9.34326 9.82 9.79205 9.82C10.2408 9.82 10.6803 9.94806 11.0589 10.1892C11.3377 10.3715 11.6637 10.4687 11.997 10.4687C12.3302 10.4687 12.6562 10.3715 12.9351 10.1892C13.3136 9.94806 13.7531 9.82 14.2019 9.82C14.6507 9.82 15.0902 9.94806 15.4687 10.1892C15.7476 10.3715 16.0736 10.4687 16.4068 10.4687C16.74 10.4687 17.066 10.3715 17.3449 10.1892C17.7238 9.94816 18.1636 9.82016 18.6127 9.82016C19.0618 9.82016 19.5016 9.94816 19.8805 10.1892C20.1599 10.3715 20.4863 10.4686 20.8199 10.4686C21.1535 10.4686 21.4799 10.3715 21.7593 10.1892C22.1344 9.93973 22.5767 9.81095 23.0271 9.82008V10.4687C22.6918 10.4592 22.3622 10.5572 22.0865 10.7483C21.7116 10.9976 21.2695 11.1264 20.8194 11.1174Z" fill="white"/>
<path d="M16.1978 10.8423L15.5858 10.6276C15.7434 10.1748 15.8078 9.69472 15.7751 9.21634C15.7424 8.73795 15.6133 8.27113 15.3954 7.84396L13.1677 3.48147C13.1457 3.43839 13.1336 3.39094 13.1323 3.34258C13.131 3.29423 13.1406 3.2462 13.1602 3.20201C13.1799 3.15783 13.2092 3.1186 13.2461 3.08721C13.2829 3.05583 13.3262 3.03307 13.373 3.02061L17.8126 1.83682C17.9573 1.79899 18.0812 1.70555 18.1573 1.57684C18.2335 1.44813 18.2557 1.29456 18.2192 1.14954C18.1827 1.00453 18.0904 0.879793 17.9624 0.802481C17.8344 0.725169 17.681 0.701533 17.5357 0.736716L12.1623 2.02104C12.0474 2.04818 11.9403 2.10141 11.8493 2.17659C11.7583 2.25177 11.6858 2.34688 11.6375 2.45457C11.5892 2.56226 11.5663 2.67963 11.5706 2.79758C11.575 2.91553 11.6064 3.03091 11.6625 3.13477L13.2581 6.09909C13.2986 6.17443 13.3077 6.26271 13.2834 6.34471C13.2591 6.42671 13.2034 6.4958 13.1284 6.53693L11.069 7.67206L10.756 7.10385L12.5339 6.12374L11.092 3.44223C10.9888 3.2508 10.9311 3.03822 10.9232 2.82091C10.9153 2.6036 10.9576 2.38739 11.0466 2.18901C11.1356 1.99062 11.2691 1.81537 11.4367 1.67681C11.6043 1.53824 11.8015 1.44008 12.0131 1.3899L17.3839 0.105905C17.6965 0.0268991 18.0278 0.0753364 18.3047 0.240561C18.5817 0.405786 18.7817 0.674263 18.8607 0.986932C18.9397 1.2996 18.8913 1.63085 18.726 1.9078C18.5608 2.18476 18.2923 2.38474 17.9797 2.46374L13.9275 3.54374L15.9734 7.5485C16.231 8.05401 16.3837 8.60642 16.4223 9.17248C16.4608 9.73854 16.3845 10.3065 16.1978 10.8423Z" fill="white"/>
<path d="M9.62229 7.73377L5.68103 9.90552L5.99392 10.4733L9.93518 8.3016L9.62229 7.73377Z" fill="white"/>
<path d="M19.1352 8.68493C18.6541 8.68493 18.1838 8.54227 17.7838 8.27499C17.3838 8.00771 17.072 7.62782 16.8879 7.18335C16.7038 6.73888 16.6556 6.2498 16.7495 5.77796C16.8434 5.30611 17.075 4.87269 17.4152 4.53251C17.7554 4.19233 18.1888 3.96066 18.6606 3.86681C19.1325 3.77295 19.6216 3.82112 20.066 4.00523C20.5105 4.18933 20.8904 4.5011 21.1577 4.90111C21.425 5.30112 21.5676 5.77141 21.5676 6.2525C21.5669 6.89741 21.3104 7.51571 20.8544 7.97173C20.3984 8.42775 19.7801 8.68424 19.1352 8.68493ZM19.1352 4.46872C18.7824 4.46872 18.4375 4.57333 18.1442 4.76934C17.8508 4.96534 17.6222 5.24393 17.4872 5.56988C17.3522 5.89582 17.3169 6.25448 17.3857 6.6005C17.4545 6.94652 17.6244 7.26436 17.8739 7.51382C18.1233 7.76329 18.4412 7.93318 18.7872 8.00201C19.1332 8.07084 19.4919 8.03551 19.8178 7.9005C20.1438 7.76549 20.4223 7.53686 20.6183 7.24352C20.8144 6.95018 20.919 6.6053 20.919 6.2525C20.9184 5.7796 20.7302 5.32623 20.3959 4.99184C20.0615 4.65744 19.6081 4.46932 19.1352 4.46872Z" fill="white"/>
</svg>
