<svg id="services2" xmlns="http://www.w3.org/2000/svg" width="55.083" height="48.199" viewBox="0 0 55.083 48.199">
  <path id="Path_1" data-name="Path 1" d="M135.889,137.374a13.771,13.771,0,1,0,13.771,13.771A13.787,13.787,0,0,0,135.889,137.374Zm0,24.1a10.328,10.328,0,1,1,10.328-10.328A10.34,10.34,0,0,1,135.889,161.474Z" transform="translate(-108.347 -125.324)" fill="#071112"/>
  <path id="Path_2" data-name="Path 2" d="M55.065,42.562A5.17,5.17,0,0,0,49.9,37.405H42.358l-2.969-5.932a1.722,1.722,0,0,0-1.54-.951H17.192a1.72,1.72,0,0,0-1.54.951l-2.965,5.934-7.531.01A5.172,5.172,0,0,0,0,42.579V73.559a5.169,5.169,0,0,0,5.164,5.162H49.919a5.171,5.171,0,0,0,5.164-5.166ZM49.919,75.279H5.164a1.722,1.722,0,0,1-1.721-1.721V42.579a1.724,1.724,0,0,1,1.718-1.721l8.594-.012a1.724,1.724,0,0,0,1.538-.951l2.964-5.932H36.785L39.754,39.9a1.722,1.722,0,0,0,1.54.951H49.9a1.74,1.74,0,0,1,1.742,1.719V73.557A1.725,1.725,0,0,1,49.919,75.279Z" transform="translate(0 -30.522)" fill="#071112"/>
</svg>
