<svg xmlns="http://www.w3.org/2000/svg" width="48.199" height="48.199" viewBox="0 0 48.199 48.199">
  <path id="services1" d="M24.1,0A24.1,24.1,0,1,0,48.2,24.1,24.127,24.127,0,0,0,24.1,0Zm0,2.824a21.145,21.145,0,0,1,10.85,2.981L16.6,19.137,12.434,6.316A21.15,21.15,0,0,1,24.1,2.824Zm0,14.353,6.58,4.781L28.167,29.7H20.032l-2.514-7.737ZM2.824,24.1A21.23,21.23,0,0,1,10.055,8.133L17.063,29.7H3.573a21.226,21.226,0,0,1-.749-5.6ZM23.082,45.35A21.314,21.314,0,0,1,4.564,32.522H27.25Zm2.991-.068L33.085,23.7,44,31.631A21.326,21.326,0,0,1,26.073,45.283ZM26.5,15.432l10.9-7.92a21.262,21.262,0,0,1,7.453,21.255Z" fill="#071112"/>
</svg>
