<svg xmlns="http://www.w3.org/2000/svg" viewBox="0 60 500 370"><path d="M397.83 170.78c25.23 50.27 17.25 113.73-14.29 160.3s-84 76.73-139.15 87.71c-39.39 7.84-81.74 6.21-117.72-11.57s-64.27-53.67-66.43-93.76c-.82-15.14 2.39-31.22 12.5-42.53 16.14-18.06 43.68-18.69 67.89-18s51.73.18 68-17.8c12.45-13.82 14.29-33.87 20.85-51.27 11.17-29.61 38.1-52.72 69.05-59.26a89.62 89.62 0 0113-1.77c34-2.13 66.33 15.39 84.19 44.45z" fill="#f5f5f5"/><g fill="#263238"><path d="M362.8 405.65l1.11.4c.72.28 1.82.65 3.28 1.06a38.71 38.71 0 0013.11 1.33 52.77 52.77 0 009.44-1.52 59.87 59.87 0 0010.73-3.74 65.81 65.81 0 0021.88-16.72 20.43 20.43 0 004-6.68 10.44 10.44 0 00-.38-7.89 7.76 7.76 0 00-2.79-3 9.89 9.89 0 00-4-1.38 15.73 15.73 0 00-8.59 1.4 31.94 31.94 0 01-4.35 1.54 8.49 8.49 0 01-4.71-.12 5 5 0 01-3.4-3.32 5.86 5.86 0 01.93-4.75 9 9 0 013.82-3.13 35.68 35.68 0 014.67-1.69 63.09 63.09 0 0018.05-9.23 20.82 20.82 0 003.86-3.46 7.35 7.35 0 002-4.63 4.57 4.57 0 00-.73-2.4 5.61 5.61 0 00-1.87-1.75 11.73 11.73 0 00-5.07-1.42 30.35 30.35 0 01-5.47-.75 6.11 6.11 0 01-4.24-3.6 3.29 3.29 0 01.35-2.89 7.26 7.26 0 012.16-1.91c1.56-1 3.1-2.09 4.59-3.23a73.62 73.62 0 008.46-7.56c2.6-2.77 5.24-5.65 6.87-9.13a11.46 11.46 0 001.18-5.53 8.46 8.46 0 00-2.17-5.16 11.24 11.24 0 00-10.41-3.42 18.37 18.37 0 00-9.72 5.62c-5.27 5.55-7.87 12.87-12.19 18.94a30.63 30.63 0 01-3.59 4.27 9.92 9.92 0 01-2.2 1.75 2.91 2.91 0 01-2.86.1 3.6 3.6 0 01-1.5-2.42 10.29 10.29 0 010-2.77 7.52 7.52 0 00-.1-2.6 4.72 4.72 0 00-1.26-2.18 6.47 6.47 0 00-4.64-1.83 7.32 7.32 0 00-4.58 2 11.6 11.6 0 00-2.9 4.13 19 19 0 00-1.24 4.91c-.21 1.68-.27 3.36-.33 5s-.11 3.35-.16 5q-.17 5-.33 9.82c-.06 1.61-.09 3.2-.17 4.81a15.61 15.61 0 01-.91 4.69 5.51 5.51 0 01-3.27 3.37 6.79 6.79 0 01-4.62-.3 18.39 18.39 0 01-7.14-5.4 19.76 19.76 0 01-2.38-3.68 39.07 39.07 0 00-2-3.75 5.86 5.86 0 00-3-2.54 5.45 5.45 0 00-3.85.27 7.84 7.84 0 00-3.05 2.37 9 9 0 00-1.56 3.47 54.38 54.38 0 00-.66 7.47c-.17 2.44-.25 4.83-.28 7.14a91.39 91.39 0 00.79 13.06 64.1 64.1 0 002.43 11.1c.46 1.69 1.14 3.23 1.69 4.73.31.73.65 1.43 1 2.12s.61 1.37 1 2a42 42 0 007.9 10.56 14.19 14.19 0 001.47 1.35l1.11.94.88.77-.92-.73-1.12-.92a13.93 13.93 0 01-1.49-1.33 41.72 41.72 0 01-8-10.54 21.69 21.69 0 01-1-2c-.32-.69-.68-1.39-1-2.13-.56-1.5-1.25-3-1.72-4.73a63.69 63.69 0 01-2.47-11.15 88.74 88.74 0 01-.84-13.09c0-2.32.1-4.71.26-7.16a56.61 56.61 0 01.65-7.54 9.4 9.4 0 011.62-3.61 8.15 8.15 0 013.19-2.49 5.82 5.82 0 014.13-.3 6.38 6.38 0 013.25 2.7 39.15 39.15 0 012 3.79 19 19 0 002.33 3.59 18.14 18.14 0 007 5.27 6.47 6.47 0 004.33.29 5.1 5.1 0 003-3.12c1.1-2.89.86-6.15 1-9.36s.21-6.5.32-9.81c.05-1.66.1-3.33.16-5s.11-3.39.33-5.09a19.11 19.11 0 011.26-5 12 12 0 013-4.31 7.85 7.85 0 014.89-2.09 6.94 6.94 0 015 2 5.18 5.18 0 011.39 2.41 7.8 7.8 0 01.12 2.76 9.64 9.64 0 000 2.63 3 3 0 001.26 2.08 2.35 2.35 0 002.36-.11 9.66 9.66 0 002.09-1.66 31.58 31.58 0 003.52-4.2 108.79 108.79 0 005.71-9.62 45.54 45.54 0 016.53-9.39 18.83 18.83 0 0110-5.77 11.76 11.76 0 0110.9 3.59 9 9 0 012.3 5.47 12 12 0 01-1.23 5.78c-1.68 3.58-4.35 6.48-7 9.27a73.7 73.7 0 01-8.52 7.61c-1.5 1.15-3.05 2.23-4.62 3.25a6.74 6.74 0 00-2 1.76 2.76 2.76 0 00-.3 2.45 5.63 5.63 0 003.9 3.27 29 29 0 005.38.73 12.3 12.3 0 015.28 1.5 6.17 6.17 0 012 1.91 5.13 5.13 0 01.81 2.66 7.87 7.87 0 01-2.09 5 21.26 21.26 0 01-4 3.53 63.69 63.69 0 01-18.19 9.29 34.14 34.14 0 00-4.62 1.66 8.45 8.45 0 00-3.63 3 5.41 5.41 0 00-.89 4.38 4.57 4.57 0 003.11 3 8 8 0 004.47.11 31.19 31.19 0 004.29-1.51 16.32 16.32 0 018.81-1.42 10.52 10.52 0 014.15 1.46 8.09 8.09 0 012.93 3.16 10.82 10.82 0 01.38 8.2 20.66 20.66 0 01-4.08 6.8 65.84 65.84 0 01-22 16.74 59.72 59.72 0 01-10.79 3.72 53.86 53.86 0 01-9.48 1.49 38.62 38.62 0 01-13.16-1.44 33.76 33.76 0 01-3.27-1.11z"/><path d="M368.39 393.45a295.29 295.29 0 0112.91-31.24c1.28-2.7 2.55-5.38 3.81-8s2.49-5.23 3.87-7.71a148.28 148.28 0 018.71-13.76c3-4.24 6-8.16 8.79-11.8s5.52-7 8.11-9.92a117.21 117.21 0 0113.24-12.95c1.68-1.4 3-2.45 3.93-3.14l1.05-.79a2.49 2.49 0 01.37-.25l-.33.3-1 .83c-.89.73-2.2 1.8-3.86 3.23a124.21 124.21 0 00-13.07 13.06c-2.56 2.95-5.23 6.3-8 9.94s-5.76 7.58-8.73 11.82a149.15 149.15 0 00-8.64 13.72c-1.37 2.46-2.6 5.05-3.85 7.68l-3.8 8a299.47 299.47 0 00-12.93 31.16"/><path d="M389.15 346.48a7 7 0 01-.26-1.42c-.14-.91-.3-2.24-.46-3.89-.34-3.29-.65-7.84-1-12.87s-.7-9.57-1.08-12.84c-.19-1.64-.36-3-.49-3.88a5.67 5.67 0 01-.12-1.43 7.23 7.23 0 01.36 1.39c.19.91.42 2.23.67 3.86.5 3.27.94 7.83 1.26 12.86s.59 9.45.8 12.88c.11 1.54.2 2.85.27 3.9a6.63 6.63 0 01.05 1.44z"/><path d="M431.69 340.22a8.83 8.83 0 01-1.69.13c-1.09.06-2.66.13-4.61.28-3.88.27-9.23.82-15.11 1.7-5.21.78-10.28 1.71-15 2.76-1.9.42-3.43.79-4.49 1a9.58 9.58 0 01-1.67.35 7.88 7.88 0 011.61-.58c1-.32 2.56-.76 4.46-1.23 3.78-1 9.08-2.06 15-2.95a148.57 148.57 0 0115.18-1.52c1.95-.1 3.53-.1 4.62-.08a7.87 7.87 0 011.7.14zm-62.75 52.47a2.1 2.1 0 01-.27-.52l-.66-1.56c-.57-1.35-1.35-3.33-2.27-5.79-1.85-4.92-4.19-11.79-6.67-19.41s-4.76-14.51-6.51-19.45c-.85-2.41-1.56-4.39-2.08-5.86-.22-.64-.41-1.16-.56-1.6a2.26 2.26 0 01-.16-.57 1.92 1.92 0 01.27.53l.67 1.55c.57 1.36 1.34 3.34 2.26 5.8 1.85 4.91 4.2 11.79 6.68 19.41s5.75 15.6 7.5 20.55c.85 2.41.56 3.28 1.08 4.75.23.64.41 1.17.56 1.6a2.39 2.39 0 01.16.57zm56.82-15.91a2.52 2.52 0 01-.57.21l-1.65.48-6.08 1.71c-5.14 1.45-12.21 3.54-20 5.85-7.31 2.16-14.11 4.12-20.08 5.67-2.58.68-4.68 1.2-6.14 1.53l-1.68.37a2.18 2.18 0 01-.59.09 2.28 2.28 0 01.57-.21l1.65-.48 6.08-1.71c5.14-1.45 12.21-3.54 20-5.85s14.91-4.33 20.08-5.67c2.58-.68 4.68-1.2 6.13-1.53l1.68-.37a2.23 2.23 0 01.6-.09z"/></g><path d="M260.78 162.41s-.58-2.78-1.55-10.82l-8.84-17.33s2-3.63 6.51 4.05c2.08 3.5 9 2 7.88-3.46s-8.28-8-12.66-2.56c0 0-2.83.29-3.16-1.92s6.06-7.67 11.5-6.08a16.5 16.5 0 016 3.4s-1.18-18.22.3-18.38 3.53 1 4.65 20.93c0 0 .62-15.77.93-17.78s3-3.37 3.36 1.68c0 .56 1 16.06 1 16.06s1.77-10.25 2-11.07c.5-2.16 2.63-1.93 2.84.93.15 2.17.85 11.43.85 11.43l1.34 28.51h.18" fill="#ffbe9d"/><path d="M289.06 153l-33.2-.86-3.3 80.34L215 216l-.06.13c-2.26-1-4.23-1.9-5.28-2.48-20.75-11.31-34.37-12.69-56.64-4.74l-42.66 17.08c-8.26 3.89-29.75 7.48-37.12 41.46l-1 4.06L106.38 296l23.41 61.7 28 61.76 64.45-2.09 33.68-42-28.58-54.59-17.76-61.14c12.55 8.33 35.84 19.67 63.73 13.76C303.56 267 289.06 153 289.06 153z" fill="#6266ea"/><path d="M129.57 357.07A65.36 65.36 0 00146 364.2c3.14.94 6.74 1.63 9.53-.09s3.22-6.81.1-7.83l27.05-6.11c-3.67-10.56 2.38-22.61 11.53-29s19.55-8.25 30.69-9.22l13.49 41.85-45.09 61.5-36.92 1.07z" opacity=".3"/><path d="M115.42 299.26s-16.91 37-13 55.44c2.16 10.32 35.93 19.13 57.45 21.76l-6.45 36.12s-80-7.61-94.95-39.28c-8.5-18 .11-62 16.3-111.8z" fill="#6266ea"/><path d="M192.44 342.59a2.89 2.89 0 01-.57.31l-1.69.78c-1.47.68-3.62 1.61-6.29 2.73-5.34 2.22-12.82 5.08-21.23 7.78s-16.16 4.72-21.8 6c-2.82.65-5.11 1.14-6.7 1.44l-1.83.34a2.59 2.59 0 01-.64.09 2.87 2.87 0 01.62-.19l1.81-.44c1.58-.36 3.85-.91 6.66-1.6 5.61-1.39 13.32-3.47 21.72-6.16s15.88-5.49 21.25-7.63c2.69-1.06 4.85-1.94 6.35-2.56l1.72-.7a3.05 3.05 0 01.62-.19zm22.27-127.78c0 .13-31.47 11.56-70.39 25.52s-70.53 25.17-70.58 25 31.47-11.56 70.4-25.52 70.52-25.14 70.57-25z" fill="#fff"/><path d="M107.2 318a.91.91 0 01.08-.22l.26-.62 1-2.39c.88-2.08 2.13-5.11 3.4-8.94A68.32 68.32 0 00115 292a46.23 46.23 0 00-1.24-17.15 33.74 33.74 0 00-8.34-14.91 29 29 0 00-11.95-7.21 25 25 0 00-9.41-1l-1.49.19c-.43.06-.78.15-1.08.2l-.66.13h-.23s.07 0 .21-.07l.66-.18c.29-.07.65-.18 1.08-.26l1.49-.23a24.27 24.27 0 019.53.85 28.94 28.94 0 0112.19 7.22 34 34 0 018.5 15.11 46.2 46.2 0 011.22 17.34 67.26 67.26 0 01-3.2 13.87 98.67 98.67 0 01-3.56 8.9c-.48 1-.86 1.82-1.13 2.35l-.31.61c-.03.15-.07.24-.08.24zm80.35-111.52a2.54 2.54 0 01.57.25 12.76 12.76 0 011.55.91 21.14 21.14 0 014.83 4.51 32.81 32.81 0 014.74 8.58 112.68 112.68 0 013.47 11.47l5.57 21 1.62 6.39.42 1.74a2.54 2.54 0 01.11.62 2.76 2.76 0 01-.21-.59c-.13-.45-.3-1-.51-1.72l-1.79-6.34-5.71-21c-1.1-4.1-2.11-8-3.42-11.44a33.52 33.52 0 00-4.58-8.52 22.32 22.32 0 00-4.65-4.57c-1.26-.86-2.04-1.25-2.01-1.29z" fill="#263238"/><path d="M242.85 228l-.44.21-1.33.58-5.08 2.14c-4.44 1.88-10.89 4.54-18.87 7.8-16 6.51-38.1 15.3-62.71 24.58s-47 17.31-63.33 23c-8.14 2.83-14.74 5.08-19.31 6.61l-5.27 1.75-1.37.44-.48.14.46-.19 1.36-.49 5.23-1.84 19.26-6.77c16.25-5.74 38.65-13.82 63.27-23.1s46.76-18 62.75-24.44l18.93-7.64 5.15-2.08 1.35-.53zm-29.28 39.87l-.38.18-1.14.49-4.41 1.83c-3.83 1.59-9.39 3.82-16.29 6.53-13.8 5.41-33 12.6-54.37 19.92s-41 13.37-55.19 17.54c-7.11 2.08-12.88 3.72-16.88 4.81l-4.6 1.25-1.2.31a2.18 2.18 0 01-.41.09 2.67 2.67 0 01.39-.14l1.19-.36 4.58-1.32c4-1.15 9.73-2.85 16.83-5 14.19-4.25 33.73-10.36 55.12-17.67s40.58-14.45 54.41-19.78c6.91-2.66 12.49-4.84 16.34-6.37l4.45-1.74 1.16-.44zm78.18-34.62a4.39 4.39 0 01-.58.5l-1.75 1.36c-.76.59-1.7 1.3-2.81 2.09s-2.36 1.72-3.79 2.67c-2.83 1.95-6.28 4.16-10.19 6.48s-8.31 4.71-13 7-9.31 4.28-13.53 6-8.1 3-11.38 4.05c-1.63.54-3.13 1-4.44 1.35s-2.44.7-3.37.93l-2.15.55a4.69 4.69 0 01-.75.15 4.24 4.24 0 01.72-.26l2.12-.63c.92-.27 2-.6 3.35-1s2.78-.85 4.4-1.42c3.26-1.08 7.1-2.48 11.32-4.15s8.78-3.69 13.48-6 9.08-4.69 13-7 7.37-4.47 10.22-6.38c1.44-.93 2.7-1.83 3.83-2.6s2.08-1.45 2.86-2l1.8-1.28a4 4 0 01.64-.41zm1.56-26.68c.05.14-9.13 3.83-20.5 8.25s-20.64 7.89-20.69 7.75 9.12-3.82 20.5-8.24 20.64-7.89 20.69-7.76zm-2.02-24.88c0 .14-8 2.55-18 5.38s-18.11 5-18.15 4.87 8-2.54 18-5.37 18.11-5.02 18.15-4.88zm-1.76-24.34c0 .14-7.77 2-17.42 4.09s-17.49 3.73-17.52 3.59 7.76-2 17.41-4.09 17.49-3.73 17.53-3.59zM219.87 295.4c0 .13-22.2 9-49.69 19.86s-49.83 19.52-49.88 19.39 22.19-9 49.69-19.87 49.83-19.52 49.88-19.38zm-117.64 44.03a2.23 2.23 0 01-.45.22l-1.34.55c-1.17.46-2.87 1.11-5 1.89-4.22 1.56-10.09 3.61-16.63 5.69s-12.52 3.81-16.86 5c-2.17.58-3.94 1-5.16 1.34l-1.41.33a1.67 1.67 0 01-.5.08 1.82 1.82 0 01.47-.18l1.39-.43 5.11-1.5c4.31-1.26 10.26-3 16.8-5.12s12.41-4.08 16.66-5.55l5-1.73 1.37-.46a1.58 1.58 0 01.55-.13zm11.87 25.34c.06.13-10.72 4.63-24.07 10.05s-24.23 9.71-24.28 9.58 10.72-4.64 24.08-10.06 24.22-9.71 24.27-9.57zm19.63 7c.11.1-5.94 7.26-13.5 16s-13.79 15.75-13.9 15.66 5.94-7.26 13.5-16 13.79-15.75 13.9-15.66zm20.07 5.1c.14.05-2.29 7.67-5.42 17s-5.78 16.91-5.91 16.86 2.29-7.66 5.42-17 5.77-16.91 5.91-16.86zM285 264.35c.06.13-5.69 2.51-12.84 5.31s-13 4.95-13 4.82 5.7-2.51 12.85-5.31 12.93-4.96 12.99-4.82z" fill="#fff"/><path d="M199.65 222.57c9.28 25.13 26 39.18 49.61 51.78a87.07 87.07 0 01-39-14.29" opacity=".3"/><path d="M191.24 423h178.13v-76.1a25.81 25.81 0 00-25.81-25.82h-126.5a25.82 25.82 0 00-25.82 25.82z" fill="#455a64"/><path d="M214.33 321.08h28.3a10.46 10.46 0 0110.46 10.46v90.13a1.33 1.33 0 01-1.33 1.33h-59.18a1.33 1.33 0 01-1.33-1.33v-77.5a23.09 23.09 0 0123.08-23.09z" fill="#455a64"/><path d="M204.38 423v-76.21a25.71 25.71 0 0125.7-25.71h-18.32s-21.51 2.86-21.51 29.78.69 72.14.69 72.14z" fill="#263238"/><path fill="#263238" d="M103.64 415.76h149.45v8.48H103.64z"/><path fill="#455a64" d="M253.09 415.76h122.1v8.48h-122.1z"/><path d="M253.09 420a1.16 1.16 0 010-.3v-16.94c.05-10.69.13-25.38.22-41.62 0-4.06.13-8-.12-11.84a42.56 42.56 0 00-1.92-10.78 24.94 24.94 0 00-23.45-17.21 17.37 17.37 0 00-2 .05 12.1 12.1 0 00-1.44.14l-.88.12h-.31l.3-.07.88-.17a10.59 10.59 0 011.44-.19 14.68 14.68 0 012-.1 25 25 0 0112.16 3.09 24.17 24.17 0 0111.75 14.16 43.31 43.31 0 012 10.91c.25 3.84.17 7.82.13 11.88-.15 16.23-.28 30.93-.38 41.61-.07 5.3-.13 9.6-.17 12.62 0 1.46-.06 2.61-.07 3.43v.89a1.71 1.71 0 01-.14.32z" fill="#263238"/><path d="M374.35 415.55c0 .14-27.82.31-62.12.37s-62.12 0-62.12-.16 27.8-.31 62.12-.37 62.12.02 62.12.16zm0 9.03c0 .14-27.62.18-61.67.09s-61.68-.28-61.67-.43 27.6-.18 61.67-.09 61.67.28 61.67.43zm-16.08-18.5v-5.41c0-3.51-.05-8.62-.08-15.08l.15.16-79.93.1c.11-.11-.27.26.25-.26v20.5l-.26-.25 57 .11 16.81.07h6.13a2.45 2.45 0 01-.38 0h-5.63l-16.75.07-57.18.12h-.25v-20.76c.52-.52.15-.14.27-.26l79.93.1h.16v.16c0 6.5-.07 11.64-.09 15.18v5a1.91 1.91 0 01-.15.45z" fill="#263238"/><path d="M313.13 390.85V400h-.93v-7.3l-3.58 6.14h-.46l-3.58-6.1V400h-.92v-9.12h.79l4 6.76 3.92-6.76zm8.69 6.68h-5.08l-1.1 2.44h-1l4.17-9.12h.95l4.17 9.12h-1zm-.35-.78l-2.19-4.9-2.19 4.9zm3.97-5.9h1V400h-1zm3.94 0h1v8.28h5.11v.87h-6.07z" fill="#263238"/><path d="M348 300.22v-15h-28v60.14a11.88 11.88 0 1011.51-.32v-44.82z" fill="#6266ea"/><circle cx="326.34" cy="355.4" r="4.58" fill="#263238"/><path d="M154.29 209.28a4.11 4.11 0 01.26.61 16 16 0 01.59 1.83 22.67 22.67 0 01.68 7 23.16 23.16 0 01-2.91 10 20.89 20.89 0 01-9.35 8.63 19.68 19.68 0 01-12.62 1.5 21 21 0 01-9.25-4.8 21.38 21.38 0 01-4.41-5.51 15.87 15.87 0 01-.84-1.72 2.76 2.76 0 01-.23-.63c.06 0 .39.84 1.25 2.25a22.2 22.2 0 004.47 5.33 20.84 20.84 0 009.11 4.61 19.33 19.33 0 0012.3-1.51 20.62 20.62 0 009.16-8.39 23.19 23.19 0 002.95-9.81 23.55 23.55 0 00-.51-6.94c-.36-1.58-.71-2.43-.65-2.45z" fill="#263238"/><path fill="#ebebeb" d="M239.41 364.08l13.65-.18-.53 46.37-12.67.5-.45-46.69z"/><path d="M239.86 410.77a81.14 81.14 0 016-6.91 79.89 79.89 0 016.44-6.56 84.76 84.76 0 01-6.06 6.91 82.82 82.82 0 01-6.38 6.56zm13.2-31.25a102.09 102.09 0 01-7-7.42 98.26 98.26 0 01-6.63-7.76 99.62 99.62 0 017 7.42 100.92 100.92 0 016.63 7.76zM137.15 160.7a3.6 3.6 0 006.08 2.61c1.93-1.83 1.27-5.05.07-7.43s-2.86-4.79-2.51-7.42c.27-2 1.67-3.67 2.61-5.48a11.47 11.47 0 00.25-10.24 9.67 9.67 0 00-8.55-5.35c-3.61.07-7.42 2.33-10.63.67-2.33-1.21-3.3-4-5.33-5.72-3.13-2.59-7.86-1.73-11.57 0s-7.26 4.12-11.33 4.32c-3.39.16-6.65-1.26-10-1.72A17.82 17.82 0 0071.06 155a11.37 11.37 0 006.87 3.64" fill="#263238"/><path d="M141.68 237.12a20.24 20.24 0 01-25.54-12.83c-2-6.06-3.71-11.16-3.71-11.16s-16.1 2.46-21.14-12.83-13-49.31-13-49.31l-.49-2.06c15.36-13.25 37.2-15.46 56.25-8.51l1 3.17 20 69.31a20.24 20.24 0 01-13.37 24.22z" fill="#ffbe9d"/><path d="M91.76 173.54a2.36 2.36 0 00-1.16-4.25 2.16 2.16 0 00-1.59.44 2.36 2.36 0 001.15 4.27 2.17 2.17 0 001.6-.46z" fill="#263238"/><path d="M85.37 171.62c.33.19 1.47-1.45 3.58-2.13s4-.07 4.13-.41c.08-.16-.31-.56-1.14-.86a5.46 5.46 0 00-6.16 2c-.49.78-.56 1.32-.41 1.4zm25.8-6.62a2.34 2.34 0 103.3-.24 2.35 2.35 0 00-3.3.24z" fill="#263238"/><path d="M108.37 166.47c.32.19 1.46-1.44 3.57-2.12s4-.07 4.14-.42c.08-.15-.31-.56-1.14-.85a5.46 5.46 0 00-6.16 2c-.49.76-.57 1.31-.41 1.39zm-2.97 20.12c0-.16-1.43 0-3.64.38-.57.12-1.06.14-1.21-.17a3 3 0 01-.11-1.72c.1-1.56.2-3.16.31-4.83.37-6.85.41-12.41.09-12.43s-.9 5.52-1.28 12.37c-.08 1.67-.15 3.26-.22 4.83a3.65 3.65 0 00.42 2.37 1.47 1.47 0 001.2.57 3.61 3.61 0 001-.17c2.15-.59 3.47-1.04 3.44-1.2z" fill="#263238"/><path d="M113 186.76c1.79-2-5 5.13-9.41 6.28a6.12 6.12 0 007.63.15c4.06-3.13 1.78-6.43 1.78-6.43z" fill="#fff"/><path d="M112.34 212.92a37.45 37.45 0 0018.21-12s-1.24 12.54-17 16z" fill="#eb996e"/><path d="M137.27 154.07c.31-.22 11.17-4.48 13.42 9.05s-12.16 11.31-12.25 10.93-1.17-19.98-1.17-19.98z" fill="#ffbe9d"/><path d="M141.8 168.62c0-.06.26.12.69.24a2.42 2.42 0 001.77-.26c1.34-.76 2.16-3.23 1.83-5.67a8 8 0 00-1.22-3.27 2.77 2.77 0 00-2.08-1.51 1.21 1.21 0 00-1.28.88c-.12.4 0 .66 0 .69s-.33-.17-.32-.75a1.58 1.58 0 01.4-.94 1.82 1.82 0 011.24-.56 3.37 3.37 0 012.81 1.69 8.16 8.16 0 011.36 3.64c.37 2.73-.6 5.52-2.46 6.4a2.53 2.53 0 01-2.22 0c-.44-.26-.56-.55-.52-.58z" fill="#eb996e"/><path d="M76.53 158.41s10.61 1.91 21.08-7.57c6.86-6.22 15.62-10.78 18.13-9.75s5.23 9.14 13.82 9.32c0 0 3.85 15.85 9.95 13.54s-4.62-25.53-4.62-25.53l-17.21-6.31-17.59 1.53-17.86 7.21-8.7 9.28zm55.8-33.41a16.51 16.51 0 00-3.26 1.65 16 16 0 00-2.47 2.7 6.05 6.05 0 015.73-4.35zm-8.17-4.39a4 4 0 01.72 1.32 14.58 14.58 0 011 3.5 10.17 10.17 0 01-.1 3.64 3.18 3.18 0 01-.52 1.42 20.83 20.83 0 00.1-5c-.42-2.72-1.36-4.82-1.2-4.88z" fill="#263238"/><path fill="#e0e0e0" d="M165.26 363.38l69.25-12.88 10.35 46.8-71.92 12.14-7.68-46.06z"/><path d="M234.51 350.5s0 .07-.12.19l-.39.55-1.54 2.06-5.76 7.53c-4.94 6.38-11.72 15.15-19.27 24.89l-.13.17-.19-.1-1.35-.71-28.69-15.25-8.66-4.68-2.35-1.29-.6-.35a.93.93 0 01-.2-.14l.22.09.63.3 2.39 1.24c2.11 1.09 5.08 2.64 8.75 4.53L206 384.62l1.34.71-.33.07 19.39-24.79 5.89-7.44c.69-.84 1.23-1.51 1.62-2 .18-.2.32-.37.43-.51z" fill="#263238"/><path d="M172.94 409.44c-.12-.08 4.33-7.14 9.95-15.77s10.26-15.57 10.38-15.49-4.33 7.14-10 15.77-10.21 15.57-10.33 15.49zm71.92-12.14c-.09.11-6.57-4.85-14.47-11.08s-14.23-11.37-14.14-11.48 6.56 4.84 14.47 11.07 14.28 11.37 14.14 11.49z" fill="#263238"/><path d="M167.08 373.82s.49 9.07 4.86 9 19.79-8.49 21.58-5.57-2.94 7-2.94 7 5.43-.08 3.41 3.17-8.07 18.47-13.66 19.9c-8 2.05-26.53 2.85-26.53 2.85l5.71-31.87z" fill="#ffbe9d"/><path d="M192.26 382.28a3.7 3.7 0 01-.58.65c-.4.39-1 .94-1.76 1.58a49.55 49.55 0 01-13.35 8c-.93.37-1.69.64-2.22.81a3 3 0 01-.85.21 26.54 26.54 0 012.93-1.36 66.35 66.35 0 0013.26-8 25.61 25.61 0 012.57-1.89zm-.26 8.98a9.91 9.91 0 01-1.59 2.28 25.53 25.53 0 01-11 7.58 10.24 10.24 0 01-2.7.69 23.87 23.87 0 012.57-1 30 30 0 0010.81-7.48 26.9 26.9 0 011.91-2.07z" fill="#eb996e"/></svg>