<svg xmlns="http://www.w3.org/2000/svg" viewBox="0 0 500 500"><path fill="#ebebeb" d="M0 382.4h500v.25H0zm416.78 16.09h33.12v.25h-33.12zm-94.25 2.72h8.69v.25h-8.69zm74.06-12h19.19v.25h-19.19zm-344.13 1.68h43.19v.25H52.46zm52.1 0h6.33v.25h-6.33zm26.91 4.22h93.68v.25h-93.68zM237 337.8H43.91a5.71 5.71 0 01-5.7-5.71V60.66a5.71 5.71 0 015.7-5.66H237a5.71 5.71 0 015.71 5.71v271.38a5.71 5.71 0 01-5.71 5.71zM43.91 55.2a5.46 5.46 0 00-5.45 5.46v271.43a5.46 5.46 0 005.45 5.46H237a5.47 5.47 0 005.46-5.46V60.66A5.47 5.47 0 00237 55.2zm409.4 282.6h-193.1a5.72 5.72 0 01-5.71-5.71V60.66a5.72 5.72 0 015.71-5.66h193.1a5.71 5.71 0 015.69 5.66v271.43a5.71 5.71 0 01-5.69 5.71zM260.21 55.2a5.47 5.47 0 00-5.46 5.46v271.43a5.47 5.47 0 005.46 5.46h193.1a5.47 5.47 0 005.46-5.46V60.66a5.47 5.47 0 00-5.46-5.46z"/><path d="M285.78 58.28A71.18 71.18 0 00246.15 78c-11.55 11.4-18.68 26.57-30.25 38a89.07 89.07 0 01-41.46 23.21c-12.89 3.13-25.1.7-37.84 4.52a110.3 110.3 0 00-77.91 91c-2.39 17.54-.37 36 8 51.63A68.9 68.9 0 0096 315c20.62 10.42 44.79 9.75 67.73 12.47A221.16 221.16 0 01226 344.29c24.78 10.8 47.75 26.21 73.92 33 31.32 8.12 66.54 2.45 92.09-17.41s39.88-54.19 33.39-85.89c-4-19.45-15-36.67-21.63-55.36a129.66 129.66 0 01-7.34-50.16c.83-16.06 4.63-32.47.43-48-3.15-11.71-10.65-21.83-19.27-30.36-22.65-22.46-59.26-36.95-91.81-31.83z" fill="#e6e6e6"/><path fill="#fff" d="M211.98 176.89h-5.11l-1.27-4.01-1.24 4.01h-5.25l4.14 3.58-1.98 6.41 4.33-4.39 4.44 4.39-2.06-6.48 4-3.51zm92.93 163.58h-5.12l-1.27-4.01-1.24 4.01h-5.25l4.14 3.58-1.98 6.41 4.33-4.39 4.44 4.39-2.05-6.48 4-3.51zm-92.53-93.85h-2.19l-.54-1.72-.53 1.72h-2.25l1.77 1.53-.84 2.74 1.85-1.87 1.9 1.87-.88-2.77 1.71-1.5zm137.32-15.29h-2.19l-.54-1.72-.53 1.72h-2.25l1.77 1.53-.84 2.74 1.85-1.88 1.9 1.88-.88-2.77 1.71-1.5zm-136.11-8.73h-2.18l-.55-1.72-.53 1.72h-2.24l1.77 1.53-.85 2.74 1.85-1.87 1.9 1.87-.88-2.77 1.71-1.5zm-76.67 7.41h-2.19l-.54-1.71-.53 1.71h-2.25l1.77 1.53-.84 2.75 1.85-1.88 1.9 1.88-.88-2.77 1.71-1.51zm8.99 41.71h-2.18l-.55-1.72-.53 1.72h-2.24l1.77 1.53-.85 2.74 1.85-1.88 1.9 1.88-.88-2.77 1.71-1.5zm193.96-83.45h-2.19l-.54-1.72-.53 1.72h-2.25l1.77 1.53-.84 2.74 1.85-1.87 1.9 1.87-.88-2.77 1.71-1.5zm-16.25-58.41h-1.58l-.39-1.25-.39 1.25h-1.62l1.28 1.1-.61 1.98 1.34-1.35 1.37 1.35-.64-2 1.24-1.08zm-91.9 58.77h-1.58l-.39-1.25-.39 1.25h-1.62l1.28 1.1-.61 1.98 1.34-1.35 1.37 1.35-.63-2 1.23-1.08zm-59.3 12.78h-1.58l-.4-1.24-.38 1.24h-1.62l1.28 1.1-.61 1.99 1.33-1.36 1.37 1.36-.63-2 1.24-1.09zm85.26-71.7h-1.58l-.39-1.24-.39 1.24h-1.62l1.28 1.1-.61 1.98 1.34-1.35 1.37 1.35-.64-2 1.24-1.08zm118.61 77.28h-1.58l-.39-1.24-.39 1.24h-1.62l1.28 1.11-.61 1.98 1.34-1.36 1.37 1.36-.64-2 1.24-1.09zm-41.16-49h-1.57l-.4-1.24-.38 1.24h-1.63l1.29 1.11-.62 1.98 1.34-1.36 1.37 1.36-.63-2 1.23-1.09zm48.86 79.93h-1.58l-.4-1.24-.38 1.24h-1.62l1.28 1.11-.61 1.98 1.33-1.36 1.38 1.36-.64-2.01 1.24-1.08zm-36.43 62.09h-1.58l-.4-1.24-.38 1.24h-1.62l1.28 1.1-.61 1.98 1.33-1.35 1.37 1.35-.63-2 1.24-1.08zm-26.86-66.17h-1.58l-.39-1.24-.39 1.24h-1.62l1.28 1.11-.61 1.98 1.34-1.35 1.37 1.35-.64-2 1.24-1.09zm-89.86 9.66h-1.58l-.4-1.24-.38 1.24h-1.62l1.28 1.11-.61 1.98 1.33-1.35 1.38 1.35-.64-2 1.24-1.09zm-71.32 75.79h-2.19l-.54-1.72-.54 1.72h-2.24l1.77 1.53-.84 2.74 1.85-1.88 1.9 1.88-.88-2.77 1.71-1.5zm183.1 49.35h-2.18l-.55-1.71-.53 1.71h-2.25l1.78 1.53-.85 2.74 1.85-1.87 1.9 1.87-.88-2.77 1.71-1.5zM210.38 275.3h-2.19l-.54-1.72-.53 1.72h-2.25l1.78 1.53-.85 2.74 1.85-1.87 1.9 1.87-.88-2.77 1.71-1.5z"/><circle cx="369.47" cy="317.57" r="9.1" transform="rotate(-22.5 369.463 317.557)" fill="#fff"/><path d="M285.75 102.71a5.14 5.14 0 11-5.14-5.14 5.14 5.14 0 015.14 5.14zM99.69 213.66L95.46 215a5.2 5.2 0 00-5.79 3.42l-3.27 3.05a.42.42 0 00.41.71l4.24-1.28a5.17 5.17 0 005.95-3.43l3.16-3.06a.45.45 0 00-.47-.75z" fill="#fff"/><ellipse cx="250" cy="416.24" rx="193.89" ry="11.32" fill="#f5f5f5"/><path fill="#263238" d="M405.99 353.04l13.87-8.94-4.3 11.74h-10.37l.8-2.8z"/><path fill="#fff" opacity=".2" d="M405.99 353.04l13.87-8.94-4.3 11.74h-10.37l.8-2.8z"/><path fill="#fff" opacity=".4" d="M406.27 353.17l13.44-8.66-4.15 11.33h-10.12l.83-2.67z"/><path fill="#263238" d="M419.89 361.27l10.69-25.03h-6.86l-9.85 25.49 6.02-.46z"/><path fill="#fff" opacity=".2" d="M419.89 361.27l10.69-25.03h-6.86l-9.85 25.49 6.02-.46z"/><path fill="#fff" opacity=".4" d="M419.89 361.27l10.6-24.82h-6.66l-9.75 25.26 5.81-.44z"/><path fill="#263238" d="M420.31 361.18l10.61-25.1 5.92-.15-10.21 24.35-6.32.9z"/><path fill="#fff" opacity=".2" d="M420.31 361.18l10.61-25.1 5.92-.15-10.21 24.35-6.32.9z"/><path fill="#fff" opacity=".4" d="M420.43 361.16l10.65-24.92 5.7-.16-10.15 24.2-6.2.88z"/><path fill="#263238" d="M437.18 335.78l5.68-.12-10.18 23.61-5.68.82 10.18-24.31z"/><path fill="#fff" opacity=".2" d="M437.18 335.78l5.68-.12-10.18 23.61-5.68.82 10.18-24.31z"/><path fill="#fff" opacity=".4" d="M437.28 335.93l5.53-.16-10.13 23.5-5.55.8 10.15-24.14z"/><path fill="#263238" d="M443.22 335.66l4.98-.15-9.78 22.93-5.44.8 10.24-23.58z"/><path fill="#fff" opacity=".2" d="M443.22 335.66l4.98-.15-9.78 22.93-5.44.8 10.24-23.58z"/><path fill="#fff" opacity=".4" d="M443.33 335.77l4.84-.18-9.75 22.85-5.28.77 10.19-23.44z"/><path fill="#6266ea" d="M400.17 355.92l-8.75 24.07 16.37-4.54 8.1-23.33-15.72 3.8z"/><path opacity=".2" d="M400.17 355.92l-8.75 24.07 16.37-4.54 8.1-23.33-15.72 3.8z"/><path fill="#6266ea" d="M377.32 342.56l22.85 13.36-8.75 24.07-22.27-14.8 8.17-22.63z"/><path opacity=".05" d="M377.32 342.56l22.85 13.36-8.75 24.07-22.27-14.8 8.17-22.63z"/><path fill="#6266ea" d="M377.32 342.56l16.86-1.3 21.71 10.86-15.72 3.8-22.85-13.36z"/><path fill="#fff" opacity=".4" d="M377.32 342.56l16.86-1.3 21.71 10.86-15.72 3.8-22.85-13.36z"/><path fill="#263238" d="M406.42 333.64l.64.33-5.43 14.59-.81-.25 5.6-14.67z"/><path fill="#fff" opacity=".4" d="M406.42 333.64l.25.13-5.58 14.62-.27-.08 5.6-14.67z"/><path fill="#fff" opacity=".2" d="M407.06 333.97l-.39-.2-5.58 14.62.54.17 5.43-14.59z"/><path fill="#263238" d="M327.66 339.96l-11.26 36.62 12.96-2.02 11.43-35.08-13.13.48z"/><path fill="#fff" opacity=".2" d="M327.66 339.96l-11.26 36.62 12.96-2.02 11.43-35.08-13.13.48z"/><path fill="#fff" opacity=".4" d="M327.86 340.17l-11.18 36.37 12.68-1.98 11.33-34.79-12.83.4z"/><path fill="#263238" d="M341.35 339.48l-11.26 35.08 12.23-1.79 11.18-33.78-12.15.49z"/><path fill="#fff" opacity=".2" d="M341.35 339.48l-11.26 35.08 12.23-1.79 11.18-33.78-12.15.49z"/><path fill="#fff" opacity=".4" d="M341.56 339.77l-11.18 34.74 11.94-1.74 11.12-33.57-11.88.57z"/><path fill="#263238" d="M353.99 339l-11.14 33.49 11.14-1.42 11.14-32.36-11.14.29z"/><path fill="#fff" opacity=".2" d="M353.99 339l-11.14 33.49 11.14-1.42 11.14-32.36-11.14.29z"/><path fill="#fff" opacity=".4" d="M354.14 339.2l-10.99 33.25 10.84-1.38 11.04-32.08-10.89.21z"/><path fill="#263238" d="M365.58 338.42l-11.26 32.49 10.57-1.5 10.93-31.35-10.24.36z"/><path fill="#fff" opacity=".2" d="M365.58 338.42l-11.26 32.49 10.57-1.5 10.93-31.35-10.24.36z"/><path fill="#fff" opacity=".4" d="M365.7 338.63l-11.13 32.25 10.32-1.47 10.86-31.15-10.05.37z"/><path fill="#263238" d="M385.49 355.6l-1.33 3.85-16.48 3.28 5.76-16.04 12.05 8.91z"/><path fill="#fff" opacity=".2" d="M385.49 355.6l-1.33 3.85-16.48 3.28 5.76-16.04 12.05 8.91z"/><path fill="#fff" opacity=".4" d="M385.37 355.92l-1.21 3.53-16.18 3.22 5.58-15.66 11.81 8.91z"/><path d="M416.25 353.81l-15.71 29.27c-4.2-2-4.23-13.91-1.1-20.75 3.87-6.64 12.46-9.9 16.81-8.52z" fill="#263238"/><path d="M401.8 380.72l-.68 1.27c-3.89-3.67-3.56-14.19-1.68-19.66-2.96 11.73 2.36 18.39 2.36 18.39z" opacity=".2"/><path d="M416.25 353.81l-15.71 29.27c-4.2-2-4.23-13.91-1.1-20.75 3.87-6.64 12.46-9.9 16.81-8.52z" fill="#fff" opacity=".3"/><path d="M400.42 361.42c6.21-5.42 10.63-6.27 14.52-5.17l.63-1.18c-4.81-.6-9.3.56-15.15 6.35z" fill="#fff" opacity=".2"/><path d="M402.33 364.87c-4.6 8-5.62 16-2.28 17.92s9.77-3 14.37-10.94 5.62-16 2.28-17.91-9.77 2.97-14.37 10.93z" fill="#6266ea"/><path d="M402.33 364.87c-4.6 8-5.62 16-2.28 17.92s9.77-3 14.37-10.94 5.62-16 2.28-17.91-9.77 2.97-14.37 10.93z" fill="#fff" opacity=".4"/><path d="M402.35 364.57a29.63 29.63 0 00-2.21 4.94 3.14 3.14 0 001.12 3.67c1.6.92 4.69-1.43 6.9-5.25s2.7-7.68 1.1-8.61c-.94-.54-2.75-.19-4.06 1.31a26.32 26.32 0 00-2.85 3.94z" opacity=".2"/><path d="M410.76 367.28l-4.18-1.69-2.37-2.59a2.48 2.48 0 00-1.71 2.77l3.22 1.06 3.2 3.61z" fill="#263238"/><path d="M410.76 367.28l-4.18-1.69-2.37-2.59a2.48 2.48 0 00-1.71 2.77l3.22 1.06 3.2 3.61z" fill="#fff" opacity=".2"/><path d="M409.17 368.49c-.51.89-.62 1.77-.25 2s1.08-.33 1.59-1.21.62-1.77.25-2-1.08.33-1.59 1.21z" fill="#263238"/><path d="M409.17 368.49c-.51.89-.62 1.77-.25 2s1.08-.33 1.59-1.21.62-1.77.25-2-1.08.33-1.59 1.21z" fill="#fff" opacity=".4"/><path d="M402.87 364.06a3.07 3.07 0 00-.37 1.75l3.22 1.06 3.2 3.61c-.4-.3-.12-1.5.34-2.13 0 0-1.26-.79-6.39-4.29z" opacity=".2"/><path fill="#fff" opacity=".2" d="M410.48 367.25l-4.01-1.51-2.49-2.61-.16.06 2.58 2.58 3.85 1.56.23-.08z"/><g opacity=".2"><path d="M409.37 368.61c-.43.75-.53 1.51-.22 1.69s.93-.28 1.36-1 .53-1.51.22-1.7-.93.25-1.36 1.01z"/><path d="M409.37 368.61c-.43.75-.53 1.51-.22 1.69s.93-.28 1.36-1 .53-1.51.22-1.7-.93.25-1.36 1.01z" opacity=".4"/></g><path fill="#263238" d="M402.75 380.94l.2.32 11.46-5.59-.15-.3-11.51 5.57z"/><path fill="#fff" opacity=".1" d="M402.75 380.94l.2.32 11.46-5.59-.15-.3-11.51 5.57z"/><path fill="#263238" d="M417.71 359.69h.3l.32 10.04h-.4l-.22-10.04z"/><path fill="#fff" opacity=".1" d="M417.71 359.69h.3l.32 10.04h-.4l-.22-10.04z"/><path fill="#263238" d="M404.26 362.14l14.07 7.59-.17.23L404 362.4l.26-.26z"/><path fill="#fff" opacity=".1" d="M404.26 362.14l14.07 7.59-.17.23L404 362.4l.26-.26z"/><path fill="#263238" d="M403.65 363.11l.24-.3 10.62 12.42-.16.24-10.7-12.36z"/><path fill="#fff" opacity=".1" d="M403.65 363.11l.24-.3 10.62 12.42-.16.24-10.7-12.36z"/><path d="M415.1 372.19c-1 1.79-1.26 3.59-.51 4s2.2-.66 3.23-2.45 1.26-3.59.51-4-2.19.66-3.23 2.45z" fill="#263238"/><path d="M415.1 372.19c-1 1.79-1.26 3.59-.51 4s2.2-.66 3.23-2.45 1.26-3.59.51-4-2.19.66-3.23 2.45z" fill="#fff" opacity=".2"/><path d="M415.38 372.35c-.93 1.61-1.13 3.22-.46 3.61s2-.6 2.9-2.2 1.13-3.23.46-3.62-1.97.6-2.9 2.21z" opacity=".1"/><path opacity=".2" d="M384.16 359.45l-15.01 5.74 1.1-3.05 13.91-2.69z"/><circle cx="397.23" cy="130.63" r="26.63" fill="#6266ea"/><circle cx="397.23" cy="130.63" r="26.63" fill="#fff" opacity=".4"/><circle cx="397.23" cy="130.63" r="26.63" fill="#fff" opacity=".4"/><path d="M373.77 118c-.6 3 1.48 4.26 6.05 4a78.16 78.16 0 0031.09-8.38c2.12-1.45 2.33-3.1 1.53-4.86 12.93 10.27 13.83 24 8.2 34.55a10.65 10.65 0 01-5.81 4.33 82.37 82.37 0 01-21.52 5.27c-6.83 1-10.84.55-12.38-1.23-11.65-9.03-12.63-22.88-7.16-33.68z" fill="#fff" opacity=".2"/><path d="M370.6 130.63A25.23 25.23 0 00375 145c1.4 2 5.93 2.4 13 1.41a100.62 100.62 0 0026.79-6.56c4.68-1.84 7.78-4.19 9.11-7.14a27 27 0 00-2.72-13.7c-.41 3.68-2.93 6.73-8 9a136.59 136.59 0 01-30.73 7.59c-6.69.77-11.3-.33-11.85-4.97z" fill="#fff" opacity=".2"/><path d="M386.52 107.19a40.11 40.11 0 017.86-2.15c3.53-.36 4.14.24 3.75 1.17a12 12 0 01-3.66 2.56 22.22 22.22 0 01-6.7 1.73c-1.61.07-3.32.11-4.29-.63-.48-.87.96-1.79 3.04-2.68z" opacity=".1"/><path d="M440.24 117.55c-1.33-4.1-10.08-5.25-22.29-3.64a23.65 23.65 0 012.82 4.26c4.37.17 7.26 1.21 7.89 3.14 1.54 4.77-11.27 13.19-28.62 18.8s-32.66 6.31-34.2 1.54c-.67-2 .94-4.47 4.78-7.35-.05 0 .27-.21.22-.18a27.24 27.24 0 01-.18-5c-11.14 5.94-17.78 12.13-16.43 16.29 2.12 6.53 23.09 5.59 46.85-2.11s41.28-19.22 39.16-25.75z" fill="#6266ea"/><path d="M440.24 117.55c-1.33-4.1-10.08-5.25-22.29-3.64a23.65 23.65 0 012.82 4.26c4.37.17 7.26 1.21 7.89 3.14 1.54 4.77-11.27 13.19-28.62 18.8s-32.66 6.31-34.2 1.54c-.67-2 .94-4.47 4.78-7.35-.05 0 .27-.21.22-.18a27.24 27.24 0 01-.18-5c-11.14 5.94-17.78 12.13-16.43 16.29 2.12 6.53 23.09 5.59 46.85-2.11s41.28-19.22 39.16-25.75z" fill="#fff" opacity=".3"/><circle cx="113.7" cy="178.56" r="39.01" transform="rotate(-45 113.703 178.563)" fill="#6266ea"/><circle cx="113.7" cy="178.56" r="39.01" transform="rotate(-45 113.703 178.563)" fill="#fff" opacity=".4"/><path d="M141.7 181.57l-.89.13a.81.81 0 01-.65-.18l-1.44-1.21a1.37 1.37 0 00-.2-.13l-4.2-1.81a.82.82 0 01-.35-.29l-2.37-3.35a1 1 0 00-.42-.35l-1.39-.64a.66.66 0 00-.2-.06l-1.47-.22a1.34 1.34 0 01-.56-.24l-3.12-2.36a.91.91 0 00-.43-.17l-2.29-.3a.83.83 0 00-.44.06l-.62.27a.84.84 0 01-.66 0l-2.73-1.26a.78.78 0 00-.52-.06l-2.42.54a.76.76 0 00-.39.24l-1 1.1a.72.72 0 01-.69.22l-2-.42-4.21-1.88-1.37-2.14a.79.79 0 01-.1-.56l.3-1.66 1-2.38a.14.14 0 00-.15-.2l-1.77.21a.73.73 0 00-.54.36l-.52.9a.86.86 0 01-.55.4l-2.42.54a.45.45 0 01-.54-.3l-.3-.91-.74-1.36a.71.71 0 010-.74l1.2-1.75.47-1.21a.77.77 0 01.31-.38l1.59-1a.85.85 0 01.54-.12l1.51.21a.69.69 0 00.54-.15l.61-.48a.73.73 0 01.38-.14l1.69-.12a.82.82 0 01.4.08l.91.42a.52.52 0 01.29.47v.81a.48.48 0 00.48.48h.27a.63.63 0 00.62-.68l-.08-.7-.16-1.42a.66.66 0 01.36-.67l1.62-.81 2.12-2.33 1.44-2.17 2.66-.83a.55.55 0 00.39-.52v-1.3a.51.51 0 01.39-.5l1.76-.43a.68.68 0 00.39-.26l.73-1.08a.29.29 0 00-.14-.44l-3.21-1.18-2.35-1.14a.64.64 0 00-.64.05l-3 2.09a.74.74 0 01-.72.06l-2.17-1-1.63-.75a.18.18 0 010-.33l1.65-.55a.56.56 0 00.2-.11l2.24-1.88a38.74 38.74 0 00-16 4.4 72.16 72.16 0 00-4.2 15.72.8.8 0 00.25.68l6.14 5.88a.67.67 0 00.4.18l2.28.25a.68.68 0 01.32.11l8.8 5.29a.62.62 0 01.31.61l-.85 8.89a1.45 1.45 0 00.22.95l4.3 6.83a.93.93 0 00.21.23l3.3 2.54a.56.56 0 01.21.53l-1.18 7.22-2.25 11.15c.22 1.5 2.17.58 5-1.52l2.81-4.62 2.47-1 6.32-4.51 4.35-4.93 2.34-5.18a1.14 1.14 0 01.15-.23l2.38-2.73 1.59-1.65a.83.83 0 00.23-.56v-2.38a.17.17 0 00-.2-.18z" opacity=".2"/><path d="M90.18 161.93zm57.55 15.62zm2.58-3.29zm0-.05v-.01.01zm-19.23-26.37h-.05a.13.13 0 000-.06z" fill="#fff"/><path d="M281.61 248.5c3.26 1.72 28.6 30.3 21.84 43.89-5 10-36.25 14.65-36.25 14.65l-3.85-8.53s22.88-8.1 24.23-11.65-24.36-22.45-24.36-22.45z" fill="#6266ea"/><path d="M281.61 248.5c3.26 1.72 28.6 30.3 21.84 43.89-5 10-36.25 14.65-36.25 14.65l-3.85-8.53s22.88-8.1 24.23-11.65-24.36-22.45-24.36-22.45z" fill="#fff" opacity=".3"/><path d="M278.13 292.63c-.82 3.32-3.2 5.88-8.06 7.26l3 6.07-.62.13-4.74-9.2z" opacity=".2"/><path d="M266.78 295l6.63 12.88-12.77 2.89a1.33 1.33 0 00-1 1.7l1.52 4.69a2 2 0 01-.85 2.27l-1 .6a1.37 1.37 0 01-1.84-.42l-11-16.61a.82.82 0 01.42-1.23z" fill="#6266ea"/><path d="M266.78 295l6.63 12.88-12.77 2.89a1.33 1.33 0 00-1 1.7l1.52 4.69a2 2 0 01-.85 2.27l-1 .6a1.37 1.37 0 01-1.84-.42l-11-16.61a.82.82 0 01.42-1.23z" fill="#fff" opacity=".2"/><path d="M255 299a40.39 40.39 0 0014.38 1l-2.6-5.05zm25.34-20.92l2.1 1.92c2.14-7.73-1.72-15.13-3-25l-1.85.52a101.08 101.08 0 012.75 22.56z" opacity=".2"/><path fill="#6266ea" d="M224.16 331.24L206 338.21l-3.4-26.71 17.94-7.19 3.62 26.93z"/><path opacity=".2" d="M224.16 331.24L206 338.21l-3.4-26.71 17.94-7.19 3.62 26.93z"/><path d="M212.72 305c10.81-22.13 21.65-38.08 32.57-40.2L328 241c19.84-3 37.74 2.86 53.59 18.18-2.93 24.86-15 37.91-32.32 44.09l-85.54 22.48c-7.81 1.94-23.85-4.08-51.01-20.75z" fill="#6266ea"/><path d="M189.65 307.71L218.78 294c7.62 5 8.43 12.46 6.07 18.34l-29.56 9.73c-6.35-3.78-7.65-7.94-5.64-14.36zm-20.42-6.6l-11.91 1.07a17 17 0 00-9.87 4.31l-36.81 33.28 49.81 4.23a17 17 0 007.86-1.19l9.54-3.9a17 17 0 0010.23-12.34l.38-1.86a17 17 0 00-.47-8.53l-1.08-3.37a17 17 0 00-3.23-5.83 17 17 0 00-14.45-5.87z" fill="#6266ea"/><path d="M169.23 301.11l-11.91 1.07a17 17 0 00-9.87 4.31l-36.81 33.28 49.81 4.23a17 17 0 007.86-1.19l9.54-3.9a17 17 0 0010.23-12.34l.38-1.86a17 17 0 00-.47-8.53l-1.08-3.37a17 17 0 00-3.23-5.83 17 17 0 00-14.45-5.87z" fill="#fff" opacity=".19"/><path d="M176.66 309.59l-6.07.55a8.65 8.65 0 00-5 2.19l-18.75 16.95 25.37 2.18a8.68 8.68 0 004-.61l4.86-2a8.66 8.66 0 005.21-6.29l.19-.95a8.63 8.63 0 00-.23-4.34l-.55-1.72a8.68 8.68 0 00-1.65-3 8.64 8.64 0 00-7.38-2.96z" fill="#fff" opacity=".29"/><path d="M179 313.22l-3.8.34a5.44 5.44 0 00-3.14 1.38l-11.72 10.6 15.86 1.36a5.52 5.52 0 002.51-.38l3-1.24a5.42 5.42 0 003.25-3.94l.12-.59a5.42 5.42 0 00-.15-2.71l-.34-1.08a5.43 5.43 0 00-1-1.85 5.42 5.42 0 00-4.59-1.89z" fill="#6266ea"/><path d="M212.72 305c10.81-22.13 21.65-38.08 33.23-40.39l82.65-23.76c19.19-2.85 37.09 3.05 52.94 18.37-2.93 24.86-15 37.91-32.32 44.09l-85.54 22.48c-7.76 1.9-23.8-4.12-50.96-20.79z" opacity=".1"/><path d="M189.65 307.71L218.78 294c-1.85 8.05 2.19 14.49 6.07 18.34l-29.56 9.73c-6.35-3.78-7.65-7.94-5.64-14.36z" fill="#6266ea"/><path fill="#6266ea" d="M185.14 352.34l27.83-10.63 5.04-33.55-20.83 8.02-12.04 36.16z"/><path fill="#fff" opacity=".3" d="M185.14 352.34l27.83-10.63 5.04-33.55-20.83 8.02-12.04 36.16z"/><path fill="#6266ea" d="M160.96 285.79l30.33-9.22 24.75 21.83-23.93 9.85-31.15-22.46z"/><path fill="#fff" opacity=".3" d="M160.96 285.79l30.33-9.22 24.75 21.83-23.93 9.85-31.15-22.46z"/><path d="M315.33 244.67l4.18-1.2a12.15 12.15 0 00-5.23 8.68c-3.67 19.32 1.14 37 13.36 52.31 2 2.06 5.27 2.57 8.06 2.4l-3.58.94c-3.78.25-5.53-1-7.72-3-12.31-11.79-17.73-35.29-13.47-52.38.78-4.04 2.66-7.25 4.4-7.75z" fill="#fff" opacity=".7"/><path d="M305.8 247.41l4-1.15c-2.54 1.1-4.68 5.15-5.23 8.64-3.66 19.32 1.18 36.77 13.36 52.31 1.72 1.91 5.19 2.39 8 2.23l-3.74.95c-3.78.25-5.43-.65-7.48-2.82-12.31-11.79-17.74-35.29-13.48-52.38.6-4.03 3.38-7.44 4.57-7.78z" fill="#fff" opacity=".7"/><path d="M378.75 257.93c-.77 2.07-.42 3.65 1.53 4.5l25.81-7.8c3.87-1.59 5.3-2.6-.46-1.87z" fill="#6266ea"/><path d="M378.75 257.93c-.77 2.07-.42 3.65 1.53 4.5l25.81-7.8c3.87-1.59 5.3-2.6-.46-1.87z" opacity=".3"/><path d="M222.44 309.57c16.57 6 35.21 14.07 43.12 11.69L350 298.81c11.13-1.65 21.36-23.3 29.08-37.18-9 12.78-18.1 31.61-31.33 34.33L265.56 318c-9.56 3.17-27.77-4.41-43.12-8.43z" opacity=".2"/><path d="M319.52 245.56a8 8 0 00-3.11 4.95l14-3.88c13.19-2.87 36.45 5.83 48 13-10-8.88-34.82-19.62-47-16.69z" fill="#fff" opacity=".4"/><path opacity=".3" d="M378.65 261.02l1.12 1.15 29.44-9.05-30.56 7.9z"/><path d="M274.07 256.53l-.72 39.88-28.15.15c14.67 5.65 29.3 7.34 33.11 1.65 6.59-11 6.3-26.14 2-43.49z" opacity=".2"/><path d="M280.77 256.48l22.32-6.24a8.35 8.35 0 00-1.62 3.74l-20 5.68z" fill="#e6e6e6" opacity=".2"/><path d="M255.57 264.68l-11.31 3.61a23 23 0 00-7 5.15l-6.12 7.09 4.21.92 5.08-5.92a17.28 17.28 0 015.57-4.28l10.79-3.83z" fill="#e0e0e0" opacity=".2"/><path d="M233.89 211l15.18 11.66 24.47 3.12 15.17-35.08-7.15-9.84-32.49-11.61c-8.17 11.62-11.99 26.07-15.18 41.75z" fill="#6266ea"/><path d="M233.89 211l15.18 11.66 24.47 3.12 15.17-35.08-7.15-9.84-32.49-11.61c-7.07 10.2-12.01 24.4-15.18 41.75z" fill="#fff" opacity=".2"/><path d="M233.89 211l15.18 11.65 15.71-38.82c-5.08-2.91-10.31-7.71-15.71-14.58-6.36 8.34-11.35 22.58-15.18 41.75z" opacity=".3"/><path d="M275.41 248.53c2.06 3 10.82 40.31-1.56 49.09-9.1 6.45-38.87-4.23-38.87-4.23l.63-9.34s24 3.69 26.87 1.2-10.16-25.2-10.85-31.3 23.78-5.42 23.78-5.42z" fill="#6266ea"/><path d="M275.41 248.53c2.06 3 10.82 40.31-1.56 49.09-9.1 6.45-38.87-4.23-38.87-4.23l.63-9.34s24 3.69 26.87 1.2-10.16-25.2-10.85-31.3 23.78-5.42 23.78-5.42z" fill="#fff" opacity=".3"/><path d="M246.06 283.75l-.92 14.45-12.45-4.07a1.32 1.32 0 00-1.7 1l-1.1 4.8a2 2 0 01-1.9 1.51h-1.16a1.37 1.37 0 01-1.37-1.3l-.92-19.91a.82.82 0 011-.84zm51.05-92.11s4.55 22.27 7.66 26.74 19 19.47 19 19.47l-1.5 4.66s-23.86-15.31-25.5-17.46S284 202 284 202z" fill="#6266ea"/><path d="M304.77 166.76s-1.3 6.33-6.2 7.72.08-12.18.08-12.18l4.48-1.1z" fill="#263238"/><circle cx="291.59" cy="169.54" r="17.8" transform="rotate(-45 291.586 169.541)" fill="#263238"/><circle cx="291.59" cy="169.54" r="17.8" transform="rotate(-45 291.586 169.541)" fill="#fff" opacity=".2"/><path d="M296 183.27a14.8 14.8 0 009.18-6l-1.37-.81a24.17 24.17 0 01-8.84 6zm9.65-6.94l-1.42-.67a2.81 2.81 0 00.65-1.3l1.33.68a2.19 2.19 0 01-.56 1.29z" fill="#fff" opacity=".7"/><path d="M278.33 182.74c-1 3.67 9.56 8.83 13.26 5.16-2-1.51-2.52-3.09-2.27-4.63a7.1 7.1 0 011.09-2.61 12.76 12.76 0 01.92-1.3l-4.5-9.32c-.93 4.1-3.01 13.36-8.5 12.7z" fill="#e4897b"/><path d="M286.71 174.4c-2 4.57 1 7.69 2.61 8.87a7.1 7.1 0 011.09-2.61z" style="isolation:isolate" opacity=".2"/><path d="M285.22 176.16a7 7 0 006.65 5.35 7.83 7.83 0 005.47-1.89 6.43 6.43 0 00.6-.57c3.54-3.76 7-11.33 3.36-16a7.63 7.63 0 00-12.94 1.39c-2.49 5.02-4.18 7.85-3.14 11.72z" fill="#e4897b"/><path d="M294.94 170a.69.69 0 00.05 1c.27.15.66 0 .88-.45s.2-.83-.06-1-.64.08-.87.45zm4.45 2.59a.71.71 0 00.06 1c.26.14.65-.06.88-.45s.2-.84-.06-1-.66.07-.88.45z" fill="#263238"/><path d="M297.87 172a15.79 15.79 0 00-.05 4.45 2.63 2.63 0 01-2.1-.73z" fill="#de5753"/><path d="M294.38 167.8a.28.28 0 00.28 0 2.13 2.13 0 011.92.08.27.27 0 00.3-.44 2.64 2.64 0 00-2.43-.13.27.27 0 00-.15.35.44.44 0 00.08.14zm-.47 9.56a4.09 4.09 0 01-2.5-2.83.15.15 0 01.12-.17.14.14 0 01.16.11 3.94 3.94 0 002.31 2.63.13.13 0 01.08.17.14.14 0 01-.18.08zm8.28-5.21a.22.22 0 00.13.08.26.26 0 00.29-.24 2.64 2.64 0 00-.93-2.25.26.26 0 00-.37.05.27.27 0 00.06.37 2.19 2.19 0 01.7 1.8.28.28 0 00.12.19zm-17.05-4.75c1.1-4.94 2.87-8.55 4.64-9.37s6.15 5.24 6.15 5.24a2 2 0 00-3.28 1.16c-.23 2.2-2.74 4.52-4.74 4.94 0 0 .37-.82-.4-1s-2.71 4.1-2.41 6.76c0 .02-1.1-2.79.04-7.73z" fill="#263238"/><path d="M284 167.23a5.31 5.31 0 001.31 3.84c1.23 1.39 2.86.53 3.36-1.17.43-1.51.34-4.09-1.32-4.84a2.37 2.37 0 00-3.35 2.17z" fill="#e4897b"/><path d="M288.24 160.41s3.45-4 10.18-3.46c8.23.69 7.13 12.1 5.73 12.59-1.09.18-.24-4.83-1.41-4.36-.9.67-.9 1.2-1.84 1.11-.53 0-1.16-1.18-1.79-2.43-1.23-1.28-4.05 2.82-6.14 3.67-1.9-.53-3.49-4.53-4.73-7.12z" fill="#263238"/><path d="M248.87 228.54c-.58 9.46.63 21.45 3.6 28.57l25.14-1.58 8.83-2.56c-1.66-1.71-5.45-10.72-2.87-24.84z" fill="#6266ea"/><path d="M248.87 228.54c-.58 9.46.63 21.45 3.6 28.57l25.14-1.58 8.83-2.56c-1.86-2-5.3-10.71-2.87-24.84z" fill="#fff" opacity=".3"/><path opacity=".2" d="M277.61 255.53l1.39-4.81 4.91 2.99-6.3 1.82z"/><path d="M286.71 170.61l-.32 2.34a4.22 4.22 0 00.26 2.14l.15.37a4.21 4.21 0 003.27 2.6l1.51.23v.71l-2-.38a4.23 4.23 0 01-3.1-2.53l-.35-.85a4.23 4.23 0 01-.24-2.41l.45-2.34z" fill="#263238"/><path d="M286.71 170.61l-.32 2.34a4.22 4.22 0 00.26 2.14l.15.37a4.21 4.21 0 003.27 2.6l1.51.23v.71l-2-.38a4.23 4.23 0 01-3.1-2.53l-.35-.85a4.23 4.23 0 01-.24-2.41l.45-2.34z" fill="#fff" opacity=".2"/><rect x="291.08" y="177.87" width="2.23" height="1.88" rx=".58" fill="#263238"/><rect x="285.56" y="167.48" width="2.05" height="3.45" rx=".63" fill="#263238"/><path d="M297.11 191.64s4.55 22.27 7.66 26.74 19.71 20.15 19.71 20.15l-2.83 3.54s-23.22-14.87-24.86-17S284 202 284 202z" fill="#fff" opacity=".15"/><path opacity=".2" d="M289.28 207.41l3.66 11.06-4.59-8.36.93-2.7z"/><path d="M248.69 231.49l34.31 2.18s4-31.33 15-41.37l-5.65-4.65-15-5.2s-7.66-.21-12.16.75a46.84 46.84 0 00-3.8 5.42 80.14 80.14 0 00-5.84 11.52 93.27 93.27 0 00-6.86 31.35z" style="isolation:isolate" fill="#6266ea"/><path d="M283.2 232.28l-11-7.8c-2-1.92-7.58-15.31-11.76-24.18l23.44 28.24z" opacity=".2"/><path d="M271.93 182.5h1.26l22.3 7.74.93.76a3 3 0 01-1.54 1.65l-1.29.62c-8.18-2.98-15.8-5.84-21.66-10.77z" fill="#263238" opacity=".2"/><path d="M273.64 189.64s6.21 21.65 9.32 26.12 24.13 25.05 24.13 25.05l-3.36 3.79s-27.91-18.71-29.55-20.86-13.58-22.81-13.58-22.81c-3.2-8.81 8.4-22.55 13.04-11.29z" fill="#6266ea"/><path d="M273.64 189.64s6.21 21.65 9.32 26.12 24.13 25.05 24.13 25.05l-3.36 3.79s-27.91-18.71-29.55-20.86-13.58-22.81-13.58-22.81c-3.2-8.81 8.4-22.55 13.04-11.29z" fill="#fff" opacity=".15"/><path d="M263.57 198.93l2.28 4.68c1-3.76 2.8-6 5.48-6.62l-2.66-5.35a11.79 11.79 0 00-5.1 7.29z" fill="#6266ea"/><path d="M246.06 283.75l-.92 14.45-12.45-4.07a1.32 1.32 0 00-1.7 1l-1.1 4.8a2 2 0 01-1.9 1.51h-1.16a1.37 1.37 0 01-1.37-1.3l-.92-19.91a.82.82 0 011-.84z" fill="#fff" opacity=".2"/><path d="M300.56 231.88l-8.35 8.46 11.73 5.31 2.7 6.15a.78.78 0 001.26.24l5.83-5.74a.72.72 0 00-.05-1.08l-5.45-4.53z" fill="#6266ea"/><path d="M300.56 231.88l-8.35 8.46 11.73 5.31 2.7 6.15a.78.78 0 001.26.24l5.83-5.74a.72.72 0 00-.05-1.08l-5.45-4.53z" fill="#fff" opacity=".3"/><path d="M308.92 237.79l8.36-9.25 7.42 8.57 5.09 2.58a.59.59 0 01.23.83l-.14.24-8.64 2.2-.62-.74z" fill="#6266ea"/><path d="M308.92 237.79l8.36-9.25 7.42 8.57 5.09 2.58a.59.59 0 01.23.83l-.14.24-8.64 2.2-.62-.74z" fill="#fff" opacity=".3"/><path d="M309.39 169.54a17.8 17.8 0 10-33.95 7.46l-.72-.58c-1.72 1-2.62 2.69-2.56 5.24a63.75 63.75 0 0021.7 10.58 7.36 7.36 0 002.56-5.24l-.75-.16a17.8 17.8 0 0013.72-17.3zm-15 14.81a12.93 12.93 0 1112.93-12.93 12.92 12.92 0 01-12.89 12.93z" fill="#6266ea"/><path d="M309.39 169.54a17.8 17.8 0 10-33.95 7.46l-.72-.58c-1.72 1-2.62 2.69-2.56 5.24a63.75 63.75 0 0021.7 10.58 7.36 7.36 0 002.56-5.24l-.75-.16a17.8 17.8 0 0013.72-17.3zm-15 14.81a12.93 12.93 0 1112.93-12.93 12.92 12.92 0 01-12.89 12.93z" fill="#fff" opacity=".3"/><path d="M276.18 177.38l5.38 3.48c-4-2.9-6.29-7.14-6.73-12.91a16.72 16.72 0 001.35 9.43z" opacity=".2"/><path d="M296 154.14a18.14 18.14 0 0112 10.69 19.17 19.17 0 00-10.15-11.19zm.79-.92l-1.77.7-1.54-.28.4-1.21a6.32 6.32 0 012.91.79z" fill="#fff" opacity=".2"/><path fill="#263238" opacity=".2" d="M245.95 285.38l-.76 11.13.63.17.85-11.23-.72-.07z"/></svg>