<svg xmlns="http://www.w3.org/2000/svg" viewBox="0 0 490 490"><path fill="#ebebeb" d="M283.27 110.99H449.9v7.31H283.27zm9.35 7.31h7.31v24.17h-7.31z"/><path fill="#dbdbdb" d="M292.62 118.3h7.31v7.47h-7.31z"/><path fill="#ebebeb" d="M433.26 118.3h7.31v24.17h-7.31z"/><path fill="#dbdbdb" d="M433.26 118.3h7.31v7.47h-7.31z"/><path fill="#c7c7c7" d="M330.11 64.42v46.57h-11.73V64.42z"/><path fill="#dbdbdb" d="M330.1 61.93v5.12h-11.73v-5.12zm.01 11.67v1.9h-11.73v-1.9zm1.46 26.16v5.12h-13.19v-5.12z"/><path fill="#dbdbdb" d="M338.3 56.66v54.33h-8.2V56.66z"/><path fill="#ebebeb" d="M336.63 61.77v20.89h-4.92V61.77z"/><path fill="#c7c7c7" d="M357.953 66.996l38.638 38.195-5.765 5.831-38.637-38.195z"/><path fill="#dbdbdb" d="M371.534 82.683l14.856 14.686-3.46 3.499-14.855-14.686z"/><path fill="#a6a6a6" d="M352.21 69.73v41.26h-13.92V69.73z"/><path fill="#c7c7c7" d="M352.22 102.78v3.85H338.3v-3.85zm0-4.02v1.49H338.3v-1.49z"/><path fill="#a6a6a6" d="M318.38 72.22V111h-9.61V72.22z"/><path fill="#c7c7c7" d="M318.38 103.27v3.61h-9.61v-3.61zm0-23.06v3.61h-9.61v-3.61zm0 6.09v1.4h-9.61v-1.4z"/><path d="M420.21 61.31c-8.2 8-9.58 20.46-7.85 31.34.05.25.43.18.43-.05 0-2.48-.08-4.93-.07-7.38 0-.11.08-.22.13-.33a16.53 16.53 0 005.33-5.73c1.37-2.69 1.91-5.73 2.95-8.54.1-.27-.19-.19-.37-.06-5 3.68-6.58 7.64-8 12.94a44.26 44.26 0 01.87-8.24 28.08 28.08 0 016.82-13.73c.11-.14-.1-.36-.24-.22z" fill="#a6a6a6"/><path d="M421.75 62.25c1.42 0 2.3 2.3 3.4 3a1.06 1.06 0 001.56-.24c1.09-1.53-.41-3.4-1.81-4.45a15.39 15.39 0 002.92 1.34 1 1 0 001.32-.79c.48-2.07-2.12-3-3.91-3 .87-.6 3.35-2.23 2-3s-4.25 1.53-5.19 2.31c-1.4 1.13-3.06 2.82-3.13 4.59-.05 1.99 1.76.67 2.84.24z" fill="#dbdbdb"/><path d="M421.35 62.6c1.8-.82 5.27.36 5.56-.32.6-1.39-2.17-2.35-3.67-2.53 1.38-.38 4-1 3.94-2.3-.1-1.62-4.05-.23-6.05 1.31-2.51 1.93-2.5 3.79-2.08 4.16s2-.19 2.3-.32z" fill="#ebebeb"/><path d="M401.53 60.52c8.5 7.71 10.35 20.07 9 31 0 .25-.42.2-.43 0-.09-2.48-.11-4.93-.21-7.38l-.14-.32a16.52 16.52 0 01-5.54-5.52c-1.48-2.64-2.13-5.66-3.28-8.43-.11-.27.18-.2.37-.07 5.13 3.49 6.87 7.39 8.5 12.62a44.3 44.3 0 00-1.18-8.2 28.09 28.09 0 00-7.34-13.46.15.15 0 01.25-.24z" fill="#a6a6a6"/><path d="M400 61.51c-1.41.1-2.21 2.39-3.28 3.09a1.07 1.07 0 01-1.57-.18c-1.15-1.48.28-3.41 1.64-4.52a15.82 15.82 0 01-2.79 1.46 1 1 0 01-1.35-.74c-.55-2.06 2-3.08 3.79-3.19-.89-.57-3.43-2.1-2.14-3s4.3 1.37 5.28 2.1c1.44 1.08 3.16 2.71 3.29 4.47.13 2.11-1.74.9-2.87.51z" fill="#dbdbdb"/><path d="M400.45 61.84c-1.84-.75-5.25.57-5.57-.11-.65-1.36 2.08-2.42 3.56-2.66-1.39-.32-4.05-.82-4-2.15 0-1.62 4-.38 6.08 1.08 2.59 1.83 2.65 3.69 2.25 4.08s-2.02-.08-2.32-.24z" fill="#ebebeb"/><path d="M410.23 80.89a81.71 81.71 0 002.64 12.19.3.3 0 00.59-.12c-.56-3.76-1.58-7.44-2.13-11.2a56.06 56.06 0 01-.66-11.5c.36-6.34 2.08-13.07 6.21-18 .09-.12-.1-.28-.19-.17-8.28 9.64-7 21.47-6.95 22.53-1.17-4-2.38-8.57-6.81-12.64-.19-.17-.34-.09-.31.21.79 7.41 2.85 11.27 7.15 15.23.12 1.15.23 2.31.46 3.47z" fill="#a6a6a6"/><path d="M417 53.34c1.49-.66 3.54 1.23 5 1.36a1.21 1.21 0 001.49-1c.37-2.13-2.13-3.33-4.11-3.71 1.25-.07 2.48.26 3.71-.07a1.19 1.19 0 001-1.49c-.55-2.39-3.71-2-5.59-1.18.6-1.06 2.35-4 .58-4.18s-3.64 3.73-4.23 5c-.88 1.88-1.76 4.47-.93 6.34.89 2.16 2.13-.07 3.08-1.07z" fill="#dbdbdb"/><path d="M416.71 53.91c1.46-1.76 5.65-2.28 5.61-3.14-.08-1.74-3.43-1.34-5.08-.78 1.24-1.08 3.68-3 2.93-4.36-.92-1.63-4.31 1.8-5.62 4.4-1.64 3.27-.68 5.19-.06 5.37.85.24 1.98-1.2 2.22-1.49z" fill="#ebebeb"/><path d="M404.78 83.12L401.13 111h22.21c-.46-2.47-4.59-27.91-4.59-27.91z" fill="#dbdbdb"/><path d="M55.86 53.71h164.88v215.5H55.86zm160.53 4.35H60.21v206.8h156.18z" fill="#ebebeb"/><path fill="#ebebeb" d="M137.82 59.19h4.35v207.84h-4.35z"/><path fill="#ebebeb" d="M224.68 68.55H51.91V62.5h172.77zm0 6.81H51.91v-6.05h172.77zm0 6.82H51.91v-6.05h172.77zm0 6.81H51.91v-6.05h172.77zm0 6.81H51.91v-6.05h172.77zm0 6.81H51.91v-6.05h172.77zm0 6.8H51.91v-6.05h172.77zm0 6.82H51.91v-6.05h172.77zm0 6.81H51.91v-6.05h172.77z"/><path fill="#263238" d="M64.83 61.27h1.09v139.55h-1.09z"/><path fill="#263238" d="M63.44 205.88h3.86l-.97-5.54h-1.92l-.97 5.54zM60.91 61.27H62v201.88h-1.09z"/><path fill="#263238" d="M59.53 267.23h3.85l-.96-5.55h-1.93l-.96 5.55z"/><path fill="#dbdbdb" d="M231.43 65.52H45.17V52.85h186.26zm73.52 213.66h104.03v143.97H304.95z"/><path fill="#ebebeb" d="M299.91 273.84h114.11v5.34H299.91z"/><path fill="#dbdbdb" d="M414.02 273.84h35.89v5.34h-35.89z"/><path fill="#ebebeb" d="M408.98 279.18h35.25v143.97h-35.25z"/><path d="M397.77 345.81h-81.62v-46.13h81.62zm-81.37-.25h81.12v-45.63H316.4z" fill="#a6a6a6"/><path fill="#a6a6a6" d="M345.57 313.16h15.89v9.13h-15.89z"/><path d="M366.28 321.73h-16.14v-8h16.14zm-15.89-.25H366V314h-15.61zm47.38 82.29h-81.62v-46.13h81.62zm-81.37-.25h81.12v-45.63H316.4z" fill="#a6a6a6"/><path fill="#a6a6a6" d="M345.57 371.12h15.89v9.13h-15.89z"/><path d="M366.28 379.69h-16.14v-8h16.14zm-15.89-.25H366v-7.51h-15.61z" fill="#a6a6a6"/><ellipse cx="250" cy="463.75" rx="172.87" ry="9.48" fill="#ebebeb"/><path fill="#263238" d="M29.82 422.79l55.04-.24 55.05-.09L250 422.3l110.09.16 55.04.09 55.05.24-55.05.25-55.04.09-110.09.16-110.09-.16-55.05-.09-55.04-.25z"/><path d="M406.21 348.6s20.22-4.58 31.3-14.79 17.27-28.5 17.27-28.5a173.42 173.42 0 00-22.67 6c-1.81 1.93-5.26 5.92-6.86 9.69a47.14 47.14 0 01-.06-6.93 30.79 30.79 0 00-7.19 4.33c-9.19 8.04-11.79 30.2-11.79 30.2z" fill="#9fa1e4"/><path d="M442.16 314.2c2.75-1.91 5.56-3.75 8.3-5.67a.16.16 0 00-.17-.27 254.76 254.76 0 00-15.31 9.92c-1.73 1.21-3.43 2.48-5.11 3.77.11-.2.23-.4.35-.6.61-1 1.25-2 1.88-3a42.84 42.84 0 014.3-5.73c.06-.06 0-.16-.1-.09-1.58 1.81-3.15 3.61-4.59 5.53-.68.92-1.31 1.87-1.92 2.84-.31.5-.61 1-.9 1.52l-.31.53c-2.61 2.05-5.16 4.19-7.59 6.45a93.49 93.49 0 00-4.34 4.34c.78-2.45 1.47-4.92 2.37-7.33 0-.08-.1-.12-.13 0-.88 2.52-1.84 5.06-2.53 7.66-1.54 1.67-3 3.41-4.42 5.21 0-.11.05-.22.07-.33.23-1 .47-1.9.73-2.85.49-1.83 1-3.64 1.64-5.44a31.79 31.79 0 015.43-10.25c.06-.07 0-.17-.1-.1-3.95 4.68-6.26 10.28-7.74 16.17-.22.86-.42 1.72-.62 2.59-.1.46-.22.93-.3 1.4-.61.82-1.21 1.66-1.78 2.51a87.53 87.53 0 00-8.56 16.78 192.8 192.8 0 00-6.48 20.19.11.11 0 00.21 0c3.95-11.82 8-23.82 14.76-34.4 1.43-2.23 3-4.38 4.62-6.46a37.93 37.93 0 009.83-2 43.47 43.47 0 009.85-4.76 60.25 60.25 0 005.05-3.82c.08-.06 0-.17-.09-.1a40.25 40.25 0 01-9.26 5.6 51 51 0 01-10.2 3.49c-1.49.32-3 .56-4.52.77a84.84 84.84 0 016-6.61c.68-.68 1.39-1.33 2.09-2a48.44 48.44 0 017.47-4.28c3.31-1.6 6.58-3.3 9.85-5 1.85-.94 3.69-1.91 5.56-2.82.08 0 0-.15-.08-.11-3.32 1.6-6.69 3.1-10.05 4.64-3.15 1.44-6.35 2.89-9.38 4.6l-.38.22c2.74-2.38 5.57-4.65 8.47-6.84 2.65-1.98 5.36-3.96 8.13-5.87z" fill="#263238"/><path d="M441 324.62c-1.65.72-3.32 1.36-4.95 2.12s-3.26 1.7-4.85 2.64c-.07 0 0 .14.07.11 1.61-.77 3.24-1.5 4.84-2.3s3.25-1.7 4.93-2.44c.09-.03.05-.16-.04-.13z" fill="#263238"/><path d="M340.54 246.73a28.89 28.89 0 016 16.79c.06 1.81-.22 4.33-.43 7.31 7.53 4 13.19 11.27 13.19 11.27-4.28-2.57-10.16-3.61-13.33-3.19a39.47 39.47 0 00.77 6c1.4-.08 4.1.11 8.57 1.7a19.09 19.09 0 00-7.73 1.53c3.6 11.47 14.32 23.24 43.89 28.25a62.05 62.05 0 00-5.24-41.63c-8.81-17.39-45.69-28.03-45.69-28.03z" fill="#9fa1e4"/><path d="M401.76 365.48c-.51-4.9-1.16-9.78-1.91-14.65a294.26 294.26 0 00-6-28.95 114.64 114.64 0 00-4.27-13.19 20.89 20.89 0 00.11-2.37v-2.84c0-1.9-.11-3.79-.28-5.68a67.14 67.14 0 00-1.81-11.09c-.54-2.1-1.17-4.18-1.79-6.26a.07.07 0 10-.13 0 81.14 81.14 0 012.18 11.07 102.83 102.83 0 011 11.1c0 1 .06 2 .06 3v1.3a94.93 94.93 0 00-5-10.31 124.84 124.84 0 00-10.12-15.15 6.51 6.51 0 00-.24-1.65c-.14-.66-.29-1.32-.43-2-.31-1.35-.65-2.7-1-4-.74-2.68-1.71-5.27-2.55-7.92 0-.08-.15-.05-.13 0 .78 2.62 1.3 5.33 1.9 8 .3 1.32.59 2.64.88 4l.42 2v.15q-1.8-2.27-3.67-4.46c-5.64-6.62-11.84-12.73-18.07-18.8-.77-.75-1.55-1.47-2.33-2.21-.06-.06-.15 0-.09.1 6 6.22 11.82 12.5 17.37 19.08 1.32 1.56 2.62 3.15 3.9 4.75-.67-.46-1.35-.9-2-1.34-1.72-1.12-3.46-2.22-5.26-3.23s-3.6-2-5.44-2.9-3.93-1.7-5.76-2.77c-.08 0-.15.09-.07.12a44.38 44.38 0 015.4 3c1.8 1.07 3.6 2.15 5.37 3.27s3.48 2.19 5.21 3.31c1.44.93 2.86 1.95 4.35 2.82a139.66 139.66 0 019.47 13.79 101.68 101.68 0 014.9 9.29l-1.06-.46-2.71-1.2c-1.74-.78-3.49-1.53-5.23-2.29-3.32-1.44-6.69-2.77-9.94-4.35a45.12 45.12 0 01-5.31-2.95c-.07-.05-.14.07-.07.12 6.07 4.18 12.87 7.13 19.58 10.1l2.91 1.29c.8.35 1.6.75 2.42 1.06a103.76 103.76 0 015 13.7 279.71 279.71 0 016.48 28.67c1.7 9.66 2.84 19.38 3.73 29.15.11 1.22.22 2.43.36 3.65a.39.39 0 00.77 0c-.07-4.97-.58-9.94-1.1-14.87z" fill="#263238"/><path d="M383.77 283.8c-.55-3-1.35-5.95-2.16-8.89 0-.09-.15-.05-.13 0 .75 2.89 1.29 5.83 1.83 8.77s1 6 1.46 9h.08a78.4 78.4 0 00-1.08-8.88zM371 292a54.06 54.06 0 00-6.43-3.62c-1.08-.55-2.17-1.08-3.26-1.61s-2.3-1-3.42-1.56a.07.07 0 10-.06.12c1.08.54 2.1 1.2 3.17 1.78s2.18 1.2 3.28 1.79c2.16 1.16 4.29 2.45 6.56 3.39a.17.17 0 00.16-.29z" fill="#263238"/><path d="M406.58 313.58s18.71-4.46 27.3-17c8.2-12 10.85-32.42 11.06-34.21-.34 1.65-4.2 19.5-16.93 27.82-9.75 6.36-19.17 11.6-21.43 23.39z" fill="#263238" opacity=".1"/><path d="M423.85 281.26a23.88 23.88 0 00-6.9 11.36s.05.06.06 0a27.81 27.81 0 016.93-11.27c.06-.04-.03-.15-.09-.09z" fill="#263238"/><path d="M406.58 313.58s18.71-4.46 27.3-17c8.2-12 10.85-32.42 11.06-34.21a.69.69 0 000-.13s-9 12.75-18.4 16-22.66 14.5-19.96 35.34z" fill="#9fa1e4"/><path d="M441.65 269.27a76.88 76.88 0 01-5.79 9.88 39.54 39.54 0 01-7.69 7.92c-2.54 2-5.23 3.85-7.8 5.83l.06-.1c.48-.71 1-1.41 1.53-2.09 1.07-1.37 2.24-2.66 3.42-3.94 2.32-2.52 4.7-5 6.78-7.72a28.63 28.63 0 003-4.83c0-.08-.09-.13-.13-.05-3 6.32-9.09 10.37-13.42 15.71a28.56 28.56 0 00-1.73 2.36 9.79 9.79 0 00-1.07 1.9 39.38 39.38 0 00-6.39 6.45 27.82 27.82 0 01.75-3.63 18.41 18.41 0 012-4.73c0-.08-.07-.16-.12-.08a22.63 22.63 0 00-2.18 4.71 16.43 16.43 0 00-.68 4 37.56 37.56 0 00-2.53 3.93l.24-1.2c.37-1.86.78-3.72 1.26-5.56a33.39 33.39 0 014.5-10.54c.05-.07-.06-.15-.11-.08a40.11 40.11 0 00-5 10.31c-.6 1.84-1.07 3.71-1.49 5.59-.21.92-.39 1.84-.57 2.77-.09.48-.19 1-.27 1.46a67.49 67.49 0 00-4.32 12.68 189.23 189.23 0 00-4 23.65 198.94 198.94 0 00-1.29 25.13c0 1 .08 2.1.14 3.15 0 .27.42.31.43 0 .19-4.15.3-8.31.54-12.46s.61-8.29 1-12.42a221.9 221.9 0 013.9-24.19c1.52-6.84 3.48-13.72 7.22-19.71a37.39 37.39 0 016.75-8c2.62-2.35 5.49-4.42 8.26-6.6a45 45 0 007.57-7.28 59.75 59.75 0 005.95-9.65c.44-.85.89-1.69 1.34-2.54.09-.04-.02-.11-.06-.03z" fill="#263238"/><path d="M438.42 272a64.11 64.11 0 01-4.17 7.29c0 .05.05.11.09.05a50.84 50.84 0 004.21-7.3c.04-.04-.1-.11-.13-.04z" fill="#263238"/><path d="M337.94 305.31s-.3 26.58 15.59 34.26 24.42 1.28 35.22 3.85c-.42-.64-8.13-11.72-20.39-14.77-12.63-3.15-26.6-12.26-30.42-23.34z" fill="#9fa1e4"/><path d="M337.94 305.31s-.3 26.58 15.59 34.26 24.42 1.28 35.22 3.85a59.8 59.8 0 00-18.07-5.33c-10.04-1.22-29.19-7.75-32.74-32.78z" opacity=".1"/><path d="M389.8 343.89a27.38 27.38 0 00-6.32-4.28c-.34-.16-.7-.29-1-.44-.17-.21-.35-.41-.54-.61a20 20 0 00-1.49-1.42 22 22 0 00-3.2-2.31c-2.63-1.55-5.52-2.63-8.21-4.07-.08 0-.15.08-.07.12 1.33.69 2.62 1.46 3.92 2.21s2.54 1.44 3.77 2.23a27.8 27.8 0 013.15 2.36c.28.24.54.51.81.78a42.89 42.89 0 00-5.37-1.43c-2.91-.59-5.85-1-8.76-1.62a43.58 43.58 0 01-4.21-1.14c-1.32-1.06-2.64-2.12-3.89-3.27a31.78 31.78 0 01-4.11-4.56c-.05-.07-.17 0-.11.08a48.73 48.73 0 006.51 7.19c-.68-.26-1.36-.54-2-.84a32.86 32.86 0 01-13.54-11.27c-.05-.08-.17 0-.12.07a37.14 37.14 0 0011 10.52 32.69 32.69 0 006.92 3.27 63.24 63.24 0 008.6 2 60.77 60.77 0 018.43 2 25.27 25.27 0 017.06 3.72 33.08 33.08 0 019.42 11.82c3 6 4.44 12.78 5.24 19.44 0 .28.47.28.45 0-.74-11.16-3.73-22.79-12.34-30.55z" fill="#263238"/><path d="M371.35 335.23a9.16 9.16 0 00-3.27-3 11.92 11.92 0 01-3.88-3.21c-.05-.07-.17 0-.12.07a13 13 0 003.43 3.07 11.94 11.94 0 013.74 3.1c.05.09.14.03.1-.03z" fill="#263238"/><path fill="#37474f" d="M379.79 363.51l.72 14.62 2.22 44.66h33.34l2.22-44.66.72-14.62h-39.22z"/><path fill="#263238" d="M379.79 363.51l.72 14.62h37.78l.72-14.62h-39.22z"/><path fill="#37474f" d="M421.34 371.36h-43.9v-13.95h43.9z"/><path d="M235.19 456.64c-2.33.75-68.82-.1-71.33-1.74-1-.6-1.4-10.3-1.6-22v-.37q-.07-3.63-.08-7.43v-1l3.22-34.49 44.48.43-4.38 34.17v1.36l-.27 7.07v.73S230.44 445 233 447.1s4.53 8.79 2.19 9.54z" fill="#ffc4c0"/><path d="M235.19 456.64c-2.33.75-68.82-.1-71.33-1.74-1-.6-1.4-10.3-1.6-22v-.37q-.07-3.63-.08-7.43v-1l43.32.11v1.36l-.27 7.07v.73S230.44 445 233 447.1s4.53 8.79 2.19 9.54z" fill="#ebebeb"/><path d="M235.2 456.63c-1.2.39-19.26.35-36.92 0-3.55-.07-7.08-.15-10.45-.24-12.59-.34-23-.86-24-1.49s-1.4-10-1.59-21.54v-.87h.05l42.85.07v.74S230.45 445 233 447.09s4.53 8.8 2.2 9.54z" fill="#9fa1e4"/><path d="M234.47 454.05c-11.2-.42-56.43-1.05-67.54-.61-.09 0-.09.07 0 .07 11.1.66 56.33.92 67.54.72.24 0 .24-.17 0-.18zm-24.54-21.3c-4.4-.88-9.8-.27-13.21 2.83-.13.12 0 .31.18.26a62.51 62.51 0 0113-2.53.28.28 0 00.03-.56zm3.16 1.96c-4.4-.88-9.8-.27-13.21 2.83-.13.12 0 .31.18.26a62.51 62.51 0 0113-2.53.28.28 0 00.03-.56zm3.16 1.96c-4.4-.88-9.8-.27-13.21 2.83-.13.12 0 .31.18.26a62.51 62.51 0 0113-2.53.28.28 0 00.03-.56z" fill="#263238"/><path d="M198.28 456.63c-3.55-.07-7.08-.15-10.45-.24-12.59-.34-23-.86-24-1.49s-1.4-10-1.59-21.54v-.87h.05c5.89 4.12 26.58 17.89 35.99 24.14z" fill="#263238"/><path d="M207.72 432.72h-47.89s9.62-111.85 9.25-113.8c-.48-2.5-3.31-13.82-7.08-28.61-1.18-4.63-2.45-9.59-3.78-14.74-3.57-13.91-7.51-29.12-10.94-42.35-5.15-19.82-9.17-35.22-9.17-35.22h40.58s4.73 15 10.7 34.5c9.72 31.7 22.71 75.33 24 85.94 2.07 17.13-5.67 114.28-5.67 114.28z" fill="#37474f"/><path d="M205.6 424.55c-7.32-.15-5.21-.21-12.53-.28-3.58 0-27.1-.24-30.44.32a.08.08 0 000 .15c3.34.55 26.86.34 30.44.31 7.32-.08 5.22-.14 12.53-.29a.11.11 0 000-.21zm-27.52-112.46c-1.57-6.92-3.92-13.7-6-20.5q-6.23-20.7-12.53-41.39-3.15-10.35-6.33-20.68-1.6-5.22-3.23-10.43c-1.06-3.4-2.28-6.77-3.24-10.2-.39-1.39-.6-.62-.1 1.15 1 3.57 2 7.14 3.05 10.71q3.09 10.58 6.23 21.15 6.22 21 12.57 42 3.17 10.55 6.34 21.07a85.6 85.6 0 012.59 10.2 46.8 46.8 0 01.43 10.9c-.46 7.33-1.3 14.65-2 21.95s-1.35 14.65-2 22l-4 43.73q-.25 2.78-.47 5.55c0 .62.89.57 1 0 1.58-14.42 2.78-28.88 4.13-43.32s2.69-28.73 4-43.09c.34-3.61.72-7.22.72-10.85a44.59 44.59 0 00-1.16-9.95z" fill="#263238"/><path d="M174.08 198c-2.81 21.8-8.17 62.67-12.08 92.32-9.16-35.92-23.89-92.32-23.89-92.32z" fill="#263238"/><path d="M183.6 457.29c-2.33.76-68.82.16-71.34-1.48-1-.6-1.44-10.29-1.68-22v-.37c-.06-2.42-.1-4.91-.11-7.43v-1c-.16-16.93 1.06-34.49 1.06-34.49l43.46.27-1.2 34.17-.05 1.36-.24 7.07v.73s25.34 11.61 27.92 13.7 4.51 8.72 2.18 9.47z" fill="#ffc4c0"/><path d="M183.6 457.29c-2.33.76-68.82.16-71.34-1.48-1-.6-1.44-10.29-1.68-22v-.37c-.06-2.42-.1-4.91-.11-7.43v-1l43.32-.05-.05 1.36-.24 7.07v.73s25.34 11.61 27.92 13.7 4.51 8.72 2.18 9.47z" fill="#ebebeb"/><path d="M183.6 457.29c-2.33.76-68.82.16-71.34-1.48-1-.6-1.44-10.29-1.68-22v-.37l42.9-.09v.73s25.34 11.61 27.92 13.7 4.53 8.76 2.2 9.51z" fill="#9fa1e4"/><path d="M182.87 454.7c-11.2-.37-56.44-.84-67.54-.36-.09 0-.1.07 0 .07 11.09.62 56.33.72 67.54.48.24-.01.24-.18 0-.19zm-24.62-21.2c-4.4-.87-9.8-.24-13.2 2.87-.13.12 0 .31.18.27a61.88 61.88 0 0113-2.59.28.28 0 00.02-.55zm3.17 1.94c-4.4-.86-9.81-.23-13.2 2.88-.14.12 0 .31.18.26a62.51 62.51 0 0113-2.58.28.28 0 00.02-.56zm3.17 1.95c-4.41-.86-9.81-.23-13.21 2.88-.13.12 0 .3.19.26a61.65 61.65 0 0113-2.58.28.28 0 00.02-.56z" fill="#263238"/><path d="M177.38 198s-.93 19.42-5.37 34.8c-.36 1.27-.75 2.52-1.16 3.72a72.05 72.05 0 00-11.7 6s-.46 15.62-.93 33c-.51 19.48-1.05 41.21-.93 45.81.41 17.24-2.13 112-2.13 112l-47.88.2s8.63-105.86 8.57-112.18c-.09-10.15 2.31-55 4.16-87.73 1.14-20.16 2.07-35.7 2.07-35.7z" fill="#37474f"/><path d="M153.51 424.91c-7.31-.12-5.21-.18-12.52-.22-3.58 0-27.11-.12-30.45.45-.07 0-.07.14 0 .15 3.35.54 26.87.23 30.45.18 7.31-.11 5.21-.16 12.52-.34a.11.11 0 000-.22zM126.1 205c-.87 26.71-1.8 53.43-3 80.12s-2.8 53.58-5 80.3c-1.25 14.93-2.42 35.94-4 50.83 0 .1.14.14.16 0 3.48-26.5 5.41-59.26 7.12-85.93s2.86-53.36 3.77-80.06c.51-15.1.9-30.21 1.35-45.32-.06-.22-.39-.2-.4.06zm46.74 30.37a88.73 88.73 0 00-13.69 7.17.16.16 0 00.15.28c4.61-2.25 9.33-4.41 13.82-6.9a.31.31 0 00-.28-.55z" fill="#263238"/><path d="M173.1 218.89c-.31 1.7-.73 3.39-1.09 5.08s-.6 3.21-1 4.77a8.14 8.14 0 01-2.22 4c-.63.58-1.31 1.09-2 1.62-.35.28-.74.56-1.11.85 0-.23.09-.46.13-.69l.33-1.93c.24-1.44.47-2.87.69-4.31.43-2.82.82-5.68 1.41-8.47 0-.12-.15-.16-.17 0-.71 2.77-1.48 5.52-2.1 8.31-.3 1.37-1.37 8.13-1.41 8.61s-.09 1-.11 1.49a5.53 5.53 0 000 1.52c0 .12.18.1.23 0a6.56 6.56 0 00.43-1.47c.12-.48.23-1 .31-1.46 0-.18.06-.36.09-.54.66-.41 1.28-.94 1.9-1.39s1.36-1 2-1.5a7.57 7.57 0 002.43-3.79 27.69 27.69 0 00.8-4.86c.21-1.93.37-3.86.64-5.77.01-.14-.16-.18-.18-.07z" fill="#263238"/><path d="M160.76 147.23c2.66 7.41 12 24 26.35 37.08 5.55 5.05 46.84 1.73 50.93.14 2.86-1.12 8.2-21.93 5.19-23.81-5.64-3.53-42.55 4.61-44.12 3.78-2.4-1.28-18.3-11.93-28.53-22-7.47-7.42-14.22-7.5-9.82 4.81z" fill="#ffc4c0"/><path d="M171.38 169.11l23.42-9.3s-21-18.07-28.7-21.64c-8.65-4-8.81 1.28-5.77 9.81s11.05 21.13 11.05 21.13z" fill="#9fa1e4"/><path d="M171.38 169.11l23.42-9.3s-21-18.07-28.7-21.64c-8.65-4-8.81 1.28-5.77 9.81s11.05 21.13 11.05 21.13z" opacity=".1"/><path d="M189.85 157c-.86.19-8.2 3-9.79 3.62s-8.08 3.19-9.66 4a.06.06 0 000 .12c1.7-.49 8.26-3 9.88-3.66s8.84-3.54 9.59-4c.13-.08.04-.08-.02-.08z" fill="#263238"/><path d="M180.41 165.52l-9 3.59s-8-12.59-11-21.12c-2.22-6.24-2.73-10.76.53-11.16z" fill="#263238"/><path d="M116.73 219.14c.15.17 66.39.6 67-.07.85-1-13.86-72.77-20.63-81.66-1.44-1.9-10.58-4.49-15.88-.17-11.26 9.17-21 40.65-23.3 50.15-3.76 15.61-7.74 31.13-7.19 31.75z" fill="#9fa1e4"/><path d="M163.47 138h-17.1c.28-.26.56-.5.84-.73a6.55 6.55 0 01.53-.39h14.73a2.91 2.91 0 01.62.56 5.43 5.43 0 01.38.56zm1.6 3.19h-21.65c.31-.39.62-.77.94-1.13h20.22c.16.35.32.73.49 1.13zm1.24 3.22H141.1c.26-.39.51-.76.77-1.13h24zm1.09 3.21h-28.27c.22-.38.44-.76.67-1.13H167c.16.37.28.75.4 1.13zm1.02 3.22h-31c.2-.38.39-.76.6-1.13h30.1c.06.37.18.75.3 1.13zm.95 3.22h-33.61c.18-.38.36-.76.55-1.13H169zm.91 3.21h-36l.51-1.13H170c.07.37.17.75.28 1.13zm.87 3.22h-38.26l.48-1.13h37.48zm.85 3.22h-40.41c.14-.38.29-.75.45-1.13h39.67c.09.42.19.75.29 1.13zm.82 3.21h-42.47c.14-.38.28-.75.43-1.13h41.76c.09.38.19.75.28 1.13zm.81 3.22h-44.45c.13-.38.27-.75.41-1.13h43.76c.09.38.18.75.28 1.13zm.78 3.21h-46.34c.12-.37.25-.75.39-1.12h45.68zm.77 3.22H127l.36-1.13h47.54zm.75 3.22H126c.11-.37.22-.75.34-1.13h49.33c.09.34.18.76.26 1.13zm.75 3.21h-51.61l.32-1.12h51c.11.38.2.75.29 1.12zm.72 3.22h-53.2c.09-.35.19-.73.29-1.13h52.66c.08.38.17.75.25 1.13zm.72 3.22h-54.7l.27-1.13h54.18c.13.38.13.76.25 1.13zm.7 3.21h-56.18l.27-1.12h55.67zm.68 3.22h-57.64l.27-1.13h57.13c.09.38.17.75.24 1.13zm.68 3.22h-59.1l.27-1.13H180c0 .38.11.76.18 1.13zm.66 3.21H120.3l.27-1.13h60c.12.38.2.76.27 1.13zm.65 3.22h-62c.1-.37.19-.75.28-1.13h61.47c.1.38.18.76.25 1.13zm.63 3.22h-63.37c.09-.37.17-.74.27-1.13h62.88c.1.39.15.76.22 1.13zm.6 3.26H118c.08-.37.17-.74.26-1.13h64.25c.07.34.14.71.21 1.13zm.56 3.17h-66c.07-.35.15-.73.25-1.13h65.55c.08.4.14.77.2 1.13zm.46 3.22h-67c0-.3.09-.68.17-1.13h66.69c.07.46.11.84.14 1.13z" opacity=".1"/><path d="M160.2 147c-2.28.34-9-3.83-11.51-8.33-.17-.31 1-12.76.94-15.25 0-.51 15.66 3.61 15.66 3.61a39.74 39.74 0 00-1.39 9.58 5.48 5.48 0 00.12 1v.17c.36 2-.48 8.76-3.82 9.22z" fill="#ffc4c0"/><path d="M150.64 123.53c.63 3.77 3.16 14.32 11.8 14.42a10 10 0 001.6-.11v-.17a6.5 6.5 0 01-.11-1 39.74 39.74 0 011.39-9.58s-11.21-2.96-14.68-3.56z" fill="#263238"/><path d="M151.15 102.42c-2.8 5.06-3.25 21.32-.13 25.62 4.51 6.24 13.56 8.66 19.28 2.86 5.54-5.63 5.75-26.83 2.12-30.91-5.35-5.99-17.13-5.06-21.27 2.43z" fill="#ffc4c0"/><path d="M164.42 115.35s-.08.05-.08.1c0 1.09-.19 2.35-1.19 2.68v.06c1.22-.13 1.45-1.8 1.27-2.84z" fill="#263238"/><path d="M163.48 114.18c-1.75-.19-2 3.33-.38 3.51s1.9-3.35.38-3.51zm6.97 1.53s.08.05.08.1c-.12 1.09-.06 2.36.9 2.79v.06c-1.21-.26-1.26-1.94-.98-2.95z" fill="#263238"/><path d="M171.51 114.64c1.76 0 1.65 3.52 0 3.53s-1.51-3.53 0-3.53zM162 113a12.12 12.12 0 001.4-.38 2.37 2.37 0 001.35-.66.74.74 0 00-.06-.91 1.84 1.84 0 00-1.85-.33 2.75 2.75 0 00-1.65 1.07.8.8 0 00.81 1.21zm11-.82a13 13 0 01-1.37-.46 2.42 2.42 0 01-1.32-.74.77.77 0 01.11-.91 1.87 1.87 0 011.87-.22 2.77 2.77 0 011.58 1.16.79.79 0 01-.87 1.17zm-10.6 12.96c.24.28.48.65.87.71a2.91 2.91 0 001.2-.19v.06a1.46 1.46 0 01-1.43.49 1.17 1.17 0 01-.79-1c.03-.09.11-.11.15-.07z" fill="#263238"/><path d="M163.78 122a3.74 3.74 0 002.37 1.84 4.89 4.89 0 001.33.15 1.11 1.11 0 00.26 0h.24a.28.28 0 00.24-.23v-.22c.08-.84.09-2.12.09-2.12.3.17 1.82 1 1.82.55a55.47 55.47 0 00-.63-11.36c0-.13-.21-.11-.2 0-.18 3.51.25 7 .13 10.56a6.37 6.37 0 00-1.72-.66c-.12 0 0 2.48 0 2.85a5.17 5.17 0 01-3.77-1.47c-.13-.1-.22-.03-.16.11z" fill="#263238"/><path d="M167 123.48a4.38 4.38 0 01-1.86 1.24 1.93 1.93 0 01-1.21 0c-.86-.29-.82-1.09-.61-1.76a4.73 4.73 0 01.46-1 5.73 5.73 0 003.22 1.52z" fill="#263238"/><path d="M165.15 124.72a1.93 1.93 0 01-1.21 0c-.86-.29-.82-1.09-.61-1.76a2 2 0 011.82 1.76z" fill="#ff9cbd"/><path d="M149.24 117.24c3-.39 5.88-9.77 5.88-9.77s-.64 4.07.14 4.08 4.74-5 5.68-9a31.25 31.25 0 006.73 4.62c3.46 1.63 7.51 2 7.61 1.37.27-1.84-.68-6.88-2.93-9a13.11 13.11 0 00-12.66-3.51c-6.26 1.39-8.38 5-9.7 7.78s-1.85 13.57-.75 13.43z" fill="#263238"/><path d="M161.44 121.17A4.84 4.84 0 11167 116a4.85 4.85 0 01-5.59 5.21zm1.45-8.92a4.57 4.57 0 00-1 0 4.2 4.2 0 101 0zm9.65 9.35c-1.83-.3-3.19-2.44-3.08-5a5.81 5.81 0 011.18-3.34 3 3 0 015.15.23 5.74 5.74 0 01.87 3.42c-.11 2.67-1.82 4.77-3.81 4.68a1.55 1.55 0 01-.31.01zm1-9h-.24a2.55 2.55 0 00-2.11 1.1 5.15 5.15 0 00-1 3c-.1 2.31 1.14 4.24 2.77 4.31s3-1.74 3.14-4a5.08 5.08 0 00-.77-3 2.67 2.67 0 00-1.84-1.38z" fill="#9fa1e4"/><path d="M166.85 116.52l-.4-.52c.76-.58 2.5-1.33 3.62 0l-.49.42c-1.01-1.2-2.66.04-2.73.1zm-20.65.48l-.56-.32c.15-.26 1.51-2.56 3-2.73s9 .81 9.41.87l-.09.64a82.39 82.39 0 00-9.24-.87c-1 .14-2.16 1.81-2.52 2.41z" fill="#9fa1e4"/><path d="M151.8 115.88s-2.58-5.76-5.13-4.93-1.28 8.7 1.23 10.22a2.79 2.79 0 004-.77z" fill="#ffc4c0"/><path d="M147.09 113.19v.07c1.75 1.13 2.41 3.09 2.77 5a1.55 1.55 0 00-2.2-.85.07.07 0 000 .12 1.71 1.71 0 011.75.94 8.22 8.22 0 01.61 1.68c.06.19.38.15.35 0 .5-2.47-.73-6.22-3.28-6.96z" fill="#263238"/><path d="M167.42 96.26a22.89 22.89 0 00-6.06-2.82c-2.41-.67-10.24-1.21-12.32.07s-3.64 8.5-3.85 9.56-.67 7.58 1.43 9.48 3.94-9 8.16-12.12 12.64-4.17 12.64-4.17z" fill="#9fa1e4"/><path d="M167.42 96.26s-8.42 1.08-12.64 4.17-6.05 14-8.16 12.12c-.93-.84-1.28-1.93-1.45-3.7 1-3.13 3-7.91 6.15-11 3-2.86 7.52-3.85 12.19-3.7a26.36 26.36 0 013.91 2.11z" opacity=".1"/><path d="M146.31 119.15c.64-2.89 4.75-10.27 8.52-14.3s13.31-5.29 14.58-5c3.08.63 4 1.73 4.53 1.52s-2.33-3-3.12-3.66-3-2.23-4.33-2.4-9.8-.56-13.35 2.55-9.29 12.44-8.88 15.1c.1.64.85 1.15 1 2.06.18 1.19.22 2.54.45 3.38.16.66.54 1 .6.75z" fill="#9fa1e4"/><path d="M155.84 103a15.13 15.13 0 01-1.8-1.78 10.52 10.52 0 01-1.46-2.1h-.09a8.22 8.22 0 001.27 2.3 7 7 0 002 1.68.08.08 0 00.08-.1zm-9.13 13.23c-.05-.23-.16-.43-.23-.65a3.34 3.34 0 01-.17-.76 6.59 6.59 0 00-.13-1.47 5.12 5.12 0 00-.54-1.07 2 2 0 01-.4-1.27c0-.06-.09-.08-.1 0a5 5 0 00.65 2.41A9.21 9.21 0 01146 115a2.29 2.29 0 00.59 1.33.09.09 0 00.12-.1zm1.47-3.01a7.45 7.45 0 01-1.15-2.3c-.13-.39-.22-.8-.34-1.2s-.35-.93-.47-1.41h-.09c.12.5.16 1 .27 1.52a10.93 10.93 0 00.38 1.27 6.71 6.71 0 00.54 1.15 3.23 3.23 0 00.82 1l.04-.03zm1.48-2.7a8.28 8.28 0 01-1.33-2c-.33-.72-.61-1.46-.89-2.2 0-.05-.11 0-.1 0a10.23 10.23 0 00.69 2.37 5.37 5.37 0 00.61 1 5.6 5.6 0 00.94.88s.12 0 .08-.05zm1.55-2.52a3.08 3.08 0 01-.66-.9c-.2-.36-.4-.73-.58-1.11s-.37-.71-.54-1.07a2.93 2.93 0 01-.37-1.15s-.09-.06-.1 0a3 3 0 00.17 1.19 7.31 7.31 0 00.5 1.24 9.8 9.8 0 00.66 1.13 1.88 1.88 0 00.85.78c.07-.01.14-.11.07-.11zm1.34-3.39c-.23-.3-.46-.61-.66-.93s-.4-.65-.59-1-.39-.69-.57-1c0-.06-.1 0-.09 0a7.66 7.66 0 00.39 1.14 8.83 8.83 0 00.56 1 9.11 9.11 0 00.68 1 3.27 3.27 0 00.85.81c.06 0 .12 0 .1-.09a5.83 5.83 0 00-.67-.93zm5.77-2.99a12.73 12.73 0 00-.73-1.17 13.88 13.88 0 00-.9-1.1 13.29 13.29 0 00-2-1.86c-.05 0-.12 0-.08.07 1.21 1.38 2.48 2.72 3.67 4.11l.04-.05zm2.13-2.24a5.61 5.61 0 00-.85-1.09 12.74 12.74 0 00-2.3-1.76c-.05 0-.11 0-.06.08.68.61 1.38 1.22 2 1.87a12.57 12.57 0 01.91 1c.29.35.49.76.75 1.13h.07a3.4 3.4 0 00-.52-1.23zm2.6-.79a6.32 6.32 0 00-.77-1.07 7.57 7.57 0 00-1.95-1.52c-.05 0-.1 0-.06.08a13.61 13.61 0 011.8 1.76c.28.32.53.65.8 1s.46.72.75 1a6.82 6.82 0 00-.57-1.25zm1.95-1.2a22.4 22.4 0 00-.84-.85 3.86 3.86 0 00-.93-.72c-.05 0-.09 0-.05.08.53.57 1 1.14 1.56 1.71a11 11 0 011.13 1.81h.06a3.81 3.81 0 00-.93-2.03zm2.28-.15a6.09 6.09 0 00-1.77-1.5s-.1.05 0 .08a7.73 7.73 0 011.58 1.6 10.1 10.1 0 011.14 1.93h.07a5 5 0 00-1.02-2.11zM170 99a4.68 4.68 0 00-.18-.48 5.7 5.7 0 00-.54-.89 11.11 11.11 0 00-1.47-1.52s-.11 0-.06.08a8.34 8.34 0 011.36 1.54 6.71 6.71 0 01.51.86c.07.15.14.3.2.45a3 3 0 00.18.45h.09A1.51 1.51 0 00170 99zm1.69.38a7.74 7.74 0 00-.43-.73 7.1 7.1 0 00-.53-.67c-.19-.22-.39-.43-.58-.66 0 0-.12 0-.07.07a5.15 5.15 0 01.53.7l.46.69.45.69c.16.24.28.5.46.72h.07a3.85 3.85 0 00-.36-.81z" fill="#263238"/><path d="M140.78 144.73c-8.88 15-24.47 52.12-18.46 60 8.08 10.53 34 23.6 42.36 24.88 3.61.56 12.53-26.73 9-28.34-4.26-1.93-27.93-12.51-28-13.93s3.23-18.66 4-33.41c.79-17.17-4.02-17.42-8.9-9.2z" fill="#ffc4c0"/><path d="M167.76 201.48s11-1.83 18.17-2.69c4-.48 11-.69 14.13.31 4.67 1.49 23.24 10.73 21.09 15.28-1.94 4.12-16.88-5.84-16.88-5.84s16 8.71 12.72 13.24-18.63-9-18.63-9 16.2 9.33 12.12 13.47c-3.09 3.13-17.72-8.31-17.72-8.31s13.87 8.11 10.84 11.47c-3.36 3.71-17.52-6-17.52-6-9.16 7.23-16.48 6.93-21.66 6.09-1.25-.18 3.34-28.02 3.34-28.02z" fill="#ffc4c0"/><path d="M198.94 205.17c1.91 1 3.86 1.91 5.68 3s3.6 2.31 5.31 3.6a36.74 36.74 0 016.17 5.64c-3.53-3.51-10-7.63-11.81-8.75s-3.58-2.33-5.39-3.46c-.05.01-.01-.06.04-.03zm-4.17 6.5c2.39 1.33 4.81 2.56 7.14 4s4.4 3 6.61 4.56c.17.12 0 .17-.13.06-2.27-1.49-4.49-2.7-6.79-4.16s-4.53-3-6.87-4.4c-.04-.03 0-.08.04-.06zm-4.59 4.94a61.2 61.2 0 0110.46 6.93c.16.13 0 .18-.18.06-3.43-2.37-6.11-4.26-10.34-6.86-.07-.04-.02-.17.06-.13z" fill="#263238"/><path d="M148.45 171.93h-25.2s12.82-24.58 18.63-30.74c6.53-6.94 8.65-2.08 9 7s-2.43 23.74-2.43 23.74z" fill="#9fa1e4"/><path d="M148.45 171.93h-25.2s12.82-24.58 18.63-30.74c6.53-6.94 8.65-2.08 9 7s-2.43 23.74-2.43 23.74z" opacity=".1"/><path d="M147.82 167.66c-.88-.13-8.73-.18-10.44-.15s-8.69.06-10.45.24a.06.06 0 000 .12c1.76.16 8.8.14 10.54.15s9.51-.11 10.37-.25c.06-.01.04-.1-.02-.11z" fill="#263238"/><path d="M249.16 161c1 4.26 4.47 10.08 4.14 13.3a3.71 3.71 0 01-2.88 3.38s2.78 2.27 2 5.15c-.4 1.48-3.13 2.14-3.13 2.14s2.15 1.92 1.3 4.43c-.69 2-3.31 2.36-3.31 2.36s1.2 2.8-.15 4.62c-2.74 3.69-20.47-.32-21.73-7.47-.59-3.33 3.69-2.12 3.69-2.12s-5.73-3.23-5-6.91 6.19-1.76 6.19-1.76-5.52-3.18-4.38-6.92 6.33-1 6.33-1-3.34-3.56-1.8-6.22c2.53-4.39 10.13 3.55 14.24 3.51l1.76-6.25z" fill="#ffc4c0"/><path d="M251.08 167.32c-.56-4.12 2.55-5.13 3.13-9.09.65-4.41-4.73-4.44-7.72 2.78l-1.82 6.47z" fill="#ffc4c0"/><path d="M246.86 191.91a.05.05 0 010 .1 31.55 31.55 0 01-18-5.23c-.17-.11-.05-.44.16-.34a64.62 64.62 0 0017.84 5.47zm2.5-6.86c.07 0 .06.13 0 .13-6.34.07-13.94-2.14-19.3-6.92-.19-.16-.19-.49 0-.32 3.83 2.91 13.48 6.31 19.3 7.11zM232 169.72c5.32 4.39 11.52 6.62 18.21 8 .08 0 .05.14 0 .14-3.46.22-7.63-1.11-10.79-2.42a18.23 18.23 0 01-7.54-5.54c-.16-.09-.04-.27.12-.18z" fill="#263238"/><path d="M223.77 138.08l45-.78a16.46 16.46 0 0112.23 5.22c6.72 7.14 12.81 18.87 18.61 35.86l-45 .78c-5.8-17-11.89-28.71-18.61-35.85a16.47 16.47 0 00-12.23-5.23z" fill="#ebebeb"/><path d="M256.92 172c5.28-.2 10.57-.27 15.85-.4s10.56-.17 15.84-.16c-5.28.2-10.56.27-15.84.41s-10.56.15-15.85.15zm34.08.28c-.24-.62-.49-1.26-.72-1.92v-.12h.12l2.17-.12h.1v.09l.61 2v.13h-.13c-.78-.02-1.51-.04-2.15-.06zm0 0c.75-.06 1.46-.12 2.17-.15l-.1.12-.65-2 .12.08c-.72 0-1.44 0-2.17.06l.09-.12c.14.66.3 1.32.54 2.01z" fill="#a6a6a6"/><path d="M292.22 171.49a8.63 8.63 0 01-.73-.6h.16a8.44 8.44 0 01-.91 1.95 9.11 9.11 0 01.73-2l.07-.14.09.11c.21.19.37.42.59.68z" fill="#9fa1e4"/><path d="M255.28 167.55c5.28-.2 10.57-.26 15.85-.4S281.69 167 287 167c-5.28.2-10.56.27-15.84.4s-10.59.17-15.88.15zm34.03.32c-.24-.61-.49-1.25-.72-1.92v-.11h.12l2.17-.12h.1v.1l.61 2v.13h-.13c-.72-.03-1.46-.05-2.15-.08zm0 0l2.17-.15-.1.13-.65-2 .12.09c-.72 0-1.44 0-2.17.06l.09-.12c.23.65.35 1.31.54 1.99z" fill="#a6a6a6"/><path d="M290.58 167.08a7 7 0 01-.73-.59h.16a8.64 8.64 0 01-.91 1.95 8.94 8.94 0 01.73-2l.07-.14.09.11c.21.17.4.42.59.67z" fill="#9fa1e4"/><path d="M253.64 163.15c5.28-.2 10.57-.26 15.85-.4s10.56-.17 15.84-.15c-5.28.2-10.56.26-15.84.4s-10.56.17-15.85.15zm34.03.32c-.24-.61-.49-1.26-.72-1.92v-.11h.05c.73-.06 1.45-.08 2.17-.12h.1v.09l.61 2v.13h-.13c-.66-.02-1.39-.05-2.08-.07zm0 0c.75-.06 1.46-.12 2.17-.15l-.1.13-.65-2 .12.09c-.72 0-1.44.05-2.17.05l.09-.12c.19.66.35 1.31.54 2z" fill="#a6a6a6"/><path d="M288.94 162.68a8.63 8.63 0 01-.73-.6h.16a8.71 8.71 0 01-.91 2 8.94 8.94 0 01.73-2l.07-.14.09.11c.21.13.4.38.59.63z" fill="#9fa1e4"/><path d="M251.58 158.75c5.28-.2 10.56-.27 15.84-.4s10.57-.17 15.85-.16c-5.28.2-10.56.27-15.84.41s-10.56.16-15.85.15zm34.03.32c-.24-.62-.49-1.26-.72-1.92v-.12h.11c.72-.05 1.45-.08 2.17-.12h.09v.09l.61 2v.12h-.13c-.74-.01-1.44-.03-2.13-.05zm0 0c.75-.06 1.46-.12 2.16-.15l-.09.12-.66-2 .13.08c-.72 0-1.45.06-2.17.06l.08-.12c.19.66.36 1.32.55 2.01z" fill="#a6a6a6"/><path d="M286.88 158.28a8.63 8.63 0 01-.73-.6h.16a9.36 9.36 0 01-.91 1.95 9.11 9.11 0 01.73-2l.07-.14.09.11c.21.18.4.4.59.68z" fill="#9fa1e4"/><path d="M249.28 154.34c5.28-.2 10.56-.26 15.84-.4s10.56-.16 15.85-.15c-5.28.2-10.57.27-15.85.4s-10.56.17-15.84.15zm34.02.32c-.23-.61-.49-1.25-.72-1.92v-.11h.13c.72-.05 1.44-.08 2.16-.12h.1v.1l.6 2v.13h-.13c-.71-.03-1.44-.05-2.14-.08zm0 0l2.17-.15-.09.13-.66-2 .12.09c-.72 0-1.44.05-2.17.06l.09-.12c.24.65.36 1.33.54 1.99z" fill="#a6a6a6"/><path d="M284.57 153.88q-.37-.28-.72-.6h.16a8.91 8.91 0 01-.92 1.95 8.94 8.94 0 01.73-2l.07-.14.1.11a8.61 8.61 0 01.58.68z" fill="#9fa1e4"/><path d="M246.31 149.71c5.28-.2 10.56-.26 15.85-.4s10.56-.17 15.84-.15c-5.28.2-10.56.26-15.84.4s-10.56.17-15.85.15zm34.03.29c-.24-.61-.49-1.26-.72-1.92v-.11h.12c.72-.06 1.45-.08 2.17-.12h.1v.09l.61 2v.13h-.13c-.73.01-1.49-.02-2.15-.07zm0 0c.75-.06 1.46-.12 2.16-.15l-.09.13-.65-2 .12.08c-.72 0-1.45.06-2.17.06l.09-.12c.2.69.35 1.34.54 2z" fill="#a6a6a6"/><path d="M281.61 149.24a8.63 8.63 0 01-.73-.6h.16a8.44 8.44 0 01-.91 1.95 8.86 8.86 0 01.73-2l.07-.14.09.11a8.54 8.54 0 01.59.68z" fill="#9fa1e4"/><path d="M242.81 145.08c5.28-.2 10.56-.27 15.84-.41s10.57-.16 15.85-.15c-5.28.2-10.56.27-15.84.4s-10.57.17-15.85.16zm34.03.31c-.24-.61-.49-1.25-.72-1.91v-.12h.12c.72 0 1.45-.08 2.17-.12h.09v.09l.61 2v.13H279c-.74-.02-1.47-.04-2.16-.07zm0 0c.75 0 1.46-.11 2.16-.14l-.09.12-.66-2 .13.09-2.17.06.08-.12c.19.65.36 1.31.55 1.99z" fill="#a6a6a6"/><path d="M278.1 144.61q-.37-.29-.72-.6h.16a9.36 9.36 0 01-.91 2 9.11 9.11 0 01.73-2l.07-.14.09.11a8.2 8.2 0 01.58.63z" fill="#9fa1e4"/><path d="M237.38 140.44c5.28-.2 10.56-.26 15.84-.4s10.57-.17 15.85-.15c-5.28.2-10.56.26-15.84.4s-10.57.17-15.85.15zm34.03.32c-.24-.61-.49-1.25-.72-1.92v-.11h.12c.72-.05 1.45-.08 2.17-.12h.02v.09l.61 2v.13h-.13c-.65-.02-1.38-.05-2.07-.07zm0 0c.75-.06 1.46-.12 2.16-.15l-.09.13-.66-2 .13.09-2.17.06.08-.13c.19.66.36 1.31.55 2z" fill="#a6a6a6"/><path d="M272.67 140q-.37-.28-.72-.6h.16a9.68 9.68 0 01-.91 2 8.94 8.94 0 01.73-2l.07-.14.09.11a8.07 8.07 0 01.58.63z" fill="#9fa1e4"/><path d="M224.23 138.08l45-.78c-5.91.1-11.78 3.69-15.6 9-9.76 13.57-18.11 55.72-18.51 81.58-.14 8.83 3.41 24.13 7.18 40.33 5 21.34 10.57 45.52 9.52 61.92-.79 12.35-4.46 27.17-8.34 42.85-3.37 13.57-6.84 27.61-8.81 41.35-2.33 16.32-.34 35.63 4.08 39.71a12.43 12.43 0 008.87 3.6l-45 .79a12.44 12.44 0 01-8.86-3.6c-4.43-4.08-6.42-23.39-4.09-39.72 2-13.73 5.45-27.77 8.81-41.34 3.88-15.69 7.55-30.5 8.35-42.85 1-16.4-4.57-40.59-9.53-61.93-3.77-16.19-7.32-31.5-7.18-40.32.4-25.86 8.75-68 18.51-81.59 3.82-5.31 9.69-8.89 15.6-9z" fill="#dbdbdb"/><path d="M271.48 404.31l45-.78c-9.67.17-21 12.83-33 26.24-12.24 13.66-24.8 27.69-35.83 27.88l-45 .79c11-.2 23.59-14.22 35.83-27.89 11.99-13.4 23.33-26.07 33-26.24z" fill="#c7c7c7"/><path d="M215.3 456c5.28-.2 10.56-.27 15.84-.41s10.56-.17 15.84-.15c-5.28.2-10.56.26-15.84.4s-10.56.16-15.84.16zm33.02.34c.26-.63.51-1.31.8-2v-.05h2.6l-.09.18-.94 2v.06h-.07zm0 0h2.32l-.09.06.89-2 .11.18h-2.34l.09-.05z" fill="#a6a6a6"/><path d="M250.4 455.47a4.37 4.37 0 01-.32-.55h.16a14.54 14.54 0 01-1.92 1.84 14 14 0 011.78-2l.12-.11v.15a4 4 0 01.18.67z" fill="#9fa1e4"/><path d="M220.2 452.31c5.28-.2 10.56-.27 15.84-.41s10.56-.17 15.85-.15c-5.28.2-10.56.26-15.84.4s-10.57.17-15.85.16zm33.03.31c.25-.63.5-1.31.8-2v-.05h2.6l-.08.18-.94 2v.06h-.06zm0 0h2.31l-.09.06.89-2 .11.18h-2.34l.09-.05z" fill="#a6a6a6"/><path d="M255.3 451.75a6.05 6.05 0 01-.32-.55h.17a14.54 14.54 0 01-1.92 1.84 13.91 13.91 0 011.77-2l.12-.11v.15a4 4 0 01.18.67z" fill="#9fa1e4"/><path d="M225.1 448.59c5.28-.2 10.56-.27 15.84-.41s10.57-.17 15.85-.15c-5.28.2-10.56.26-15.84.4s-10.56.17-15.85.16zm33.03.31c.26-.63.5-1.31.8-2v-.05h2.61l-.09.18-.94 2v.06h-.06zm0 0h2.31l-.09.06.89-2 .12.18h-2.34l.08-.05zm-28.66-4.03c5.27-.2 10.56-.27 15.84-.41s10.56-.17 15.84-.15c-5.28.2-10.56.26-15.84.4s-10.56.17-15.84.16zm33.02.31c.26-.63.51-1.31.8-2v-.05h2.6l-.09.18-.94 2v.06h-.07zm0 0h2.32l-.09.06.89-2 .11.18h-2.34l.08-.05zm-29.04-4.03c5.28-.2 10.57-.27 15.85-.41s10.56-.17 15.84-.16c-5.28.21-10.56.27-15.84.41s-10.56.17-15.85.16zm33.03.31c.26-.63.51-1.31.8-2v-.05h2.61l-.09.18-.94 2v.06h-.06zm0 0h2.32l-.09.06.89-2 .11.18h-2.34l.08-.05zm-29.77-4.03c5.28-.2 10.56-.27 15.84-.41s10.57-.17 15.85-.16c-5.28.21-10.56.27-15.84.41s-10.56.17-15.85.16zm33.03.31c.26-.63.5-1.31.8-2v-.05h2.61l-.09.17-.94 2v.06h-.06zm0 0h2.31l-.09.06.89-2 .12.18h-2.34l.08-.05zm-29.36-4.03c5.28-.2 10.56-.27 15.84-.41s10.57-.17 15.85-.16c-5.28.21-10.56.27-15.84.41s-10.56.17-15.85.16zm33.03.29c.26-.63.5-1.31.8-2h2.61l-.09.17-.94 2v.06h-.06zm0 0h2.31l-.09.06.89-2 .12.18h-2.34l.08-.05zm-29.61-4c5.28-.2 10.56-.27 15.84-.41s10.57-.17 15.85-.16c-5.28.21-10.56.27-15.84.41s-10.57.16-15.85.16zm33.03.3c.25-.63.5-1.31.8-2v-.05h2.6l-.08.17-.94 2v.06h-.06zm0 0h2.31l-.09.06.89-2 .12.18h-2.35l.09-.05zM247 426.27c5.27-.2 10.56-.27 15.84-.41s10.56-.17 15.84-.16c-5.28.21-10.56.27-15.84.41s-10.57.17-15.84.16zm33 .31c.26-.63.51-1.31.8-2h2.6l-.09.17-.94 2v.06h-.07zm0 0h2.32-.09l.89-2 .11.18h-2.34l.08-.05zm-29.49-4.03c5.28-.2 10.56-.27 15.84-.41s10.56-.17 15.85-.16c-5.28.21-10.57.27-15.85.41s-10.56.17-15.84.16zm33.02.31c.26-.63.51-1.31.8-2v-.06h2.6l-.08.17-.94 2v.06h-.07zm0 0h2.32l-.09.05.89-2 .11.18h-2.34l.09-.05zm-30.11-4.03c5.28-.2 10.56-.27 15.84-.41s10.57-.17 15.85-.16c-5.28.21-10.56.27-15.84.41s-10.56.17-15.85.16zm33.03.3c.26-.62.5-1.3.8-2v-.06h2.61l-.09.17-.94 2v.06h-.06zm0 0h2.31-.09l.89-2 .12.18h-2.34.08zM257 415.11c5.28-.2 10.57-.27 15.85-.41s10.56-.17 15.84-.16c-5.28.21-10.56.27-15.84.41s-10.54.17-15.85.16zm33.05.3c.26-.62.51-1.3.8-2v-.06h2.6l-.09.17-.94 2v.06h-.06zm0 0h2.32l-.09.05.89-2 .11.18h-2.34l.08-.05zm-28.69-4.02c5.28-.2 10.56-.27 15.84-.41s10.56-.17 15.85-.16c-5.28.21-10.57.27-15.85.41s-10.56.17-15.84.16zm33.02.3c.26-.62.51-1.3.8-2v-.06h2.6l-.08.17-.94 2v.06h-.07zm0 0h2.32-.09l.89-2 .11.18h-2.34.09zm-28.97-4.02c5.28-.2 10.56-.27 15.84-.41s10.56-.17 15.84-.16c-5.27.21-10.56.27-15.84.41s-10.56.17-15.84.16zm33.02.33c.26-.62.51-1.3.8-2v-.06h2.6l-.08.18-.94 2v.06h-.07zm0 0h2.32l-.09.05.89-2 .11.18h-2.34l.09-.05z" fill="#a6a6a6"/><path d="M271.46 404.33l45-.78c12.81-.23 20.8 14.29 28.53 28.32 6.78 12.31 13.19 23.95 22.16 23.79l-45 .79c-9 .15-15.38-11.48-22.16-23.79-7.73-14.04-15.72-28.55-28.53-28.33z" fill="#ebebeb"/><path d="M361.1 445.68l45-.79c-9.79.17-15.72 3-21.45 5.77-5.21 2.51-10.14 4.87-17.48 5l-45 .79c7.35-.13 12.27-2.49 17.48-5 5.73-2.75 11.66-5.6 21.45-5.77z" fill="#c7c7c7"/><path d="M338 454.41c4.61-.2 9.23-.27 13.84-.41s9.23-.17 13.85-.15c-4.61.2-9.23.26-13.84.4s-9.24.17-13.85.16zm29 .31c.25-.63.5-1.31.8-2v-.05h2.6l-.08.18-.94 2v.06h-.06zm0 0h2.31l-.09.06.89-2 .11.18h-2.34l.09-.05zm-21.68-3.33c4.78-.2 9.56-.26 14.34-.4s9.56-.17 14.35-.16c-4.78.2-9.57.27-14.35.41s-9.56.17-14.34.15zm30.02.31c.26-.62.51-1.3.8-2v-.06h2.6l-.08.18-.94 2v.07h-.07zm0 0h2.32l-.09.05.89-2 .11.17h-2.34l.09-.06zm-21.89-3.11c4.78-.2 9.56-.27 14.34-.41s9.56-.17 14.35-.15c-4.78.2-9.56.26-14.34.4s-9.57.17-14.35.16zm30.03.31c.25-.63.5-1.31.8-2v-.05h2.6l-.08.18-.94 2v.06h-.06zm0 0h2.31l-.09.06.89-2 .11.18h-2.34l.09-.05z" fill="#a6a6a6"/><path d="M361.09 445.68l45-.79c4.74-.08 28.85 10.69 29.87 11.15l-45 .78c-1.02-.46-25.12-11.22-29.87-11.14z" fill="#ebebeb"/><path d="M241.27 101.74a22.61 22.61 0 01-37.79 14.31l-11.32 1.66 5.66-9.78a22.62 22.62 0 1143.45-6.19z" fill="#fff"/><path d="M241.27 101.74a22.89 22.89 0 01-4.57 11.47 25.48 25.48 0 01-2 2.36 24.09 24.09 0 01-2.39 2 22.24 22.24 0 01-5.45 3 22.83 22.83 0 01-6.09 1.45 22 22 0 01-3.14.06 20.5 20.5 0 01-3.13-.32 22.81 22.81 0 01-11.19-5.53l.26.08-11.3 1.74-.82.12.41-.72 5.63-9.8v.39a22.83 22.83 0 011.39-20.16 23.24 23.24 0 017.08-7.55 22.85 22.85 0 0135.38 21.35zm0 0a22.37 22.37 0 00-25.65-24.47 22.17 22.17 0 00-9.35 3.73 23.39 23.39 0 00-6.76 7.38 22.31 22.31 0 00-1.28 19.42l.08.2-.11.19-5.69 9.76-.41-.59 11.33-1.59h.16l.11.1a22.28 22.28 0 0010.83 5.58 19.65 19.65 0 003.07.37 21.25 21.25 0 003.09 0 22.37 22.37 0 006-1.33 21.33 21.33 0 005.46-2.94 26.64 26.64 0 002.39-2 25.12 25.12 0 002-2.33 22.8 22.8 0 004.73-11.48z" fill="#263238"/><path fill="#9fa1e4" d="M216.12 112.29l-9.66-9.78 3.25-3.2 5.64 5.71 11.72-18.38 3.85 2.45-14.8 23.2z"/></svg>