<svg width="60" height="51" viewBox="0 0 60 51" fill="none" xmlns="http://www.w3.org/2000/svg">
<path d="M42.284 10.4354C40.2565 9.4217 38.0502 9.48133 36.0824 10.6739C33.876 12.0455 32.5045 14.6096 32.5045 17.4123V21.8846C32.2063 21.7653 31.8486 21.7057 31.5504 21.5864V1.49077C31.5504 0.655941 30.8945 0 30.0596 0C29.2248 0 28.5689 0.655941 28.5689 1.49077V21.5864C28.2707 21.6461 27.9129 21.7653 27.6148 21.8846V17.4123C27.6148 14.6096 26.2432 12.0455 24.0369 10.6739C22.1287 9.48133 19.8627 9.4217 17.8353 10.4354C7.75764 15.683 0.780808 29.7559 0.00560505 46.4525C-0.054026 47.5855 0.363391 48.7185 1.19823 49.5534C1.97343 50.3882 3.10642 50.8652 4.29904 50.8652H16.0463C22.4269 50.8652 27.5551 45.081 27.5551 37.9253V25.1643C28.2707 24.6872 29.1055 24.3891 30 24.3891C30.8945 24.3891 31.7293 24.6872 32.4449 25.1643V37.9253C32.4449 45.081 37.6328 50.8652 43.9537 50.8652H55.701C56.8936 50.8652 57.9669 50.3882 58.8018 49.5534C59.6366 48.7185 60.054 47.5855 59.9944 46.4525C59.3385 29.7559 52.3616 15.6233 42.284 10.4354ZM16.106 47.8837H4.35867C4.00088 47.8837 3.64309 47.7644 3.40457 47.4663C3.16605 47.2278 3.04679 46.87 3.04679 46.5718C3.76236 31.187 10.2621 17.77 19.2664 13.0592C19.7435 12.8207 20.2801 12.7014 20.8168 12.7014C21.4131 12.7014 22.0094 12.8803 22.5461 13.1785C23.858 14.0133 24.6928 15.5637 24.6928 17.3526V23.6735C24.0965 24.1506 23.0828 24.9854 21.5324 26.3569C20.9361 26.6551 19.5646 27.0725 18.5508 26.7743C18.0738 26.5954 17.716 26.2973 17.4179 25.701C17.0601 24.9854 16.1656 24.6872 15.3904 25.045C14.6748 25.4028 14.3767 26.2973 14.7345 27.0725C15.3904 28.3247 16.3445 29.2192 17.5968 29.6366C17.6564 29.6366 17.7756 29.6962 17.8353 29.6962C17.6564 29.8751 17.4775 30.054 17.2986 30.1733C12.5877 34.586 9.48693 33.7511 9.36767 33.7511C8.59247 33.5126 7.75764 33.93 7.45948 34.7052C7.16132 35.4804 7.63837 36.3153 8.41358 36.6134C8.47321 36.6134 9.06952 36.8519 10.0832 36.8519C11.5144 36.8519 13.84 36.4345 16.583 34.586C16.7619 36.0171 17.2986 37.6868 18.6105 39.2372C18.9086 39.595 19.326 39.7739 19.7435 39.7739C20.1013 39.7739 20.3994 39.6546 20.6976 39.4161C21.3535 38.8794 21.4131 37.9253 20.8765 37.329C19.0875 35.2419 19.3857 32.9163 19.6242 32.0815C21.8306 30.054 23.5002 28.5633 24.6332 27.5495V37.9253C24.6332 43.4114 20.8168 47.8837 16.106 47.8837ZM56.7743 47.4663C56.5358 47.7048 56.178 47.8837 55.8202 47.8837H44.0729C39.3621 47.8837 35.5457 43.4114 35.5457 37.9253V27.5495C36.7383 28.5633 38.408 30.054 40.5547 32.0815C40.7336 32.9163 41.0317 35.2419 39.3024 37.329C38.7658 37.9849 38.8254 38.8794 39.4813 39.4161C39.7795 39.6546 40.0776 39.7739 40.4354 39.7739C40.8528 39.7739 41.2703 39.595 41.5684 39.2372C42.8803 37.6868 43.4766 36.0171 43.5959 34.586C46.3985 36.4345 48.6645 36.8519 50.0956 36.8519C51.1094 36.8519 51.7057 36.6731 51.7653 36.6134C52.5405 36.3749 52.9579 35.4804 52.7194 34.7052C52.4809 33.93 51.6461 33.5126 50.8708 33.7511C50.7516 33.8108 47.5911 34.586 42.8803 30.1733C42.7014 29.9944 42.5225 29.8155 42.3436 29.6962C42.4032 29.6962 42.5225 29.6366 42.5821 29.6366C43.8344 29.2192 44.8481 28.3247 45.4444 27.0725C45.8022 26.3569 45.5041 25.4624 44.7885 25.045C44.0729 24.6872 43.1784 24.9854 42.761 25.701C42.4629 26.2376 42.1051 26.5954 41.628 26.7743C40.6143 27.1321 39.2428 26.6551 38.6465 26.3569C37.0961 24.9854 36.0824 24.1506 35.486 23.6735V17.3526C35.486 15.5637 36.3209 14.0133 37.6328 13.1785C38.1694 12.8207 38.7658 12.7014 39.3621 12.7014C39.8987 12.7014 40.3758 12.8207 40.9125 13.0592C49.9168 17.7104 56.4165 31.187 57.1321 46.5718C57.1321 46.9296 57.0128 47.2278 56.7743 47.4663Z" fill="#1B71A1"/>
</svg>
