<svg width="60" height="48" viewBox="0 0 60 48" fill="none" xmlns="http://www.w3.org/2000/svg">
<path d="M59.7839 24.966C59.2944 24.1093 46.9338 3.67147 31.1464 3.67147C27.1078 3.67147 23.314 5.01767 19.8261 7.03698C19.7649 7.03698 19.7037 7.03698 19.5813 7.03698C17.868 7.03698 16.5218 6.54745 15.6039 5.62958C14.0741 4.03861 14.1353 1.65216 14.1353 1.59097C14.1353 0.734293 13.5234 0.0611912 12.6667 0C11.81 0 11.1369 0.611908 11.0757 1.46858C11.0757 1.59097 11.0146 5.20125 13.401 7.71008C14.1353 8.50557 15.0532 9.11748 16.1546 9.48463C15.2367 10.2189 14.3189 10.9532 13.401 11.7487C11.81 11.6875 10.525 11.2592 9.66836 10.3413C8.13858 8.75033 8.19976 6.36388 8.19976 6.30269C8.19976 5.44601 7.58785 4.77291 6.73117 4.71172C5.8745 4.65053 5.20139 5.32363 5.1402 6.18031C5.1402 6.30269 5.07902 9.91296 7.46547 12.4218C8.32215 13.3397 9.42358 13.9516 10.6474 14.3187C9.60715 15.359 8.6893 16.4604 7.77143 17.5007C6.36403 17.3783 5.26258 16.9499 4.52829 16.1545C2.99851 14.5635 3.0597 12.177 3.0597 12.1158C3.0597 11.2592 2.4478 10.5861 1.59112 10.5249C0.734443 10.5249 0.0613367 11.1368 0.00014553 11.9935C0.00014553 12.1158 -0.0610344 15.7261 2.32542 18.235C3.24329 19.1528 4.34473 19.8259 5.62974 20.1931C3.73281 22.7631 2.57017 24.66 2.3866 24.9048C2.08064 25.3943 2.08064 26.0062 2.3866 26.4958C2.87613 27.3524 15.2368 47.7903 31.0241 47.7903C46.8114 47.7903 59.172 27.4136 59.6615 26.4958C60.0899 26.0062 60.0899 25.3943 59.7839 24.966ZM31.1464 44.7307C18.7246 44.7307 8.01619 29.4329 5.62974 25.7615C8.01619 22.09 18.7246 6.79222 31.1464 6.79222C43.5682 6.79222 54.2767 22.09 56.6632 25.7615C54.2767 29.3718 43.5682 44.7307 31.1464 44.7307Z" fill="#1B71A1"/>
<path d="M31.1466 9.17867C22.0291 9.17867 14.625 16.5828 14.625 25.7003C14.625 34.8178 22.0291 42.2219 31.1466 42.2219C40.2641 42.2219 47.6682 34.8178 47.6682 25.7003C47.7294 16.5828 40.2641 9.17867 31.1466 9.17867ZM30.963 20.6214C33.839 20.6214 36.1643 22.9467 36.1643 25.8227C36.1643 28.6986 33.839 31.0239 30.963 31.0239C28.0871 31.0239 25.7618 28.6986 25.7618 25.8227C25.823 22.9467 28.1483 20.6214 30.963 20.6214ZM23.7425 20.1931C22.7022 20.1931 21.9068 19.3364 21.9068 18.3573C21.9068 17.3171 22.7634 16.5216 23.7425 16.5216C24.7827 16.5216 25.5782 17.3783 25.5782 18.3573C25.6394 19.3364 24.7827 20.1931 23.7425 20.1931ZM31.1466 39.2235C23.6813 39.2235 17.6846 33.1656 17.6846 25.7615C17.6846 23.6198 18.1741 21.6005 19.092 19.8259C19.6427 21.6617 21.2336 23.0079 23.1918 23.2526C22.8858 24.0481 22.7634 24.966 22.7634 25.8838C22.7634 30.412 26.4349 34.1447 31.0242 34.1447C35.6136 34.1447 39.285 30.4732 39.285 25.8838C39.285 21.3557 35.6136 17.623 31.0242 17.623C30.2288 17.623 29.4333 17.7454 28.699 17.9902C28.5154 15.9709 27.1692 14.2575 25.2723 13.7068C27.0468 12.8501 29.0661 12.2994 31.2078 12.2994C38.6731 12.2994 44.6699 18.3573 44.6699 25.7615C44.6699 33.1656 38.6119 39.2235 31.1466 39.2235Z" fill="#1B71A1"/>
</svg>
