<svg width="25" height="55" viewBox="0 0 25 55" fill="none" xmlns="http://www.w3.org/2000/svg">
<path d="M19.5341 28.5568H18.8756C18.5163 28.5568 18.1571 28.6766 17.9177 28.916L17.8578 28.9759C14.7447 31.6101 10.2546 31.5502 7.14151 28.916C6.84218 28.6766 6.54284 28.5568 6.18363 28.5568H5.40535C3.72906 28.5568 2.23237 29.395 1.33436 30.7719C0.436343 32.1489 0.316608 33.8252 1.03502 35.3219L1.09489 35.4416C3.48959 40.5902 4.74681 45.679 4.74681 50.7078V52.7433C4.74681 53.5815 5.40535 54.24 6.2435 54.24H18.8157C19.6538 54.24 20.3124 53.5815 20.3124 52.7433V50.7078C20.3124 45.679 21.5097 40.5902 23.9643 35.4416L24.0242 35.3219C24.6827 33.8252 24.563 32.1489 23.7248 30.7719C22.767 29.395 21.2104 28.5568 19.5341 28.5568ZM21.2104 34.0646L21.1505 34.1245C18.5164 39.6323 17.1993 45.2 17.1993 50.6479V51.1868H7.62045V50.6479C7.62045 45.2 6.30337 39.6323 3.66919 34.1245L3.60933 34.0646C3.36986 33.5258 3.42972 32.9271 3.72906 32.3883C4.08826 31.8495 4.62708 31.5502 5.28562 31.5502H5.58496C9.65595 34.7232 15.2835 34.7232 19.3545 31.5502H19.4742C20.0729 31.5502 20.6716 31.8495 21.0308 32.3883C21.4499 32.9271 21.5097 33.5258 21.2104 34.0646Z" fill="#1B71A1"/>
<path d="M11.5724 37.7166C11.3329 36.9383 10.4948 36.5192 9.71652 36.7587C8.93824 36.9981 8.51917 37.8363 8.75864 38.6146C9.65665 41.3685 10.1955 44.1224 10.4948 46.8164C10.5547 47.5947 11.2132 48.1335 11.9915 48.1335C12.0514 48.1335 12.1112 48.1335 12.1711 48.1335C13.0092 48.0736 13.6079 47.2954 13.4882 46.5171C13.1888 43.6435 12.5303 40.6501 11.5724 37.7166Z" fill="#1B71A1"/>
<path d="M5.40551 25.6832H5.70484C7.74034 27.2397 10.1949 28.018 12.5896 28.018C15.0442 28.018 17.4389 27.2397 19.4744 25.6832H19.5941C21.2704 25.6832 22.7671 24.845 23.6651 23.4681C24.5631 22.0911 24.6829 20.4148 23.9645 18.9181L23.9046 18.7984C21.5099 13.6498 20.2527 8.56104 20.2527 3.53216V1.49669C20.2527 0.658543 19.5941 0 18.756 0H6.18379C5.34564 0 4.6871 0.658543 4.6871 1.49669V3.53216C4.6871 8.56104 3.48974 13.6498 1.03517 18.7984L0.975304 18.9181C0.316761 20.4148 0.436496 22.0911 1.27464 23.4681C2.23252 24.845 3.72921 25.6832 5.40551 25.6832ZM3.72921 20.1754L3.78908 20.1155C6.42326 14.6077 7.74034 9.04 7.74034 3.59205V3.05323H17.3191V3.59205C17.3191 9.04 18.6362 14.6077 21.2704 20.1155L21.3303 20.1754C21.5698 20.7142 21.5099 21.3129 21.2105 21.8517C20.8513 22.3905 20.3125 22.6898 19.654 22.6898H18.9954C18.6362 22.6898 18.277 22.8095 18.0376 23.049L17.9777 23.1089C14.8646 25.743 10.3745 25.6832 7.2614 23.049C6.96206 22.8095 6.66272 22.6898 6.30352 22.6898H5.40551C4.80683 22.6898 4.20816 22.3905 3.84895 21.8517C3.48974 21.3129 3.48974 20.7142 3.72921 20.1754Z" fill="#1B71A1"/>
<path d="M8.63851 20.2951C8.81811 20.355 8.99771 20.4148 9.17732 20.4148C9.77599 20.4148 10.3148 20.0556 10.5543 19.457C12.051 15.5656 13.0687 11.6143 13.4279 7.72289C13.4878 6.88475 12.8891 6.16637 12.1108 6.1065C11.2727 6.04663 10.5543 6.64528 10.4944 7.42356C10.1352 11.0755 9.23718 14.7274 7.80036 18.3794C7.50102 19.0978 7.86023 19.9957 8.63851 20.2951Z" fill="#1B71A1"/>
</svg>
